{
.appVersion = "3058";
.formatVersion = 3;
DisplayStrings = (
"Bin ookillnuseoachbilluonon bin",
o,
ex,
exin,
EXIM
);
axes = (
{
name = Weight;
tag = wght;
}
);
date = "2021-05-28 20:21:50 +0000";
familyName = "National Park Ex";
featurePrefixes = (
{
automatic = 1;
code = "languagesystem DFLT dflt;
";
name = Languagesystems;
}
);
features = (
{
automatic = 1;
code = "feature ss01;
";
tag = aalt;
},
{
automatic = 1;
code = "sub G by G.ss01;
sub a by a.ss01;
sub b by b.ss01;
";
labels = (
{
language = dflt;
value = "";
}
);
tag = ss01;
}
);
fontMaster = (
{
axesValues = (
60
);
customParameters = (
{
name = hheaAscender;
value = 0;
},
{
name = hheaDescender;
value = -153;
},
{
name = hheaLineGap;
value = 0;
},
{
name = typoAscender;
value = 0;
},
{
name = typoDescender;
value = -153;
},
{
name = typoLineGap;
value = 0;
},
{
name = winAscent;
value = 738;
},
{
name = winDescent;
value = 153;
}
);
guides = (
{
pos = (336,-14);
}
);
iconName = Light;
id = "877D6F36-AFBE-4448-AD1B-25E457939AA6";
metricValues = (
{
pos = 730;
},
{
over = 20;
pos = 700;
},
{
over = 20;
pos = 514;
},
{
over = -20;
},
{
pos = -200;
}
);
name = Light;
userData = {
GSCornerRadius = 30;
GSOffsetCapStyle = 2;
GSOffsetHorizontal = 30;
GSOffsetKeepCompatible = 1;
GSOffsetMakeStroke = 1;
GSOffsetProportional = 1;
GSOffsetVertical = 10;
};
},
{
axesValues = (
104
);
customParameters = (
{
name = hheaAscender;
value = 0;
},
{
name = hheaDescender;
value = -153;
},
{
name = hheaLineGap;
value = 0;
},
{
name = typoAscender;
value = 0;
},
{
name = typoDescender;
value = -153;
},
{
name = typoLineGap;
value = 0;
},
{
name = winAscent;
value = 738;
},
{
name = winDescent;
value = 153;
}
);
id = m01;
metricValues = (
{
pos = 730;
},
{
over = 20;
pos = 700;
},
{
over = 20;
pos = 514;
},
{
over = -20;
},
{
pos = -200;
}
);
name = Medium;
userData = {
GSCornerRadius = 50;
GSOffsetCapStyle = 2;
GSOffsetHorizontal = 85;
GSOffsetKeepCompatible = 1;
GSOffsetMakeStroke = 1;
GSOffsetProportional = 1;

glyphs = (
{
glyphname = A;
lastChange = "2021-06-04 20:28:34 +0000";
layers = (
{
background = {
shapes = (
{
closed = 0;
nodes = (
(-675,0,l),
(-414,700,l),
(-142,0,l)
);
},
{
closed = 0;
nodes = (
(-233,224,l),
(-582,223,l)
);
}
);
};
layerId = m01;
shapes = (
{
closed = 1;
nodes = (
(447,177,l),
(447,271,l),
(138,270,l),
(138,176,l)
);
},
{
closed = 1;
nodes = (
(85,0,o),
(104,13,o),
(112,34,cs),
(306,563,l),
(269,562,l),
(470,33,ls),
(478,13,o),
(498,0,o),
(518,0,cs),
(558,0,o),
(580,41,o),
(568,71,cs),
(333,667,ls),
(325,687,o),
(307,700,o),
(287,700,cs),
(267,700,o),
(249,687,o),
(241,667,cs),
(14,69,ls),
(-1,29,o),
(31,0,o),
(64,0,cs)
);
}
);
width = 572;
},
{
layerId = "877D6F36-AFBE-4448-AD1B-25E457939AA6";
shapes = (
{
closed = 1;
nodes = (
(432,197,l),
(432,251,l),
(121,250,l),
(121,196,l)
);
},
{
closed = 1;
nodes = (
(53,0,o),
(64,8,o),
(68,19,cs),
(283,635,l),
(252,635,l),
(482,19,ls),
(486,8,o),
(497,0,o),
(510,0,cs),
(533,0,o),
(545,24,o),
(538,42,cs),
(295,682,ls),
(291,693,o),
(280,701,o),
(267,701,cs),
(254,701,o),
(243,693,o),
(239,682,cs),
(12,41,ls),
(6,24,o),
(17,0,o),
(39,0,cs)
);
}
);
width = 550;
},
{
background = {
shapes = (
{
closed = 1;
nodes = (
(504,197,l),
(504,251,l),
(153,250,l),
(153,196,l)
);
},
{
closed = 1;
nodes = (
(44,41,ls),
(37,24,o),
(49,0,o),
(71,0,cs),
(85,0,o),
(96,8,o),
(100,19,cs),
(335,635,l),
(304,635,l),
(554,19,ls),
(559,8,o),
(569,0,o),
(582,0,cs),
(605,0,o),
(617,24,o),
(610,42,cs),
(347,682,ls),
(343,693,o),
(332,701,o),
(319,701,cs),
(306,701,o),
(295,693,o),
(291,682,cs)
);
}
);
};
layerId = "D47B13D9-D7EB-4385-B3F1-1D14F737A65A";
shapes = (
{
closed = 1;
nodes = (
(476,138,l),
(475,286,l),
(142,285,l),
(143,138,l)
);
},
{
closed = 1;
nodes = (
(131,0,o),
(163,22,o),
(174,53,cs),
(343,530,l),
(306,530,l),
(473,53,ls),
(484,22,o),
(516,0,o),
(553,0,cs),
(625,0,o),
(650,77,o),
(632,118,cs),
(396,647,ls),
(381,680,o),
(351,700,o),
(318,700,cs),
(284,700,o),
(254,680,o),
(240,647,cs),
(16,116,ls),
(-3,71,o),
(27,0,o),
(95,0,cs)
);
}
);
width = 648;
}
);
unicode = 65;
},
{
glyphname = B;
lastChange = "2021-06-08 19:38:45 +0000";
layers = (
{
background = {
shapes = (
{
closed = 0;
nodes = (
(112,700,l),
(112,0,l)
);
},
{
closed = 0;
nodes = (
(123,381,l),
(382,381,ls),
(471,381,o),
(541,454,o),
(541,548,cs),
(541,633,o),
(471,700,o),
(383,700,cs),
(113,700,l)
);
},
{
closed = 0;
nodes = (
(113,0,l),
(383,0,ls),
(489,0,o),
(573,82,o),
(573,191,cs),
(573,297,o),
(487,381,o),
(384,381,c)
);
},
{
closed = 1;
nodes = (
(1077,700,l),
(973,700,l),
(973,0,l),
(1077,0,l)
);
},
{
closed = 1;
nodes = (
(1036,433,l),
(1036,329,l),
(1289,329,l),
(1289,433,l)
);
},
{
closed = 1;
nodes = (
(1370,329,o),
(1424,313,o),
(1424,235,cs),
(1424,150,o),
(1381,104,o),
(1303,104,cs),
(1026,104,l),
(1026,0,l),
(1279,0,ls),
(1413,0,o),
(1528,97,o),
(1528,235,cs),
(1528,365,o),
(1418,433,o),
(1289,433,c),
(1289,329,l)
);
},
{
closed = 0;
nodes = (
(1812,700,l),
(1812,0,l)
);
},
{
closed = 0;
nodes = (
(1823,381,l),
(2082,381,ls),
(2171,381,o),
(2241,454,o),
(2241,548,cs),
(2241,633,o),
(2171,700,o),
(2083,700,cs),
(1813,700,l)
);
},
{
closed = 0;
nodes = (
(1813,0,l),
(2083,0,ls),
(2189,0,o),
(2273,82,o),
(2273,191,cs),
(2273,297,o),
(2187,381,o),
(2084,381,c)
);
},
{
closed = 1;
nodes = (
(1290,596,ls),
(1356,596,o),
(1393,562,o),
(1393,504,cs),
(1393,437,o),
(1355,433,o),
(1289,433,c),
(1289,329,l),
(1405,329,o),
(1497,387,o),
(1497,504,cs),
(1497,614,o),
(1404,700,o),
(1291,700,cs),
(1026,701,l),
(1026,597,l)
);
}
);
};
layerId = m01;
shapes = (
{
closed = 1;
nodes = (
(411,0,ls),
(543,0,o),
(630,94,o),
(630,205,cs),
(630,291,o),
(598,359,o),
(532,393,c),
(564,428,o),
(584,475,o),
(584,530,cs),
(584,627,o),
(494,700,o),
(375,700,cs),
(112,700,ls),
(83,700,o),
(60,677,o),
(60,648,cs),
(60,52,ls),
(60,23,o),
(83,0,o),
(112,0,cs)
);
},
{
closed = 1;
nodes = (
(164,596,l),
(373,596,ls),
(446,596,o),
(480,570,o),
(480,515,cs),
(480,450,o),
(445,419,o),
(371,419,cs),
(164,419,l)
);
},
{
closed = 1;
nodes = (
(164,321,l),
(412,321,ls),
(483,321,o),
(526,282,o),
(526,211,cs),
(526,142,o),
(481,104,o),
(405,104,cs),
(164,104,l)
);
}
);
width = 680;
},
{
background = {
shapes = (
{
closed = 0;
nodes = (
(95,700,l),
(95,0,l)
);
},
{
closed = 0;
nodes = (
(106,381,l),
(365,381,ls),
(454,381,o),
(524,454,o),
(524,548,cs),
(524,633,o),
(454,700,o),
(366,700,cs),
(96,700,l)
);
},
{
closed = 0;
nodes = (
(96,0,l),
(366,0,ls),
(472,0,o),
(556,82,o),
(556,191,cs),
(556,297,o),
(470,381,o),
(367,381,c)
);
},
{
closed = 1;
nodes = (
(33,30,ls),
(33,13,o),
(46,0,o),
(63,0,cs),
(398,0,ls),
(509,0,o),
(589,78,o),
(589,218,cs),
(589,310,o),
(508,420,o),
(398,407,cs),
(93,370,l),
(93,347,l),
(397,347,ls),
(477,347,o),
(529,282,o),
(529,218,cs),
(529,114,o),
(477,60,o),
(401,60,cs),
(48,60,l),
(93,15,l),
(93,407,l),
(33,370,l)
);
}
);
};
layerId = "877D6F36-AFBE-4448-AD1B-25E457939AA6";
shapes = (
{
closed = 1;
nodes = (
(390,0,ls),
(519,0,o),
(589,82,o),
(589,205,cs),
(589,293,o),
(546,354,o),
(487,384,c),
(531,417,o),
(559,468,o),
(559,527,cs),
(559,622,o),
(479,700,o),
(368,700,cs),
(90,700,ls),
(73,700,o),
(60,687,o),
(60,670,cs),
(60,30,ls),
(60,13,o),
(73,0,o),
(90,0,cs)
);
},
{
closed = 1;
nodes = (
(120,640,l),
(371,640,ls),
(447,640,o),
(499,586,o),
(499,527,cs),
(499,458,o),
(447,409,o),
(367,408,cs),
(120,406,l)
);
},
{
closed = 1;
nodes = (
(120,347,l),
(387,347,ls),
(469,347,o),
(529,308,o),
(529,203,cs),
(529,119,o),
(481,60,o),
(401,60,cs),
(120,60,l)
);
}
);
width = 639;
},
{
background = {
shapes = (
{
closed = 0;
nodes = (
(150,700,l),
(150,0,l)
);
},
{
closed = 0;
nodes = (
(161,381,l),
(420,381,ls),
(509,381,o),
(579,454,o),
(579,548,cs),
(579,633,o),
(509,700,o),
(421,700,cs),
(151,700,l)
);
},
{
closed = 0;
nodes = (
(151,0,l),
(421,0,ls),
(527,0,o),
(611,82,o),
(611,191,cs),
(611,297,o),
(525,381,o),
(422,381,c)
);
}
);
};
layerId = "D47B13D9-D7EB-4385-B3F1-1D14F737A65A";
shapes = (
{
closed = 1;
nodes = (
(434,0,ls),
(561,0,o),
(672,90,o),
(672,216,cs),
(672,275,o),
(641,326,o),
(590,363,c),
(616,396,o),
(630,437,o),
(630,483,cs),
(630,623,o),
(530,700,o),
(393,700,cs),
(135,700,ls),
(88,700,o),
(50,661,o),
(50,615,cs),
(50,84,ls),
(50,38,o),
(88,0,o),
(135,0,cs)
);
},
{
closed = 1;
nodes = (
(220,529,l),
(392,529,ls),
(434,529,o),
(460,512,o),
(460,483,cs),
(460,449,o),
(436,428,o),
(396,428,cs),
(220,427,l)
);
},
{
closed = 1;
nodes = (
(220,278,l),
(438,278,ls),
(478,278,o),
(502,258,o),
(502,224,cs),
(502,190,o),
(478,170,o),
(439,170,cs),
(220,170,l)
);
}
);
width = 712;
}
);
unicode = 66;
},
{
glyphname = E;
lastChange = "2021-06-01 03:27:49 +0000";
layers = (
{
background = {
shapes = (
{
closed = 0;
nodes = (
(-801,700,l),
(-801,0,l)
);
},
{
closed = 0;
nodes = (
(-361,371,l),
(-800,371,l)
);
},
{
closed = 0;
nodes = (
(-361,700,l),
(-800,700,l)
);
},
{
closed = 0;
nodes = (
(-361,0,l),
(-800,0,l)
);
}
);
};
layerId = m01;
shapes = (
{
closed = 1;
nodes = (
(164,700,l),
(112,700,l),
(83,700,o),
(60,677,o),
(60,648,cs),
(60,52,ls),
(60,23,o),
(83,0,o),
(112,0,cs),
(164,0,l)
);
},
{
closed = 1;
nodes = (
(435,321,ls),
(461,321,o),
(483,342,o),
(483,369,cs),
(483,395,o),
(461,416,o),
(435,416,cs),
(136,416,l),
(136,321,l)
);
},
{
closed = 1;
nodes = (
(495,605,ls),
(521,605,o),
(543,626,o),
(543,653,cs),
(543,679,o),
(521,700,o),
(495,700,cs),
(136,700,l),
(136,605,l)
);
},
{
closed = 1;
nodes = (
(525,0,ls),
(551,0,o),
(573,21,o),
(573,48,cs),
(573,74,o),
(551,95,o),
(525,95,cs),
(136,95,l),
(136,0,l)
);
}
);
width = 613;
},
{
layerId = "877D6F36-AFBE-4448-AD1B-25E457939AA6";
shapes = (
{
closed = 1;
nodes = (
(120,700,l),
(90,700,l),
(73,700,o),
(60,687,o),
(60,670,cs),
(60,30,ls),
(60,13,o),
(73,0,o),
(90,0,c),
(120,0,l)
);
},
{
closed = 1;
nodes = (
(423,343,ls),
(440,343,o),
(453,356,o),
(453,372,cs),
(453,389,o),
(440,402,o),
(423,402,cs),
(73,402,l),
(73,343,l)
);
},
{
closed = 1;
nodes = (
(453,641,ls),
(470,641,o),
(483,654,o),
(483,670,cs),
(483,687,o),
(470,700,o),
(453,700,cs),
(104,700,l),
(104,641,l)
);
},
{
closed = 1;
nodes = (
(483,0,ls),
(500,0,o),
(513,13,o),
(513,29,cs),
(513,46,o),
(500,59,o),
(483,59,cs),
(104,59,l),
(104,0,l)
);
}
);
width = 553;
},
{
layerId = "D47B13D9-D7EB-4385-B3F1-1D14F737A65A";
shapes = (
{
closed = 1;
nodes = (
(230,700,l),
(145,700,l),
(98,700,o),
(60,661,o),
(60,615,cs),
(60,86,ls),
(60,39,o),
(98,0,o),
(145,0,c),
(230,0,l)
);
},
{
closed = 1;
nodes = (
(429,293,ls),
(469,293,o),
(504,326,o),
(504,367,cs),
(504,409,o),
(469,442,o),
(429,442,cs),
(157,442,l),
(157,293,l)
);
},
{
closed = 1;
nodes = (
(484,551,ls),
(524,551,o),
(559,584,o),
(559,625,cs),
(559,667,o),
(524,700,o),
(484,700,cs),
(157,700,l),
(157,551,l)
);
},
{
closed = 1;
nodes = (
(514,0,ls),
(554,0,o),
(589,33,o),
(589,74,cs),
(589,116,o),
(554,149,o),
(514,149,cs),
(157,149,l),
(157,0,l)
);
}
);
width = 629;
}
);
unicode = 69;
},
{
glyphname = G;
lastChange = "2021-06-08 18:40:53 +0000";
layers = (
{
layerId = m01;
shapes = (
{
closed = 1;
nodes = (
(476,-19,o),
(565,68,o),
(565,124,c),
(565,306,ls),
(565,336,o),
(544,357,o),
(514,358,cs),
(410,361,ls),
(382,362,o),
(357,339,o),
(357,313,cs),
(357,284,o),
(379,266,o),
(408,265,cs),
(461,263,l),
(461,145,l),
(461,116,o),
(415,83,o),
(344,83,cs),
(212,83,o),
(139,185,o),
(139,369,cs),
(139,513,o),
(218,618,o),
(337,618,cs),
(399,618,o),
(432,593,o),
(451,555,cs),
(459,538,o),
(476,526,o),
(497,526,cs),
(525,526,o),
(548,549,o),
(548,577,cs),
(548,586,o),
(546,594,o),
(542,601,cs),
(508,665,o),
(443,720,o),
(337,720,cs),
(104,720,o),
(35,507,o),
(35,354,cs),
(35,114,o),
(146,-19,o),
(345,-19,cs)
);
}
);
width = 600;
},
{
background = {
shapes = (
{
attr = {
strokeWidth = 1;
};
closed = 0;
nodes = (
(524,547,l),
(524,547,o),
(492,701,o),
(325,701,cs),
(131,701,o),
(64,482,o),
(64,354,cs),
(64,248,o),
(107,0,o),
(325,0,cs),
(463,0,o),
(524,99,o),
(524,99,c),
(524,316,l),
(353,321,l)
);
},
{
closed = 1;
nodes = (
(-868,274,o),
(-834,240,o),
(-797,240,c),
(-797,179,l),
(-812,164,o),
(-842,155,o),
(-881,155,cs),
(-984,155,o),
(-1005,276,o),
(-1005,353,cs),
(-1005,443,o),
(-973,546,o),
(-881,546,cs),
(-848,546,o),
(-831,540,o),
(-820,525,cs),
(-805,504,o),
(-780,491,o),
(-753,491,cs),
(-706,491,o),
(-669,528,o),
(-669,575,cs),
(-669,594,o),
(-676,613,o),
(-688,627,cs),
(-735,684,o),
(-804,716,o),
(-881,716,cs),
(-1058,716,o),
(-1175,571,o),
(-1175,353,cs),
(-1175,132,o),
(-1058,-15,o),
(-881,-15,cs),
(-775,-15,o),
(-678,41,o),
(-637,126,c),
(-637,312,ls),
(-637,360,o),
(-673,397,o),
(-721,398,cs),
(-792,400,ls),
(-824,401,o),
(-868,366,o),
(-868,328,cs)
);
},
{
closed = 1;
nodes = (
(-145,269,l),
(-145,145,l),
(-170,116,o),
(-208,93,o),
(-269,93,cs),
(-417,93,o),
(-447,264,o),
(-447,354,cs),
(-447,459,o),
(-402,608,o),
(-269,608,cs),
(-207,608,o),
(-174,583,o),
(-155,545,cs),
(-147,528,o),
(-130,516,o),
(-109,516,cs),
(-81,516,o),
(-58,539,o),
(-58,567,cs),
(-58,576,o),
(-60,584,o),
(-64,591,cs),
(-98,655,o),
(-163,712,o),
(-269,712,cs),
(-482,712,o),
(-551,479,o),
(-551,354,cs),
(-551,252,o),
(-507,-11,o),
(-269,-11,cs),
(-152,-11,o),
(-73,57,o),
(-41,113,c),
(-41,363,l),
(-196,367,ls),
(-224,368,o),
(-249,345,o),
(-249,319,cs),
(-249,290,o),
(-227,272,o),
(-198,271,cs)
);
},
{
closed = 1;
nodes = (
(473,291,l),
(473,121,l),
(443,81,o),
(392,46,o),
(314,46,cs),
(182,46,o),
(96,169,o),
(96,354,cs),
(96,535,o),
(183,655,o),
(314,655,cs),
(400,655,o),
(446,609,o),
(467,553,cs),
(471,542,o),
(482,534,o),
(495,534,cs),
(511,534,o),
(525,547,o),
(525,564,cs),
(525,567,o),
(524,571,o),
(523,575,c),
(494,646,o),
(429,715,o),
(314,715,cs),
(141,715,o),
(35,559,o),
(35,354,cs),
(35,133,o),
(146,-14,o),
(314,-14,cs),
(424,-14,o),
(500,47,o),
(533,102,c),
(533,315,ls),
(533,332,o),
(520,346,o),
(503,346,cs),
(368,349,ls),
(351,349,o),
(337,336,o),
(337,321,cs),
(337,305,o),
(350,293,o),
(366,293,cs)
);
}
);
};
layerId = "877D6F36-AFBE-4448-AD1B-25E457939AA6";
shapes = (
{
closed = 1;
nodes = (
(449,-14,o),
(543,63,o),
(543,118,cs),
(543,315,ls),
(543,332,o),
(530,346,o),
(513,346,cs),
(368,349,ls),
(361,349,o),
(347,336,o),
(347,321,cs),
(347,305,o),
(360,293,o),
(366,293,cs),
(483,291,l),
(483,137,ls),
(483,97,o),
(417,46,o),
(319,46,cs),
(182,46,o),
(96,169,o),
(96,354,cs),
(96,535,o),
(183,655,o),
(314,655,cs),
(410,655,o),
(456,609,o),
(477,553,cs),
(481,542,o),
(492,534,o),
(505,534,cs),
(521,534,o),
(535,547,o),
(535,564,cs),
(535,567,o),
(535,571,o),
(533,575,cs),
(504,646,o),
(439,715,o),
(314,715,cs),
(141,715,o),
(35,559,o),
(35,354,cs),
(35,133,o),
(141,-14,o),
(331,-14,cs)
);
}
);
width = 578;
},
{
background = {
shapes = (
{
closed = 1;
nodes = (
(486,-19,o),
(575,68,o),
(575,124,c),
(575,306,ls),
(575,336,o),
(554,357,o),
(524,358,cs),
(420,361,ls),
(392,362,o),
(367,339,o),
(367,313,cs),
(367,284,o),
(389,266,o),
(418,265,cs),
(471,263,l),
(471,145,l),
(471,116,o),
(425,83,o),
(354,83,cs),
(222,83,o),
(149,185,o),
(149,369,cs),
(149,513,o),
(228,618,o),
(347,618,cs),
(409,618,o),
(442,593,o),
(461,555,cs),
(469,538,o),
(486,526,o),
(507,526,cs),
(535,526,o),
(558,549,o),
(558,577,cs),
(558,586,o),
(556,594,o),
(552,601,cs),
(518,665,o),
(453,720,o),
(347,720,cs),
(114,720,o),
(45,507,o),
(45,354,cs),
(45,114,o),
(156,-19,o),
(355,-19,cs)
);
},
{
closed = 1;
nodes = (
(497,-20,o),
(613,69,o),
(613,134,c),
(613,296,ls),
(613,344,o),
(577,381,o),
(529,382,cs),
(453,384,ls),
(421,385,o),
(365,373,o),
(365,305,cs),
(365,258,o),
(399,233,o),
(436,233,cs),
(453,233,l),
(453,179,l),
(453,160,o),
(414,140,o),
(362,140,cs),
(267,140,o),
(215,221,o),
(215,348,cs),
(215,472,o),
(265,556,o),
(354,556,cs),
(402,556,o),
(419,540,o),
(430,525,cs),
(445,504,o),
(470,491,o),
(497,491,cs),
(544,491,o),
(581,528,o),
(581,574,cs),
(581,594,o),
(574,613,o),
(562,627,cs),
(515,684,o),
(446,716,o),
(354,716,cs),
(168,716,o),
(45,566,o),
(45,348,cs),
(45,127,o),
(168,-20,o),
(354,-20,cs)
);
},
{
closed = 1;
nodes = (
(1150,247,l),
(1150,160,l),
(1126,138,o),
(1093,123,o),
(1044,123,cs),
(890,123,o),
(860,266,o),
(860,348,cs),
(860,447,o),
(905,572,o),
(1044,572,cs),
(1089,572,o),
(1117,559,o),
(1135,534,cs),
(1149,514,o),
(1176,500,o),
(1206,500,cs),
(1252,500,o),
(1289,532,o),
(1289,571,cs),
(1289,586,o),
(1284,600,o),
(1275,611,cs),
(1230,669,o),
(1152,716,o),
(1036,716,cs),
(773,716,o),
(690,512,o),
(690,350,cs),
(690,222,o),
(742,-20,o),
(1036,-20,cs),
(1185,-20,o),
(1283,56,o),
(1320,116,c),
(1320,319,ls),
(1320,364,o),
(1296,389,o),
(1251,390,cs),
(1143,392,ls),
(1099,393,o),
(1055,363,o),
(1055,320,cs),
(1055,281,o),
(1092,252,o),
(1138,248,cs)
);
}
);
};
layerId = "D47B13D9-D7EB-4385-B3F1-1D14F737A65A";
shapes = (
{
closed = 1;
nodes = (
(497,-20,o),
(600,69,o),
(613,134,c),
(613,296,ls),
(613,344,o),
(577,381,o),
(529,382,cs),
(453,384,ls),
(398,385,o),
(365,359,o),
(365,312,cs),
(365,263,o),
(392,233,o),
(436,233,cs),
(453,233,l),
(453,179,l),
(440,153,o),
(411,140,o),
(362,140,cs),
(257,140,o),
(205,221,o),
(205,348,cs),
(205,472,o),
(255,556,o),
(354,556,cs),
(402,556,o),
(419,540,o),
(430,525,cs),
(445,504,o),
(470,491,o),
(497,491,cs),
(544,491,o),
(581,528,o),
(581,574,cs),
(581,594,o),
(574,613,o),
(562,627,cs),
(515,684,o),
(446,716,o),
(354,716,cs),
(158,716,o),
(35,566,o),
(35,348,cs),
(35,127,o),
(158,-20,o),
(354,-20,cs)
);
}
);
width = 648;
}
);
unicode = 71;
},
{
glyphname = H;
lastChange = "2021-06-08 19:03:44 +0000";
layers = (
{
background = {
shapes = (
{
closed = 1;
nodes = (
(4462,704,o),
(4511,696,o),
(4541,690,c),
(4531,652,o),
(4460,653,o),
(4442,685,c)
);
},
{
closed = 1;
nodes = (
(4365,414,o),
(4440,412,o),
(4441,363,c),
(4422,339,o),
(4388,341,o),
(4372,367,c)
);
},
{
closed = 1;
nodes = (
(4269,517,o),
(4269,545,o),
(4283,565,c),
(4311,553,o),
(4311,509,o),
(4283,496,c)
);
},
{
closed = 1;
nodes = (
(4249,179,o),
(4249,207,o),
(4264,228,c),
(4290,214,o),
(4290,171,o),
(4264,159,c)
);
},
{
closed = 1;
nodes = (
(4733,189,o),
(4733,167,o),
(4720,148,c),
(4693,159,o),
(4693,197,o),
(4720,208,c)
);
},
{
closed = 1;
nodes = (
(4595,342,o),
(4558,319,o),
(4549,356,c),
(4558,380,o),
(4584,386,o),
(4600,367,c)
);
},
{
closed = 1;
nodes = (
(4464,3,o),
(4426,-12,o),
(4422,9,c),
(4435,38,o),
(4483,34,o),
(4481,-1,c)
);
},
{
closed = 1;
nodes = (
(4558,680,o),
(4595,696,o),
(4600,675,c),
(4583,651,o),
(4548,646,o),
(4541,685,c)
);
},
{
closed = 1;
nodes = (
(4392,684,o),
(4398,685,o),
(4404,685,c),
(4475,696,o),
(4424,634,o),
(4392,675,c)
);
},
{
closed = 1;
nodes = (
(4515,-15,o),
(4498,-15,o),
(4481,-1,c),
(4494,19,o),
(4519,18,o),
(4531,-1,c)
);
},
{
closed = 1;
nodes = (
(4581,0,o),
(4575,-1,o),
(4568,-1,c),
(4498,-12,o),
(4549,50,o),
(4581,9,c)
);
},
{
closed = 1;
nodes = (
(4717,136,o),
(4727,109,o),
(4710,108,c),
(4696,121,o),
(4692,148,o),
(4720,148,c)
);
},
{
closed = 1;
nodes = (
(4718,248,o),
(4720,242,o),
(4720,236,c),
(4728,184,o),
(4678,222,o),
(4710,247,c)
);
},
{
closed = 1;
nodes = (
(4266,240,o),
(4255,267,o),
(4273,267,c),
(4287,255,o),
(4291,228,o),
(4264,228,c)
);
},
{
closed = 1;
nodes = (
(4410,12,o),
(4383,0,o),
(4382,19,c),
(4395,32,o),
(4422,37,o),
(4422,9,c)
);
},
{
closed = 1;
nodes = (
(4696,504,o),
(4708,478,o),
(4690,477,c),
(4671,486,o),
(4676,521,o),
(4699,516,c)
);
},
{
closed = 1;
nodes = (
(4713,543,o),
(4713,529,o),
(4699,516,c),
(4685,526,o),
(4686,546,o),
(4699,556,c)
);
},
{
closed = 1;
nodes = (
(4287,575,o),
(4274,590,o),
(4292,595,c),
(4303,586,o),
(4304,563,o),
(4283,565,c)
);
},
{
closed = 1;
nodes = (
(4709,581,o),
(4695,565,o),
(4699,556,c),
(4678,554,o),
(4679,576,o),
(4690,586,c)
);
},
{
closed = 1;
nodes = (
(4274,471,o),
(4287,486,o),
(4283,496,c),
(4304,498,o),
(4303,477,o),
(4292,466,c)
);
},
{
closed = 1;
nodes = (
(4606,-1,o),
(4590,13,o),
(4581,9,c),
(4579,30,o),
(4600,29,o),
(4611,19,c)
);
},
{
closed = 1;
nodes = (
(4254,133,o),
(4266,148,o),
(4264,159,c),
(4285,160,o),
(4283,138,o),
(4273,129,c)
);
},
{
closed = 1;
nodes = (
(4629,14,o),
(4617,21,o),
(4611,19,c),
(4605,34,o),
(4622,36,o),
(4630,29,c)
);
},
{
closed = 1;
nodes = (
(4374,21,o),
(4363,14,o),
(4362,29,c),
(4370,36,o),
(4387,34,o),
(4382,19,c)
);
},
{
closed = 1;
nodes = (
(4355,30,o),
(4344,25,o),
(4343,39,c),
(4350,47,o),
(4368,45,o),
(4362,29,c)
);
},
{
closed = 1;
nodes = (
(4669,44,o),
(4658,51,o),
(4650,49,c),
(4644,61,o),
(4663,68,o),
(4669,59,c)
);
},
{
closed = 1;
nodes = (
(4698,91,o),
(4704,79,o),
(4690,79,c),
(4681,86,o),
(4688,105,o),
(4699,99,c)
);
},
{
closed = 1;
nodes = (
(4288,79,o),
(4294,91,o),
(4292,99,c),
(4305,105,o),
(4312,86,o),
(4303,79,c)
);
},
{
closed = 1;
nodes = (
(4268,109,o),
(4274,121,o),
(4273,129,c),
(4289,133,o),
(4290,116,o),
(4283,108,c)
);
},
{
closed = 1;
nodes = (
(4704,276,o),
(4698,266,o),
(4699,258,c),
(4688,252,o),
(4681,270,o),
(4690,277,c)
);
},
{
closed = 1;
nodes = (
(4274,275,o),
(4268,287,o),
(4283,288,c),
(4290,280,o),
(4289,263,o),
(4273,267,c)
);
},
{
closed = 1;
nodes = (
(4658,306,o),
(4669,312,o),
(4669,297,c),
(4663,289,o),
(4644,295,o),
(4650,307,c)
);
},
{
closed = 1;
nodes = (
(4304,315,o),
(4298,326,o),
(4313,327,c),
(4321,320,o),
(4315,301,o),
(4303,307,c)
);
},
{
closed = 1;
nodes = (
(4617,336,o),
(4629,342,o),
(4630,327,c),
(4623,319,o),
(4605,325,o),
(4611,337,c)
);
},
{
closed = 1;
nodes = (
(4598,346,o),
(4610,352,o),
(4611,337,c),
(4599,331,o),
(4590,330,o),
(4590,347,c)
);
},
{
closed = 1;
nodes = (
(4333,362,o),
(4344,355,o),
(4352,357,c),
(4358,345,o),
(4340,338,o),
(4333,347,c)
);
},
{
closed = 1;
nodes = (
(4353,372,o),
(4365,366,o),
(4372,367,c),
(4372,350,o),
(4364,350,o),
(4352,357,c)
);
},
{
closed = 1;
nodes = (
(4639,382,o),
(4628,388,o),
(4620,387,c),
(4614,399,o),
(4633,405,o),
(4640,397,c)
);
},
{
closed = 1;
nodes = (
(4365,388,o),
(4353,382,o),
(4352,397,c),
(4360,404,o),
(4377,402,o),
(4372,387,c)
);
},
{
closed = 1;
nodes = (
(4335,408,o),
(4323,401,o),
(4322,417,c),
(4330,426,o),
(4348,419,o),
(4343,406,c)
);
},
{
closed = 1;
nodes = (
(4659,419,o),
(4665,407,o),
(4650,406,c),
(4640,414,o),
(4647,432,o),
(4660,427,c)
);
},
{
closed = 1;
nodes = (
(4298,428,o),
(4304,439,o),
(4303,447,c),
(4315,453,o),
(4321,434,o),
(4313,427,c)
);
},
{
closed = 1;
nodes = (
(4678,449,o),
(4685,437,o),
(4669,436,c),
(4661,444,o),
(4667,462,o),
(4680,456,c)
);
},
{
closed = 1;
nodes = (
(4288,447,o),
(4294,458,o),
(4292,466,c),
(4310,466,o),
(4309,458,o),
(4303,447,c)
);
},
{
closed = 1;
nodes = (
(4688,469,o),
(4694,457,o),
(4680,456,c),
(4673,468,o),
(4673,477,o),
(4690,477,c)
);
},
{
closed = 1;
nodes = (
(4694,605,o),
(4688,593,o),
(4690,586,c),
(4674,581,o),
(4672,598,o),
(4680,606,c)
);
},
{
closed = 1;
nodes = (
(4294,603,o),
(4288,615,o),
(4303,615,c),
(4310,608,o),
(4308,590,o),
(4292,595,c)
);
},
{
closed = 1;
nodes = (
(4685,624,o),
(4678,613,o),
(4680,606,c),
(4665,600,o),
(4663,617,o),
(4669,625,c)
);
},
{
closed = 1;
nodes = (
(4323,650,o),
(4335,643,o),
(4343,645,c),
(4348,633,o),
(4330,626,o),
(4322,635,c)
);
},
{
closed = 1;
nodes = (
(4638,654,o),
(4649,660,o),
(4650,645,c),
(4642,636,o),
(4624,643,o),
(4630,655,c)
);
},
{
closed = 1;
nodes = (
(4353,670,o),
(4365,664,o),
(4372,665,c),
(4378,653,o),
(4360,646,o),
(4352,655,c)
);
},
{
closed = 1;
nodes = (
(4608,673,o),
(4619,680,o),
(4620,665,c),
(4612,658,o),
(4595,660,o),
(4600,675,c)
);
},
{
closed = 1;
nodes = (
(4373,680,o),
(4385,673,o),
(4392,675,c),
(4392,658,o),
(4384,659,o),
(4372,665,c)
);
},
{
closed = 1;
nodes = (
(4627,666,o),
(4630,662,o),
(4630,655,c),
(4621,653,o),
(4617,656,o),
(4620,665,c)
);
},
{
closed = 1;
nodes = (
(4343,652,o),
(4345,655,o),
(4352,655,c),
(4355,646,o),
(4351,642,o),
(4343,645,c)
);
},
{
closed = 1;
nodes = (
(4659,646,o),
(4665,635,o),
(4655,633,c),
(4649,636,o),
(4645,639,o),
(4650,645,c)
);
},
{
closed = 1;
nodes = (
(4313,632,o),
(4316,636,o),
(4322,635,c),
(4329,627,o),
(4318,621,o),
(4313,625,c)
);
},
{
closed = 1;
nodes = (
(4666,636,o),
(4670,632,o),
(4669,625,c),
(4661,623,o),
(4658,626,o),
(4660,635,c)
);
},
{
closed = 1;
nodes = (
(4302,622,o),
(4306,625,o),
(4313,625,c),
(4315,616,o),
(4312,613,o),
(4303,615,c)
);
},
{
closed = 1;
nodes = (
(4670,429,o),
(4666,427,o),
(4660,427,c),
(4658,435,o),
(4661,439,o),
(4669,436,c)
);
},
{
closed = 1;
nodes = (
(4316,416,o),
(4313,420,o),
(4313,427,c),
(4321,428,o),
(4325,426,o),
(4322,417,c)
);
},
{
closed = 1;
nodes = (
(4345,397,o),
(4343,400,o),
(4343,406,c),
(4351,409,o),
(4355,405,o),
(4352,397,c)
);
},
{
closed = 1;
nodes = (
(4650,400,o),
(4647,397,o),
(4640,397,c),
(4638,405,o),
(4640,409,o),
(4650,406,c)
);
},
{
closed = 1;
nodes = (
(4622,378,o),
(4610,372,o),
(4609,382,c),
(4611,387,o),
(4613,391,o),
(4620,387,c)
);
},
{
closed = 1;
nodes = (
(4611,370,o),
(4607,367,o),
(4600,367,c),
(4598,376,o),
(4601,379,o),
(4611,376,c)
);
},
{
closed = 1;
nodes = (
(4322,344,o),
(4325,347,o),
(4333,347,c),
(4339,339,o),
(4329,333,o),
(4322,337,c)
);
},
{
closed = 1;
nodes = (
(4313,334,o),
(4316,337,o),
(4322,337,c),
(4325,328,o),
(4321,324,o),
(4313,327,c)
);
},
{
closed = 1;
nodes = (
(4639,328,o),
(4645,317,o),
(4635,315,c),
(4630,318,o),
(4625,320,o),
(4630,327,c)
);
},
{
closed = 1;
nodes = (
(4647,318,o),
(4650,314,o),
(4650,307,c),
(4641,305,o),
(4638,308,o),
(4640,318,c)
);
},
{
closed = 1;
nodes = (
(4292,304,o),
(4296,308,o),
(4303,307,c),
(4309,299,o),
(4299,293,o),
(4292,297,c)
);
},
{
closed = 1;
nodes = (
(4283,294,o),
(4286,297,o),
(4292,297,c),
(4295,289,o),
(4291,285,o),
(4283,288,c)
);
},
{
closed = 1;
nodes = (
(4678,299,o),
(4685,287,o),
(4674,286,c),
(4669,288,o),
(4665,291,o),
(4669,297,c)
);
},
{
closed = 1;
nodes = (
(4687,288,o),
(4690,284,o),
(4690,277,c),
(4681,275,o),
(4677,278,o),
(4680,288,c)
);
},
{
closed = 1;
nodes = (
(4706,258,o),
(4710,255,o),
(4710,247,c),
(4700,245,o),
(4697,249,o),
(4699,258,c)
);
},
{
closed = 1;
nodes = (
(4286,99,o),
(4283,102,o),
(4283,108,c),
(4291,111,o),
(4295,107,o),
(4292,99,c)
);
},
{
closed = 1;
nodes = (
(4710,102,o),
(4706,99,o),
(4699,99,c),
(4697,107,o),
(4700,111,o),
(4710,108,c)
);
},
{
closed = 1;
nodes = (
(4306,69,o),
(4302,72,o),
(4303,79,c),
(4311,85,o),
(4317,75,o),
(4313,69,c)
);
},
{
closed = 1;
nodes = (
(4692,70,o),
(4679,64,o),
(4678,74,c),
(4680,79,o),
(4683,83,o),
(4690,79,c)
);
},
{
closed = 1;
nodes = (
(4316,58,o),
(4313,62,o),
(4313,69,c),
(4320,75,o),
(4327,65,o),
(4322,59,c)
);
},
{
closed = 1;
nodes = (
(4680,62,o),
(4677,58,o),
(4669,59,c),
(4667,68,o),
(4670,71,o),
(4680,69,c)
);
},
{
closed = 1;
nodes = (
(4325,49,o),
(4322,52,o),
(4322,59,c),
(4330,65,o),
(4337,55,o),
(4333,49,c)
);
},
{
closed = 1;
nodes = (
(4336,39,o),
(4332,42,o),
(4333,49,c),
(4342,52,o),
(4344,48,o),
(4343,39,c)
);
},
{
closed = 1;
nodes = (
(4651,41,o),
(4639,34,o),
(4638,44,c),
(4640,50,o),
(4643,53,o),
(4650,49,c)
);
},
{
closed = 1;
nodes = (
(4640,32,o),
(4637,28,o),
(4630,29,c),
(4628,38,o),
(4631,41,o),
(4640,39,c)
);
},
{
closed = 1;
nodes = (
(4585,358,o),
(4459,329,o),
(4442,372,c),
(4418,375,o),
(4397,388,o),
(4372,387,c),
(4371,401,o),
(4360,396,o),
(4352,397,c),
(4352,403,o),
(4349,407,o),
(4343,406,c),
(4342,422,o),
(4330,415,o),
(4322,417,c),
(4323,424,o),
(4319,427,o),
(4313,427,c),
(4311,434,o),
(4317,446,o),
(4303,447,c),
(4301,454,o),
(4308,465,o),
(4292,466,c),
(4289,476,o),
(4302,491,o),
(4283,496,c),
(4283,565,l),
(4302,570,o),
(4289,586,o),
(4292,595,c),
(4308,596,o),
(4301,608,o),
(4303,615,c),
(4310,615,o),
(4313,618,o),
(4313,625,c),
(4319,625,o),
(4323,628,o),
(4322,635,c),
(4330,637,o),
(4342,630,o),
(4343,645,c),
(4349,645,o),
(4352,648,o),
(4352,655,c),
(4360,657,o),
(4371,650,o),
(4372,665,c),
(4380,667,o),
(4391,660,o),
(4392,675,c),
(4404,675,o),
(4417,675,o),
(4429,675,c),
(4458,693,o),
(4503,683,o),
(4541,685,c),
(4540,676,o),
(4546,675,o),
(4553,675,c),
(4569,675,o),
(4585,675,o),
(4600,675,c),
(4601,660,o),
(4612,667,o),
(4620,665,c),
(4620,658,o),
(4623,655,o),
(4630,655,c),
(4631,641,o),
(4642,646,o),
(4650,645,c),
(4650,640,o),
(4664,625,o),
(4669,625,c),
(4671,617,o),
(4665,606,o),
(4680,606,c),
(4681,598,o),
(4675,587,o),
(4690,586,c),
(4693,576,o),
(4680,561,o),
(4699,556,c),
(4701,529,o),
(4700,524,o),
(4690,505,c),
(4695,476,o),
(4678,478,o),
(4680,456,c),
(4665,455,o),
(4671,444,o),
(4669,436,c),
(4663,437,o),
(4660,433,o),
(4660,427,c),
(4645,426,o),
(4651,414,o),
(4650,406,c),
(4643,407,o),
(4639,403,o),
(4640,397,c),
(4633,396,o),
(4621,401,o),
(4620,387,c),
(4613,387,o),
(4610,384,o),
(4611,376,c)
);
},
{
closed = 1;
nodes = (
(4633,39,o),
(4630,36,o),
(4630,29,c),
(4622,27,o),
(4612,34,o),
(4611,19,c),
(4601,15,o),
(4585,28,o),
(4581,9,c),
(4541,14,o),
(4521,-6,o),
(4481,-1,c),
(4481,21,o),
(4435,-2,o),
(4410,19,c),
(4382,14,o),
(4384,31,o),
(4362,29,c),
(4362,44,o),
(4350,37,o),
(4343,39,c),
(4343,46,o),
(4340,49,o),
(4333,49,c),
(4333,55,o),
(4329,59,o),
(4322,59,c),
(4322,65,o),
(4309,79,o),
(4303,79,c),
(4301,86,o),
(4308,98,o),
(4292,99,c),
(4293,106,o),
(4290,108,o),
(4283,108,c),
(4282,116,o),
(4288,128,o),
(4273,129,c),
(4269,138,o),
(4282,154,o),
(4264,159,c),
(4264,228,l),
(4281,229,o),
(4270,256,o),
(4273,267,c),
(4288,268,o),
(4282,280,o),
(4283,288,c),
(4289,287,o),
(4304,301,o),
(4303,307,c),
(4317,308,o),
(4311,320,o),
(4313,327,c),
(4319,327,o),
(4323,330,o),
(4322,337,c),
(4329,337,o),
(4333,340,o),
(4333,347,c),
(4340,348,o),
(4351,342,o),
(4352,357,c),
(4360,358,o),
(4371,352,o),
(4372,367,c),
(4442,367,l),
(4478,353,o),
(4515,371,o),
(4551,357,c),
(4552,339,o),
(4579,349,o),
(4590,347,c),
(4591,332,o),
(4603,339,o),
(4611,337,c),
(4612,322,o),
(4622,328,o),
(4630,327,c),
(4630,321,o),
(4643,307,o),
(4650,307,c),
(4651,293,o),
(4663,299,o),
(4669,297,c),
(4669,292,o),
(4683,277,o),
(4690,277,c),
(4692,270,o),
(4685,259,o),
(4699,258,c),
(4707,244,o),
(4713,239,o),
(4710,219,c),
(4722,200,o),
(4720,176,o),
(4720,148,c),
(4701,147,o),
(4712,121,o),
(4710,108,c),
(4702,108,o),
(4699,106,o),
(4699,99,c),
(4685,98,o),
(4692,86,o),
(4690,79,c),
(4683,79,o),
(4679,76,o),
(4680,69,c),
(4673,69,o),
(4669,66,o),
(4669,59,c),
(4663,57,o),
(4651,64,o),
(4650,49,c),
(4643,49,o),
(4639,46,o),
(4640,39,c)
);
},
{
closed = 1;
nodes = (
(4442,351,o),
(4391,371,o),
(4538,367,c),
(4545,367,o),
(4552,367,o),
(4551,357,c)
);
},
{
closed = 0;
nodes = (
(-795,700,l),
(-795,0,l)
);
},
{
closed = 0;
nodes = (
(-330,700,l),
(-330,0,l)
);
},
{
closed = 0;
nodes = (
(-334,368,l),
(-796,368,l)
);
},
{
closed = 1;
nodes = (
(157,653,ls),
(157,682,o),
(134,705,o),
(105,705,cs),
(76,705,o),
(53,682,o),
(53,653,cs),
(53,47,ls),
(53,18,o),
(76,-5,o),
(105,-5,cs),
(134,-5,o),
(157,18,o),
(157,47,cs)
);
},
{
closed = 1;
nodes = (
(622,653,ls),
(622,682,o),
(599,705,o),
(570,705,cs),
(541,705,o),
(518,682,o),
(518,653,cs),
(518,47,ls),
(518,18,o),
(541,-5,o),
(570,-5,cs),
(599,-5,o),
(622,18,o),
(622,47,cs)
);
},
{
closed = 1;
nodes = (
(519,316,ls),
(548,316,o),
(571,339,o),
(571,368,cs),
(571,397,o),
(548,420,o),
(519,420,cs),
(151,420,ls),
(122,420,o),
(99,397,o),
(99,368,cs),
(99,339,o),
(122,316,o),
(151,316,cs)
);
},
{
closed = 1;
nodes = (
(1090,624,ls),
(1090,670,o),
(1052,709,o),
(1005,709,cs),
(958,709,o),
(920,670,o),
(920,624,cs),
(920,77,ls),
(920,30,o),
(958,-9,o),
(1005,-9,cs),
(1052,-9,o),
(1090,30,o),
(1090,77,cs)
);
},
{
closed = 1;
nodes = (
(1555,624,ls),
(1555,670,o),
(1517,709,o),
(1470,709,cs),
(1423,709,o),
(1385,670,o),
(1385,624,cs),
(1385,77,ls),
(1385,30,o),
(1423,-9,o),
(1470,-9,cs),
(1517,-9,o),
(1555,30,o),
(1555,77,cs)
);
},
{
closed = 1;
nodes = (
(1390,283,ls),
(1436,283,o),
(1475,321,o),
(1475,368,cs),
(1475,415,o),
(1436,453,o),
(1390,453,cs),
(1081,453,ls),
(1034,453,o),
(996,415,o),
(996,368,cs),
(996,321,o),
(1034,283,o),
(1081,283,cs)
);
},
{
closed = 0;
nodes = (
(566,368,l),
(104,368,l)
);
},
{
closed = 0;
nodes = (
(1466,368,l),
(1004,368,l)
);
}
);
};
layerId = m01;
shapes = (
{
closed = 1;
nodes = (
(141,0,o),
(164,23,o),
(164,52,cs),
(164,648,ls),
(164,677,o),
(141,700,o),
(112,700,cs),
(83,700,o),
(60,677,o),
(60,648,cs),
(60,52,ls),
(60,23,o),
(83,0,o),
(112,0,cs)
);
},
{
closed = 1;
nodes = (
(571,0,o),
(594,23,o),
(594,52,cs),
(594,648,ls),
(594,677,o),
(571,700,o),
(542,700,cs),
(513,700,o),
(490,677,o),
(490,648,cs),
(490,52,ls),
(490,23,o),
(513,0,o),
(542,0,cs)
);
},
{
closed = 1;
nodes = (
(512,322,l),
(512,425,l),
(117,425,l),
(117,322,l)
);
}
);
width = 654;
},
{
layerId = "877D6F36-AFBE-4448-AD1B-25E457939AA6";
shapes = (
{
closed = 1;
nodes = (
(107,0,o),
(120,13,o),
(120,30,cs),
(120,670,ls),
(120,687,o),
(107,700,o),
(90,700,cs),
(73,700,o),
(60,687,o),
(60,670,cs),
(60,30,ls),
(60,13,o),
(73,0,o),
(90,0,cs)
);
},
{
closed = 1;
nodes = (
(530,0,o),
(543,13,o),
(543,30,cs),
(543,670,ls),
(543,687,o),
(530,700,o),
(513,700,cs),
(496,700,o),
(483,687,o),
(483,670,cs),
(483,30,ls),
(483,13,o),
(496,0,o),
(513,0,cs)
);
},
{
closed = 1;
nodes = (
(514,341,l),
(514,399,l),
(86,398,l),
(86,340,l)
);
}
);
width = 603;
},
{
background = {
shapes = (
{
closed = 1;
nodes = (
(224,615,ls),
(224,661,o),
(186,700,o),
(139,700,cs),
(92,700,o),
(54,661,o),
(54,615,cs),
(54,86,ls),
(54,39,o),
(92,0,o),
(139,0,cs),
(186,0,o),
(224,39,o),
(224,86,cs)
);
},
{
closed = 1;
nodes = (
(689,615,ls),
(689,661,o),
(651,700,o),
(604,700,cs),
(557,700,o),
(519,661,o),
(519,615,cs),
(519,86,ls),
(519,39,o),
(557,0,o),
(604,0,cs),
(651,0,o),
(689,39,o),
(689,86,cs)
);
},
{
closed = 1;
nodes = (
(541,292,l),
(540,442,l),
(187,441,l),
(188,292,l)
);
}
);
};
layerId = "D47B13D9-D7EB-4385-B3F1-1D14F737A65A";
shapes = (
{
closed = 1;
nodes = (
(192,0,o),
(230,39,o),
(230,86,cs),
(230,615,ls),
(230,661,o),
(192,700,o),
(145,700,cs),
(98,700,o),
(60,661,o),
(60,615,cs),
(60,86,ls),
(60,39,o),
(98,0,o),
(145,0,cs)
);
},
{
closed = 1;
nodes = (
(632,0,o),
(670,39,o),
(670,86,cs),
(670,615,ls),
(670,661,o),
(632,700,o),
(585,700,cs),
(538,700,o),
(500,661,o),
(500,615,cs),
(500,86,ls),
(500,39,o),
(538,0,o),
(585,0,cs)
);
},
{
closed = 1;
nodes = (
(539,282,l),
(540,442,l),
(189,441,l),
(188,282,l)
);
}
);
width = 730;
}
);
unicode = 72;
},
{
glyphname = I;
lastChange = "2021-05-31 18:49:08 +0000";
layers = (
{
layerId = m01;
shapes = (
{
closed = 1;
nodes = (
(141,0,o),
(164,23,o),
(164,52,cs),
(164,648,ls),
(164,677,o),
(141,700,o),
(112,700,cs),
(83,700,o),
(60,677,o),
(60,648,cs),
(60,52,ls),
(60,23,o),
(83,0,o),
(112,0,cs)
);
}
);
width = 224;
},
{
layerId = "877D6F36-AFBE-4448-AD1B-25E457939AA6";
shapes = (
{
closed = 1;
nodes = (
(107,0,o),
(120,13,o),
(120,30,cs),
(120,670,ls),
(120,687,o),
(107,700,o),
(90,700,cs),
(73,700,o),
(60,687,o),
(60,670,cs),
(60,30,ls),
(60,13,o),
(73,0,o),
(90,0,cs)
);
}
);
width = 180;
},
{
layerId = "D47B13D9-D7EB-4385-B3F1-1D14F737A65A";
shapes = (
{
closed = 1;
nodes = (
(192,0,o),
(230,39,o),
(230,86,cs),
(230,615,ls),
(230,661,o),
(192,700,o),
(145,700,cs),
(98,700,o),
(60,661,o),
(60,615,cs),
(60,86,ls),
(60,39,o),
(98,0,o),
(145,0,cs)
);
}
);
width = 290;
}
);
unicode = 73;
},
{
glyphname = K;
lastChange = "2021-05-31 21:49:54 +0000";
layers = (
{
background = {
shapes = (
{
closed = 0;
nodes = (
(-788,700,l),
(-788,0,l)
);
},
{
closed = 0;
nodes = (
(-356,684,l),
(-788,245,l)
);
},
{
closed = 0;
nodes = (
(-337,2,l),
(-619,408,l)
);
},
{
closed = 1;
nodes = (
(-771,0,o),
(-758,13,o),
(-758,30,cs),
(-758,670,ls),
(-758,687,o),
(-771,700,o),
(-788,700,cs),
(-805,700,o),
(-818,687,o),
(-818,670,cs),
(-818,30,ls),
(-818,13,o),
(-805,0,o),
(-788,0,cs)
);
},
{
closed = 1;
nodes = (
(-354,644,ls),
(-348,650,o),
(-345,657,o),
(-345,665,cs),
(-345,681,o),
(-358,695,o),
(-375,695,cs),
(-383,695,o),
(-391,691,o),
(-396,686,cs),
(-790,285,l),
(-790,201,l)
);
},
{
closed = 1;
nodes = (
(-377,13,ls),
(-371,5,o),
(-362,0,o),
(-352,0,cs),
(-336,0,o),
(-322,14,o),
(-322,30,cs),
(-322,37,o),
(-324,43,o),
(-328,48,cs),
(-595,426,l),
(-640,385,l)
);
}
);
};
layerId = m01;
shapes = (
{
closed = 1;
nodes = (
(141,0,o),
(164,23,o),
(164,52,cs),
(164,648,ls),
(164,677,o),
(141,700,o),
(112,700,cs),
(83,700,o),
(60,677,o),
(60,648,cs),
(60,52,ls),
(60,23,o),
(83,0,o),
(112,0,cs)
);
},
{
closed = 1;
nodes = (
(548,609,ls),
(557,618,o),
(563,631,o),
(563,646,cs),
(563,674,o),
(540,698,o),
(511,698,cs),
(497,698,o),
(484,692,o),
(474,682,cs),
(108,315,l),
(138,198,l)
);
},
{
closed = 1;
nodes = (
(487,22,ls),
(496,9,o),
(512,0,o),
(529,0,cs),
(558,0,o),
(580,24,o),
(580,52,cs),
(580,64,o),
(577,74,o),
(571,83,cs),
(333,423,l),
(265,339,l)
);
}
);
width = 610;
},
{
layerId = "877D6F36-AFBE-4448-AD1B-25E457939AA6";
shapes = (
{
closed = 1;
nodes = (
(107,0,o),
(120,13,o),
(120,30,cs),
(120,670,ls),
(120,687,o),
(107,700,o),
(90,700,cs),
(73,700,o),
(60,687,o),
(60,670,cs),
(60,30,ls),
(60,13,o),
(73,0,o),
(90,0,cs)
);
},
{
closed = 1;
nodes = (
(524,644,ls),
(530,650,o),
(533,657,o),
(533,665,cs),
(533,681,o),
(520,695,o),
(503,695,cs),
(495,695,o),
(487,691,o),
(482,686,cs),
(88,285,l),
(88,201,l)
);
},
{
closed = 1;
nodes = (
(501,13,ls),
(507,5,o),
(516,0,o),
(526,0,cs),
(542,0,o),
(556,14,o),
(556,30,cs),
(556,37,o),
(554,43,o),
(550,48,cs),
(283,426,l),
(238,385,l)
);
}
);
width = 586;
},
{
layerId = "D47B13D9-D7EB-4385-B3F1-1D14F737A65A";
shapes = (
{
closed = 1;
nodes = (
(192,0,o),
(230,39,o),
(230,86,cs),
(230,615,ls),
(230,661,o),
(192,700,o),
(145,700,cs),
(98,700,o),
(60,661,o),
(60,615,cs),
(60,86,ls),
(60,39,o),
(98,0,o),
(145,0,cs)
);
},
{
closed = 1;
nodes = (
(583,556,ls),
(598,571,o),
(607,592,o),
(607,615,cs),
(607,662,o),
(569,700,o),
(522,700,cs),
(499,700,o),
(478,691,o),
(462,675,cs),
(138,359,l),
(188,170,l)
);
},
{
closed = 1;
nodes = (
(469,35,ls),
(484,13,o),
(510,0,o),
(538,0,cs),
(585,0,o),
(623,38,o),
(623,85,cs),
(623,103,o),
(618,120,o),
(608,134,cs),
(411,419,l),
(288,296,l)
);
}
);
width = 653;
}
);
unicode = 75;
},
{
glyphname = L;
lastChange = "2021-06-02 02:01:33 +0000";
layers = (
{
background = {
shapes = (
{
attr = {
strokeWidth = 1;
};
closed = 0;
nodes = (
(111,701,l),
(111,3,l)
);
},
{
attr = {
strokeWidth = 1;
};
closed = 0;
nodes = (
(111,7,l),
(577,7,l)
);
}
);
};
layerId = m01;
shapes = (
{
closed = 1;
nodes = (
(535,0,ls),
(561,0,o),
(583,21,o),
(583,48,cs),
(583,74,o),
(561,95,o),
(535,95,cs),
(136,95,l),
(136,0,l)
);
},
{
closed = 1;
nodes = (
(164,648,ls),
(164,677,o),
(141,700,o),
(112,700,cs),
(83,700,o),
(60,677,o),
(60,648,cs),
(60,52,ls),
(60,23,o),
(83,0,o),
(112,0,c),
(164,0,l)
);
}
);
width = 613;
},
{
layerId = "877D6F36-AFBE-4448-AD1B-25E457939AA6";
shapes = (
{
closed = 1;
nodes = (
(495,0,ls),
(512,0,o),
(525,13,o),
(525,31,cs),
(525,48,o),
(512,63,o),
(495,63,cs),
(106,63,l),
(106,0,l)
);
},
{
closed = 1;
nodes = (
(124,670,ls),
(124,687,o),
(111,700,o),
(92,700,cs),
(73,700,o),
(60,687,o),
(60,670,cs),
(60,30,ls),
(60,13,o),
(73,0,o),
(92,0,c),
(124,0,l)
);
}
);
width = 555;
},
{
layerId = "D47B13D9-D7EB-4385-B3F1-1D14F737A65A";
shapes = (
{
closed = 1;
nodes = (
(544,0,ls),
(584,0,o),
(619,33,o),
(619,74,cs),
(619,116,o),
(584,149,o),
(544,149,cs),
(157,149,l),
(157,0,l)
);
},
{
closed = 1;
nodes = (
(230,615,ls),
(230,661,o),
(192,700,o),
(145,700,cs),
(98,700,o),
(60,661,o),
(60,615,cs),
(60,86,ls),
(60,39,o),
(98,0,o),
(145,0,c),
(230,0,l)
);
}
);
width = 649;
}
);
unicode = 76;
},
{
glyphname = M;
lastChange = "2021-06-03 17:26:31 +0000";
layers = (
{
background = {
shapes = (
{
closed = 0;
nodes = (
(714,0,l),
(714,700,l),
(667,700,l),
(419,1,l),
(171,700,l),
(124,700,l),
(124,0,l)
);
},
{
closed = 1;
nodes = (
(1264,640,ls),
(1252,671,o),
(1221,700,o),
(1156,700,cs),
(1085,700,o),
(1039,661,o),
(1039,614,cs),
(1039,86,ls),
(1039,39,o),
(1077,0,o),
(1124,0,cs),
(1171,0,o),
(1210,39,o),
(1209,86,cs),
(1203,615,l),
(1094,612,l),
(1340,53,ls),
(1354,20,o),
(1384,0,o),
(1418,0,cs),
(1452,0,o),
(1482,20,o),
(1496,53,cs),
(1742,612,l),
(1633,615,l),
(1627,86,ls),
(1626,39,o),
(1665,0,o),
(1712,0,cs),
(1759,0,o),
(1797,39,o),
(1797,86,cs),
(1797,614,ls),
(1797,661,o),
(1751,700,o),
(1680,700,cs),
(1615,700,o),
(1584,678,o),
(1572,647,cs),
(1399,197,l),
(1437,197,l)
);
}
);
};
layerId = m01;
shapes = (
{
closed = 1;
nodes = (
(151,0,o),
(174,23,o),
(174,52,cs),
(169,597,l),
(133,632,l),
(373,33,ls),
(381,13,o),
(399,0,o),
(419,0,cs),
(439,0,o),
(457,13,o),
(465,33,cs),
(705,632,l),
(669,597,l),
(664,52,ls),
(664,23,o),
(687,0,o),
(716,0,cs),
(746,0,o),
(768,22,o),
(768,52,cs),
(768,628,ls),
(768,669,o),
(734,700,o),
(687,700,cs),
(648,700,o),
(616,681,o),
(603,648,cs),
(406,135,l),
(432,135,l),
(235,648,ls),
(222,681,o),
(190,700,o),
(151,700,cs),
(106,700,o),
(72,669,o),
(72,628,cs),
(72,52,ls),
(72,22,o),
(94,0,o),
(122,0,cs)
);
}
);
width = 838;
},
{
layerId = "877D6F36-AFBE-4448-AD1B-25E457939AA6";
shapes = (
{
closed = 1;
nodes = (
(107,0,o),
(120,13,o),
(120,30,cs),
(120,652,l),
(99,652,l),
(343,19,ls),
(347,8,o),
(358,0,o),
(371,0,cs),
(384,0,o),
(395,8,o),
(399,19,cs),
(643,652,l),
(622,652,l),
(622,30,ls),
(622,13,o),
(635,0,o),
(652,0,cs),
(669,0,o),
(682,13,o),
(682,30,cs),
(682,658,ls),
(682,685,o),
(662,700,o),
(634,700,cs),
(611,700,o),
(591,686,o),
(582,661,cs),
(355,66,l),
(387,66,l),
(160,661,ls),
(151,686,o),
(131,700,o),
(108,700,cs),
(80,700,o),
(60,685,o),
(60,658,cs),
(60,30,ls),
(60,13,o),
(73,0,o),
(90,0,cs)
);
}
);
width = 742;
},
{
layerId = "D47B13D9-D7EB-4385-B3F1-1D14F737A65A";
shapes = (
{
closed = 1;
nodes = (
(192,0,o),
(231,39,o),
(230,86,cs),
(220,566,l),
(143,558,l),
(361,53,ls),
(376,20,o),
(405,0,o),
(439,0,cs),
(473,0,o),
(503,20,o),
(517,53,cs),
(735,558,l),
(658,566,l),
(648,86,ls),
(647,39,o),
(686,0,o),
(733,0,cs),
(780,0,o),
(818,39,o),
(818,86,cs),
(818,601,ls),
(818,664,o),
(775,700,o),
(701,700,cs),
(636,700,o),
(606,671,o),
(593,640,cs),
(412,197,l),
(466,197,l),
(285,640,ls),
(272,671,o),
(242,700,o),
(177,700,cs),
(103,700,o),
(60,664,o),
(60,601,cs),
(60,86,ls),
(60,39,o),
(98,0,o),
(145,0,cs)
);
}
);
width = 878;
}
);
unicode = 77;
},
{
glyphname = O;
lastChange = "2021-06-07 17:13:54 +0000";
layers = (
{
background = {
shapes = (
{
closed = 1;
nodes = (
(495,0,o),
(610,156,o),
(610,350,cs),
(610,544,o),
(495,700,o),
(351,700,cs),
(208,700,o),
(93,544,o),
(93,350,cs),
(93,156,o),
(208,0,o),
(351,0,cs)
);
},
{
closed = 1;
nodes = (
(495,0,o),
(610,156,o),
(610,350,cs),
(610,544,o),
(495,700,o),
(351,700,cs),
(208,700,o),
(93,544,o),
(93,350,cs),
(93,156,o),
(208,0,o),
(351,0,cs)
);
},
{
closed = 1;
nodes = (
(2149,-85,o),
(2298,112,o),
(2298,350,cs),
(2298,588,o),
(2149,785,o),
(1954,785,cs),
(1759,785,o),
(1611,587,o),
(1611,350,cs),
(1611,113,o),
(1759,-85,o),
(1954,-85,cs)
);
},
{
closed = 1;
nodes = (
(1854,85,o),
(1781,184,o),
(1781,350,cs),
(1781,516,o),
(1854,615,o),
(1954,615,cs),
(2055,615,o),
(2128,516,o),
(2128,350,cs),
(2128,184,o),
(2055,85,o),
(1954,85,cs)
);
},
{
closed = 1;
nodes = (
(171,322,l),
(532,323,l),
(532,52,ls),
(532,23,o),
(555,0,o),
(584,0,cs),
(613,0,o),
(636,23,o),
(636,52,cs),
(636,648,ls),
(636,677,o),
(613,700,o),
(584,700,cs),
(555,700,o),
(532,677,o),
(532,648,cs),
(532,417,l),
(171,416,l),
(171,648,ls),
(171,677,o),
(148,700,o),
(119,700,cs),
(90,700,o),
(67,677,o),
(67,648,cs),
(67,52,ls),
(67,23,o),
(90,0,o),
(119,0,cs),
(148,0,o),
(171,23,o),
(171,52,cs)
);
},
{
closed = 1;
nodes = (
(495,0,o),
(610,156,o),
(610,350,cs),
(610,544,o),
(495,700,o),
(351,700,cs),
(208,700,o),
(93,544,o),
(93,350,cs),
(93,156,o),
(208,0,o),
(351,0,cs)
);
},
{
closed = 1;
nodes = (
(468,81,o),
(557,201,o),
(557,350,cs),
(557,499,o),
(468,619,o),
(358,619,cs),
(249,619,o),
(160,499,o),
(160,350,cs),
(160,201,o),
(249,81,o),
(358,81,cs)
);
}
);
};
layerId = m01;
shapes = (
{
closed = 1;
nodes = (
(465,84,o),
(540,185,o),
(540,350,cs),
(540,515,o),
(465,616,o),
(343,616,cs),
(221,616,o),
(146,515,o),
(146,350,cs),
(146,185,o),
(221,84,o),
(343,84,cs)
);
},
{
closed = 1;
nodes = (
(157,-20,o),
(40,123,o),
(40,350,cs),
(40,577,o),
(157,720,o),
(343,720,cs),
(529,720,o),
(646,577,o),
(646,350,cs),
(646,123,o),
(529,-20,o),
(343,-20,cs)
);
}
);
width = 686;
},
{
background = {
shapes = (
{
closed = 1;
nodes = (
(129,0,o),
(142,13,o),
(142,30,cs),
(142,670,ls),
(142,687,o),
(129,700,o),
(112,700,cs),
(95,700,o),
(82,687,o),
(82,670,cs),
(82,30,ls),
(82,13,o),
(95,0,o),
(112,0,cs)
);
},
{
closed = 1;
nodes = (
(552,0,o),
(565,13,o),
(565,30,cs),
(565,670,ls),
(565,687,o),
(552,700,o),
(535,700,cs),
(518,700,o),
(505,687,o),
(505,670,cs),
(505,30,ls),
(505,13,o),
(518,0,o),
(535,0,cs)
);
},
{
closed = 1;
nodes = (
(536,341,l),
(536,399,l),
(108,398,l),
(108,340,l)
);
}
);
};
layerId = "877D6F36-AFBE-4448-AD1B-25E457939AA6";
shapes = (
{
closed = 1;
nodes = (
(464,40,o),
(547,158,o),
(547,347,cs),
(547,537,o),
(464,655,o),
(326,655,cs),
(188,655,o),
(104,537,o),
(104,347,cs),
(104,158,o),
(188,40,o),
(326,40,cs)
);
},
{
closed = 1;
nodes = (
(150,-20,o),
(40,122,o),
(40,347,cs),
(40,573,o),
(150,715,o),
(326,715,cs),
(501,715,o),
(611,573,o),
(611,347,cs),
(611,122,o),
(501,-20,o),
(326,-20,cs)
);
}
);
width = 651;
},
{
background = {
shapes = (
{
closed = 1;
nodes = (
(265,560,o),
(200,472,o),
(200,350,cs),
(200,228,o),
(265,140,o),
(355,140,cs),
(445,140,o),
(510,228,o),
(510,350,cs),
(510,472,o),
(445,560,o),
(355,560,cs)
);
},
{
closed = 1;
nodes = (
(30,565,o),
(179,720,o),
(355,720,cs),
(531,720,o),
(680,565,o),
(680,350,cs),
(680,135,o),
(531,-20,o),
(355,-20,cs),
(179,-20,o),
(30,135,o),
(30,350,cs)
);
}
);
};
layerId = "D47B13D9-D7EB-4385-B3F1-1D14F737A65A";
shapes = (
{
closed = 1;
nodes = (
(460,140,o),
(520,221,o),
(520,350,cs),
(520,479,o),
(460,560,o),
(365,560,cs),
(270,560,o),
(210,479,o),
(210,350,cs),
(210,221,o),
(270,140,o),
(365,140,cs)
);
},
{
closed = 1;
nodes = (
(165,-20,o),
(40,123,o),
(40,350,cs),
(40,577,o),
(165,720,o),
(365,720,cs),
(565,720,o),
(690,577,o),
(690,350,cs),
(690,123,o),
(565,-20,o),
(365,-20,cs)
);
}
);
width = 730;
}
);
unicode = 79;
},
{
glyphname = Q;
lastChange = "2021-06-03 17:35:17 +0000";
layers = (
{
background = {
shapes = (
{
closed = 1;
nodes = (
(500,0,o),
(615,156,o),
(615,350,cs),
(615,544,o),
(500,700,o),
(356,700,cs),
(213,700,o),
(98,544,o),
(98,350,cs),
(98,156,o),
(213,0,o),
(356,0,cs)
);
},
{
closed = 0;
nodes = (
(351,125,l),
(366,135,o),
(377,138,o),
(399,138,cs),
(449,138,o),
(490,-48,o),
(583,-48,cs),
(603,-48,o),
(613,-44,o),
(649,-25,c)
);
},
{
closed = 0;
nodes = (
(351,125,l),
(366,135,o),
(377,138,o),
(399,138,cs),
(449,138,o),
(490,-48,o),
(583,-48,cs),
(603,-48,o),
(613,-44,o),
(649,-25,c)
);
}
);
};
layerId = m01;
shapes = (
{
closed = 1;
nodes = (
(529,-20,o),
(646,123,o),
(646,350,cs),
(646,577,o),
(529,720,o),
(343,720,cs),
(157,720,o),
(40,577,o),
(40,350,cs),
(40,123,o),
(157,-20,o),
(343,-20,cs)
);
},
{
closed = 1;
nodes = (
(631,-51,o),
(663,-32,o),
(663,2,cs),
(663,32,o),
(638,54,o),
(608,54,cs),
(599,54,o),
(593,51,o),
(584,51,cs),
(533,51,o),
(502,237,o),
(408,237,cs),
(373,237,o),
(347,215,o),
(347,186,cs),
(347,156,o),
(371,133,o),
(402,133,cs),
(415,133,o),
(434,98,o),
(458,58,cs),
(490,7,o),
(531,-51,o),
(584,-51,cs)
);
},
{
closed = 1;
nodes = (
(221,84,o),
(146,185,o),
(146,350,cs),
(146,515,o),
(221,616,o),
(343,616,cs),
(465,616,o),
(540,515,o),
(540,350,cs),
(540,185,o),
(465,84,o),
(343,84,cs)
);
}
);
width = 698;
},
{
background = {
shapes = (
{
closed = 1;
nodes = (
(489,-20,o),
(616,135,o),
(616,350,cs),
(616,565,o),
(489,720,o),
(313,720,cs),
(137,720,o),
(10,565,o),
(10,350,cs),
(10,135,o),
(137,-20,o),
(313,-20,cs)
);
},
{
closed = 1;
nodes = (
(601,-51,o),
(633,-32,o),
(633,2,cs),
(633,32,o),
(608,54,o),
(578,54,cs),
(569,54,o),
(563,51,o),
(554,51,cs),
(503,51,o),
(472,237,o),
(378,237,cs),
(343,237,o),
(317,215,o),
(317,186,cs),
(317,156,o),
(341,133,o),
(372,133,cs),
(402,133,o),
(460,-51,o),
(554,-51,cs)
);
},
{
closed = 1;
nodes = (
(202,81,o),
(115,199,o),
(115,350,cs),
(115,501,o),
(202,619,o),
(313,619,cs),
(424,619,o),
(511,501,o),
(511,350,cs),
(511,199,o),
(424,81,o),
(313,81,cs)
);
}
);
};
layerId = "877D6F36-AFBE-4448-AD1B-25E457939AA6";
shapes = (
{
closed = 1;
nodes = (
(501,-20,o),
(611,122,o),
(611,347,cs),
(611,573,o),
(501,715,o),
(326,715,cs),
(150,715,o),
(40,573,o),
(40,347,cs),
(40,122,o),
(150,-20,o),
(326,-20,cs)
);
},
{
closed = 1;
nodes = (
(576,-39,o),
(598,-27,o),
(598,-3,cs),
(598,18,o),
(581,28,o),
(568,28,cs),
(554,28,o),
(551,26,o),
(545,26,cs),
(510,26,o),
(469,195,o),
(405,195,cs),
(378,195,o),
(363,180,o),
(363,160,cs),
(363,140,o),
(378,125,o),
(400,125,cs),
(409,125,o),
(439,70,o),
(454,48,cs),
(477,11,o),
(508,-39,o),
(545,-39,cs)
);
},
{
closed = 1;
nodes = (
(188,40,o),
(104,158,o),
(104,347,cs),
(104,537,o),
(188,655,o),
(326,655,cs),
(464,655,o),
(547,537,o),
(547,347,cs),
(547,158,o),
(464,40,o),
(326,40,cs)
);
}
);
width = 646;
},
{
background = {
shapes = (
{
closed = 1;
nodes = (
(540,-20,o),
(667,135,o),
(667,350,cs),
(667,565,o),
(540,720,o),
(364,720,cs),
(188,720,o),
(61,565,o),
(61,350,cs),
(61,135,o),
(188,-20,o),
(364,-20,cs)
);
},
{
closed = 1;
nodes = (
(652,-51,o),
(684,-32,o),
(684,2,cs),
(684,32,o),
(659,54,o),
(629,54,cs),
(620,54,o),
(614,51,o),
(605,51,cs),
(554,51,o),
(523,237,o),
(429,237,cs),
(394,237,o),
(368,215,o),
(368,186,cs),
(368,156,o),
(392,133,o),
(423,133,cs),
(453,133,o),
(511,-51,o),
(605,-51,cs)
);
},
{
closed = 1;
nodes = (
(253,81,o),
(166,199,o),
(166,350,cs),
(166,501,o),
(253,619,o),
(364,619,cs),
(475,619,o),
(562,501,o),
(562,350,cs),
(562,199,o),
(475,81,o),
(364,81,cs)
);
},
{
attr = {
strokeWidth = 1;
};
closed = 0;
nodes = (
(360,130,l),
(360,130,o),
(383,143,o),
(405,143,c),
(466,143,o),
(492,-43,o),
(597,-43,c),
(626,-43,o),
(659,-20,o),
(659,-20,c)
);
}
);
};
layerId = "D47B13D9-D7EB-4385-B3F1-1D14F737A65A";
shapes = (
{
closed = 1;
nodes = (
(565,-20,o),
(690,123,o),
(690,350,cs),
(690,577,o),
(565,720,o),
(365,720,cs),
(165,720,o),
(40,577,o),
(40,350,cs),
(40,123,o),
(165,-20,o),
(365,-20,cs)
);
},
{
closed = 1;
nodes = (
(680,-52,o),
(715,-20,o),
(715,22,cs),
(715,80,o),
(686,115,o),
(639,115,cs),
(615,115,o),
(583,132,o),
(570,144,cs),
(518,193,o),
(545,320,o),
(383,320,cs),
(338,320,o),
(302,282,o),
(302,237,cs),
(302,191,o),
(338,175,o),
(383,175,cs),
(482,175,o),
(449,119,o),
(472,74,cs),
(500,15,o),
(533,-52,o),
(634,-52,cs)
);
},
{
closed = 1;
nodes = (
(270,140,o),
(210,221,o),
(210,350,cs),
(210,479,o),
(270,560,o),
(365,560,cs),
(460,560,o),
(520,479,o),
(520,350,cs),
(520,221,o),
(500,140,o),
(365,140,cs)
);
}
);
width = 750;
}
);
unicode = 81;
},
{
glyphname = R;
lastChange = "2021-06-08 19:09:58 +0000";
layers = (
{
background = {
shapes = (
{
closed = 0;
nodes = (
(-784,700,l),
(-784,0,l)
);
},
{
closed = 0;
nodes = (
(-773,377,l),
(-497,377,l),
(-480,377,ls),
(-387,377,o),
(-318,454,o),
(-318,539,cs),
(-318,628,o),
(-391,700,o),
(-479,700,cs),
(-783,700,l)
);
},
{
closed = 0;
nodes = (
(-315,0,l),
(-492,370,l)
);
},
{
closed = 1;
nodes = (
(-767,0,o),
(-754,13,o),
(-754,30,cs),
(-754,640,l),
(-476,640,ls),
(-400,640,o),
(-348,586,o),
(-348,514,cs),
(-348,440,o),
(-400,390,o),
(-480,390,cs),
(-784,390,l),
(-784,330,l),
(-479,330,ls),
(-368,330,o),
(-288,407,o),
(-288,514,cs),
(-288,622,o),
(-368,700,o),
(-479,700,cs),
(-784,700,ls),
(-801,700,o),
(-814,687,o),
(-814,670,cs),
(-814,30,ls),
(-814,13,o),
(-801,0,o),
(-784,0,cs)
);
},
{
closed = 1;
nodes = (
(-353,17,ls),
(-348,7,o),
(-338,0,o),
(-327,0,cs),
(-309,0,o),
(-296,14,o),
(-296,30,cs),
(-296,35,o),
(-297,40,o),
(-299,44,cs),
(-454,342,l),
(-519,340,l)
);
},
{
closed = 1;
nodes = (
(133,0,o),
(146,13,o),
(146,30,cs),
(146,640,l),
(424,640,ls),
(500,640,o),
(552,586,o),
(552,514,cs),
(552,440,o),
(500,390,o),
(420,390,cs),
(116,390,l),
(116,330,l),
(421,330,ls),
(532,330,o),
(612,407,o),
(612,514,cs),
(612,622,o),
(532,700,o),
(421,700,cs),
(116,700,ls),
(99,700,o),
(86,687,o),
(86,670,cs),
(86,30,ls),
(86,13,o),
(99,0,o),
(116,0,cs)
);
},
{
closed = 1;
nodes = (
(547,17,ls),
(552,7,o),
(562,0,o),
(573,0,cs),
(591,0,o),
(604,14,o),
(604,30,cs),
(604,35,o),
(603,40,o),
(601,44,cs),
(446,342,l),
(381,340,l)
);
},
{
closed = 1;
nodes = (
(144,0,o),
(167,23,o),
(167,52,cs),
(167,648,ls),
(167,677,o),
(144,700,o),
(115,700,cs),
(86,700,o),
(63,677,o),
(63,648,cs),
(63,52,ls),
(63,23,o),
(86,0,o),
(115,0,cs)
);
},
{
closed = 1;
nodes = (
(574,0,o),
(597,23,o),
(597,52,cs),
(597,648,ls),
(597,677,o),
(574,700,o),
(545,700,cs),
(516,700,o),
(493,677,o),
(493,648,cs),
(493,52,ls),
(493,23,o),
(516,0,o),
(545,0,cs)
);
},
{
closed = 1;
nodes = (
(515,322,l),
(515,425,l),
(120,425,l),
(120,322,l)
);
}
);
};
guides = (
{
pos = (1971,391);
}
);
layerId = m01;
shapes = (
{
closed = 1;
nodes = (
(141,0,o),
(164,23,o),
(164,52,cs),
(164,625,l),
(130,596,l),
(379,596,ls),
(449,596,o),
(486,570,o),
(486,495,cs),
(486,432,o),
(448,391,o),
(377,391,cs),
(106,391,l),
(106,293,l),
(372,293,ls),
(502,293,o),
(590,373,o),
(590,506,cs),
(590,623,o),
(509,700,o),
(381,700,cs),
(112,700,ls),
(83,700,o),
(60,677,o),
(60,648,cs),
(60,52,ls),
(60,23,o),
(83,0,o),
(112,0,cs)
);
},
{
closed = 1;
nodes = (
(474,29,ls),
(482,12,o),
(501,0,o),
(521,0,cs),
(550,0,o),
(573,23,o),
(573,52,cs),
(573,61,o),
(570,69,o),
(567,76,cs),
(431,351,l),
(332,316,l)
);
}
);
width = 645;
},
{
background = {
shapes = (
{
closed = 1;
nodes = (
(107,0,o),
(120,13,o),
(120,30,cs),
(120,670,ls),
(120,687,o),
(107,700,o),
(90,700,cs),
(73,700,o),
(60,687,o),
(60,670,cs),
(60,30,ls),
(60,13,o),
(73,0,o),
(90,0,cs)
);
},
{
closed = 1;
nodes = (
(530,0,o),
(543,13,o),
(543,30,cs),
(543,670,ls),
(543,687,o),
(530,700,o),
(513,700,cs),
(496,700,o),
(483,687,o),
(483,670,cs),
(483,30,ls),
(483,13,o),
(496,0,o),
(513,0,cs)
);
},
{
closed = 1;
nodes = (
(514,341,l),
(514,399,l),
(86,398,l),
(86,340,l)
);
}
);
};
layerId = "877D6F36-AFBE-4448-AD1B-25E457939AA6";
shapes = (
{
closed = 1;
nodes = (
(107,0,o),
(120,13,o),
(120,30,cs),
(120,685,l),
(75,640,l),
(366,640,ls),
(442,640,o),
(494,586,o),
(494,514,cs),
(494,440,o),
(442,390,o),
(362,390,cs),
(90,390,l),
(90,330,l),
(363,330,ls),
(474,330,o),
(554,407,o),
(554,514,cs),
(554,622,o),
(474,700,o),
(363,700,cs),
(90,700,ls),
(73,700,o),
(60,687,o),
(60,670,cs),
(60,30,ls),
(60,13,o),
(73,0,o),
(90,0,cs)
);
},
{
closed = 1;
nodes = (
(489,17,ls),
(494,7,o),
(504,0,o),
(515,0,cs),
(533,0,o),
(546,14,o),
(546,30,cs),
(546,35,o),
(545,40,o),
(543,44,cs),
(388,342,l),
(323,340,l)
);
}
);
width = 599;
},
{
background = {
shapes = (
{
closed = 1;
nodes = (
(192,0,o),
(230,39,o),
(230,86,cs),
(230,615,ls),
(230,661,o),
(192,700,o),
(145,700,cs),
(98,700,o),
(60,661,o),
(60,615,cs),
(60,86,ls),
(60,39,o),
(98,0,o),
(145,0,cs)
);
},
{
closed = 1;
nodes = (
(632,0,o),
(670,39,o),
(670,86,cs),
(670,615,ls),
(670,661,o),
(632,700,o),
(585,700,cs),
(538,700,o),
(500,661,o),
(500,615,cs),
(500,86,ls),
(500,39,o),
(538,0,o),
(585,0,cs)
);
},
{
closed = 1;
nodes = (
(539,282,l),
(540,442,l),
(189,441,l),
(188,282,l)
);
}
);
};
layerId = "D47B13D9-D7EB-4385-B3F1-1D14F737A65A";
shapes = (
{
closed = 1;
nodes = (
(192,0,o),
(230,39,o),
(230,86,cs),
(230,624,l),
(198,529,l),
(424,529,ls),
(472,529,o),
(500,501,o),
(500,453,cs),
(500,398,o),
(472,366,o),
(423,366,cs),
(169,366,l),
(169,216,l),
(423,216,ls),
(579,216,o),
(670,303,o),
(670,453,cs),
(670,596,o),
(566,700,o),
(424,700,cs),
(145,700,ls),
(98,700,o),
(60,661,o),
(60,615,cs),
(60,86,ls),
(60,39,o),
(98,0,o),
(145,0,cs)
);
},
{
closed = 1;
nodes = (
(479,47,ls),
(493,19,o),
(522,0,o),
(555,0,cs),
(602,0,o),
(640,38,o),
(640,85,cs),
(640,99,o),
(637,112,o),
(631,123,cs),
(520,339,l),
(349,301,l)
);
}
);
width = 726;
}
);
unicode = 82;
},
{
glyphname = S;
lastChange = "2021-06-08 19:07:20 +0000";
layers = (
{
background = {
shapes = (
{
closed = 0;
nodes = (
(1280,551,l),
(1260,651,o),
(1180,700,o),
(1071,700,cs),
(937,700,o),
(849,632,o),
(849,530,cs),
(849,282,o),
(1316,449,o),
(1316,183,cs),
(1316,67,o),
(1232,0,o),
(1086,0,cs),
(916,0,o),
(839,93,o),
(839,190,c)
);
},
{
closed = 1;
nodes = (
(1048,670,l),
(1078,670,l),
(1078,700,l),
(1048,700,l)
);
},
{
closed = 1;
nodes = (
(1030,648,l),
(1082,648,l),
(1082,700,l),
(1030,700,l)
);
},
{
closed = 1;
nodes = (
(1015,617,l),
(1100,617,l),
(1100,702,l),
(1015,702,l)
);
},
{
closed = 0;
nodes = (
(1263,534,l),
(1244,625,o),
(1171,670,o),
(1072,670,cs),
(949,670,o),
(869,608,o),
(869,514,cs),
(869,288,o),
(1295,440,o),
(1295,197,cs),
(1295,91,o),
(1219,30,o),
(1085,30,cs),
(930,30,o),
(860,115,o),
(860,204,c)
);
},
{
closed = 0;
nodes = (
(1250,521,l),
(1232,606,o),
(1164,647,o),
(1072,647,cs),
(958,647,o),
(884,590,o),
(884,502,cs),
(884,292,o),
(1280,434,o),
(1280,208,cs),
(1280,109,o),
(1209,53,o),
(1084,53,cs),
(940,53,o),
(875,132,o),
(875,214,c)
);
},
{
closed = 0;
nodes = (
(1233,505,l),
(1217,581,o),
(1156,619,o),
(1073,619,cs),
(969,619,o),
(903,567,o),
(903,487,cs),
(903,298,o),
(1261,426,o),
(1261,222,cs),
(1261,132,o),
(1196,81,o),
(1083,81,cs),
(953,81,o),
(894,153,o),
(894,227,c)
);
},
{
closed = 1;
nodes = (
(859,68,o),
(942,0,o),
(1084,0,cs),
(1235,0,o),
(1332,77,o),
(1332,207,cs),
(1332,374,o),
(1176,395,o),
(1072,416,cs),
(981,434,o),
(936,446,o),
(936,503,cs),
(936,565,o),
(976,596,o),
(1072,596,cs),
(1135,596,o),
(1170,582,o),
(1189,543,cs),
(1197,526,o),
(1215,514,o),
(1235,514,cs),
(1264,514,o),
(1287,537,o),
(1287,566,cs),
(1287,574,o),
(1285,582,o),
(1281,589,cs),
(1242,664,o),
(1164,700,o),
(1072,700,cs),
(932,700,o),
(832,622,o),
(832,503,cs),
(832,375,o),
(935,337,o),
(1052,314,cs),
(1159,292,o),
(1228,283,o),
(1228,207,cs),
(1228,133,o),
(1191,104,o),
(1084,104,cs),
(986,104,o),
(943,135,o),
(931,181,cs),
(925,203,o),
(905,219,o),
(881,219,cs),
(853,219,o),
(830,196,o),
(830,168,cs),
(830,162,o),
(831,157,o),
(832,152,cs)
);
},
{
closed = 1;
nodes = (
(1551,0,o),
(1691,0,cs),
(1825,0,o),
(1922,77,o),
(1922,207,cs),
(1922,374,o),
(1766,395,o),
(1672,416,cs),
(1584,436,o),
(1538,446,o),
(1538,503,cs),
(1538,565,o),
(1579,597,o),
(1672,597,cs),
(1735,597,o),
(1771,582,o),
(1790,543,cs),
(1798,526,o),
(1815,514,o),
(1835,514,cs),
(1864,514,o),
(1887,537,o),
(1887,560,cs),
(1887,568,o),
(1885,575,o),
(1881,586,cs),
(1860,650,o),
(1767,700,o),
(1662,700,cs),
(1535,700,o),
(1435,622,o),
(1435,503,cs),
(1435,375,o),
(1538,341,o),
(1652,314,cs),
(1749,291,o),
(1819,293,o),
(1819,201,cs),
(1819,133,o),
(1781,100,o),
(1691,100,cs),
(1586,100,o),
(1538,135,o),
(1526,181,cs),
(1520,203,o),
(1505,219,o),
(1481,219,cs),
(1453,219,o),
(1430,196,o),
(1430,159,cs),
(1430,73,o)
);
},
{
closed = 1;
nodes = (
(30,73,o),
(151,0,o),
(291,0,cs),
(425,0,o),
(522,68,o),
(522,207,cs),
(522,328,o),
(469,372,o),
(272,416,cs),
(181,437,o),
(138,465,o),
(138,503,cs),
(138,565,o),
(179,597,o),
(272,597,cs),
(335,597,o),
(371,582,o),
(390,543,cs),
(398,526,o),
(415,514,o),
(435,514,cs),
(464,514,o),
(487,537,o),
(487,560,cs),
(487,568,o),
(485,575,o),
(481,586,cs),
(460,650,o),
(367,700,o),
(262,700,cs),
(135,700,o),
(35,622,o),
(35,503,cs),
(35,375,o),
(138,341,o),
(252,314,cs),
(402,279,o),
(419,268,o),
(419,194,cs),
(419,140,o),
(373,100,o),
(278,100,cs),
(186,100,o),
(138,135,o),
(126,181,cs),
(120,203,o),
(105,219,o),
(81,219,cs),
(53,219,o),
(30,196,o),
(30,159,cs)
);
},
{
closed = 1;
nodes = (
(979,0,o),
(1083,0,cs),
(1259,0,o),
(1346,98,o),
(1346,222,cs),
(1346,351,o),
(1128,432,o),
(1034,457,cs),
(988,469,o),
(985,493,o),
(985,505,cs),
(985,527,o),
(1027,534,o),
(1073,534,cs),
(1152,534,o),
(1169,504,o),
(1190,504,cs),
(1237,504,o),
(1275,542,o),
(1275,589,cs),
(1275,670,o),
(1145,700,o),
(1073,700,cs),
(910,700,o),
(818,604,o),
(818,487,cs),
(818,384,o),
(884,321,o),
(990,293,cs),
(1114,260,o),
(1176,270,o),
(1176,222,cs),
(1176,173,o),
(1167,166,o),
(1083,166,cs),
(1028,166,o),
(1003,172,o),
(991,188,cs),
(976,208,o),
(952,220,o),
(925,220,cs),
(879,220,o),
(842,183,o),
(842,137,cs),
(842,54,o)
);
},
{
closed = 1;
nodes = (
(186,100,o),
(138,135,o),
(126,181,cs),
(120,203,o),
(105,219,o),
(81,219,cs),
(53,219,o),
(30,196,o),
(30,159,cs),
(30,73,o),
(151,0,o),
(291,0,cs),
(449,0,o),
(522,80,o),
(522,205,cs),
(522,392,o),
(333,398,o),
(220,431,cs),
(172,445,o),
(138,464,o),
(138,503,cs),
(138,567,o),
(181,597,o),
(272,597,cs),
(335,597,o),
(371,582,o),
(390,543,cs),
(398,526,o),
(415,514,o),
(435,514,cs),
(464,514,o),
(487,537,o),
(487,560,cs),
(487,568,o),
(485,575,o),
(481,586,cs),
(460,651,o),
(366,700,o),
(262,700,cs),
(133,700,o),
(35,615,o),
(35,503,cs),
(35,394,o),
(114,346,o),
(207,327,cs),
(371,294,o),
(419,275,o),
(419,194,cs),
(419,126,o),
(362,100,o),
(291,100,cs)
);
}
);
};
layerId = m01;
shapes = (
{
closed = 1;
nodes = (
(439,-19,o),
(522,81,o),
(522,201,cs),
(522,383,o),
(343,408,o),
(230,441,cs),
(182,455,o),
(149,483,o),
(149,529,cs),
(149,586,o),
(199,621,o),
(276,621,cs),
(335,621,o),
(371,601,o),
(390,562,cs),
(398,545,o),
(415,533,o),
(435,533,cs),
(464,533,o),
(487,556,o),
(487,585,cs),
(487,600,o),
(481,618,o),
(463,639,cs),
(425,683,o),
(349,719,o),
(269,719,cs),
(143,719,o),
(45,631,o),
(45,525,cs),
(45,423,o),
(134,353,o),
(226,334,cs),
(385,301,o),
(418,250,o),
(418,194,cs),
(418,113,o),
(348,81,o),
(276,81,cs),
(179,81,o),
(140,129,o),
(124,169,cs),
(115,191,o),
(105,210,o),
(81,210,cs),
(53,210,o),
(30,187,o),
(30,150,cs),
(30,108,o),
(47,78,o),
(75,52,cs),
(123,10,o),
(203,-19,o),
(286,-19,cs)
);
}
);
width = 552;
},
{
layerId = "877D6F36-AFBE-4448-AD1B-25E457939AA6";
shapes = (
{
closed = 1;
nodes = (
(490,-14,o),
(538,103,o),
(537,190,cs),
(535,351,o),
(388,373,o),
(274,394,cs),
(181,411,o),
(109,424,o),
(109,510,cs),
(109,579,o),
(150,648,o),
(277,648,cs),
(358,648,o),
(417,616,o),
(438,554,cs),
(443,543,o),
(454,534,o),
(467,534,cs),
(485,534,o),
(497,549,o),
(497,564,cs),
(497,578,o),
(480,607,o),
(473,618,cs),
(444,660,o),
(386,708,o),
(277,708,cs),
(112,708,o),
(49,606,o),
(49,510,cs),
(49,374,o),
(170,352,o),
(264,335,cs),
(380,314,o),
(477,296,o),
(477,191,cs),
(477,121,o),
(441,44,o),
(292,44,cs),
(179,44,o),
(90,100,o),
(90,177,cs),
(90,200,o),
(73,204,o),
(60,204,cs),
(47,204,o),
(30,198,o),
(30,180,cs),
(30,153,o),
(38,127,o),
(51,104,cs),
(89,33,o),
(179,-14,o),
(292,-14,cs)
);
}
);
width = 567;
},
{
layerId = "D47B13D9-D7EB-4385-B3F1-1D14F737A65A";
shapes = (
{
closed = 1;
nodes = (
(492,-21,o),
(572,83,o),
(572,218,cs),
(572,367,o),
(472,409,o),
(343,437,cs),
(238,460,o),
(213,472,o),
(213,504,cs),
(213,543,o),
(251,566,o),
(327,566,cs),
(374,566,o),
(398,558,o),
(410,553,cs),
(434,542,o),
(441,529,o),
(471,529,cs),
(512,529,o),
(534,557,o),
(534,593,cs),
(534,612,o),
(528,629,o),
(518,644,cs),
(485,693,o),
(413,715,o),
(329,715,cs),
(169,715,o),
(44,639,o),
(44,503,cs),
(44,400,o),
(118,326,o),
(223,300,cs),
(374,262,o),
(403,247,o),
(403,204,cs),
(403,158,o),
(367,134,o),
(289,134,cs),
(225,134,o),
(192,150,o),
(170,167,cs),
(148,184,o),
(130,199,o),
(102,199,cs),
(58,199,o),
(25,162,o),
(25,119,cs),
(25,90,o),
(40,64,o),
(65,43,cs),
(114,2,o),
(202,-21,o),
(295,-21,cs)
);
}
);
width = 602;
}
);
unicode = 83;
},
{
glyphname = X;
lastChange = "2021-06-09 16:14:31 +0000";
layers = (
{
background = {
shapes = (
{
attr = {
strokeWidth = 1;
};
closed = 0;
nodes = (
(-728,690,l),
(-247,7,l)
);
},
{
attr = {
strokeWidth = 1;
};
closed = 0;
nodes = (
(-260,692,l),
(-736,7,l)
);
}
);
};
layerId = m01;
shapes = (
{
closed = 1;
nodes = (
(141,678,ls),
(132,691,o),
(116,700,o),
(99,700,cs),
(70,700,o),
(47,676,o),
(47,648,cs),
(47,636,o),
(51,626,o),
(57,617,cs),
(488,22,ls),
(497,9,o),
(513,0,o),
(530,0,cs),
(559,0,o),
(582,24,o),
(582,52,cs),
(582,64,o),
(578,74,o),
(572,83,cs)
);
},
{
closed = 1;
nodes = (
(341,321,l),
(555,617,ls),
(561,626,o),
(564,636,o),
(564,648,cs),
(564,676,o),
(541,700,o),
(512,700,cs),
(495,700,o),
(479,691,o),
(470,678,cs),
(274,406,l)
);
},
{
closed = 1;
nodes = (
(273,406,l),
(39,83,ls),
(33,74,o),
(30,64,o),
(30,52,cs),
(30,24,o),
(53,0,o),
(82,0,cs),
(99,0,o),
(115,9,o),
(124,22,cs),
(340,321,l)
);
}
);
width = 612;
},
{
layerId = "877D6F36-AFBE-4448-AD1B-25E457939AA6";
shapes = (
{
closed = 1;
nodes = (
(99,687,ls),
(93,695,o),
(85,700,o),
(75,700,cs),
(58,700,o),
(45,686,o),
(45,670,cs),
(45,663,o),
(47,657,o),
(50,652,cs),
(504,13,ls),
(510,5,o),
(518,0,o),
(528,0,cs),
(545,0,o),
(558,14,o),
(558,30,cs),
(558,37,o),
(556,43,o),
(553,48,cs)
);
},
{
closed = 1;
nodes = (
(310,334,l),
(532,652,ls),
(536,657,o),
(538,663,o),
(538,670,cs),
(538,686,o),
(524,700,o),
(508,700,cs),
(498,700,o),
(489,695,o),
(483,687,cs),
(270,383,l)
);
},
{
closed = 1;
nodes = (
(270,383,l),
(36,48,ls),
(32,43,o),
(30,37,o),
(30,30,cs),
(30,14,o),
(44,0,o),
(60,0,cs),
(70,0,o),
(79,5,o),
(85,13,cs),
(310,334,l)
);
}
);
width = 588;
},
{
layerId = "D47B13D9-D7EB-4385-B3F1-1D14F737A65A";
shapes = (
{
closed = 1;
nodes = (
(198,665,ls),
(182,687,o),
(157,700,o),
(129,700,cs),
(82,700,o),
(44,662,o),
(44,615,cs),
(44,597,o),
(50,580,o),
(60,566,cs),
(442,35,ls),
(458,13,o),
(483,0,o),
(511,0,cs),
(558,0,o),
(596,38,o),
(596,85,cs),
(596,103,o),
(590,120,o),
(580,134,cs)
);
},
{
closed = 1;
nodes = (
(368,275,l),
(576,566,ls),
(586,580,o),
(591,597,o),
(591,615,cs),
(591,662,o),
(553,700,o),
(506,700,cs),
(478,700,o),
(452,687,o),
(437,665,cs),
(256,412,l)
);
},
{
closed = 1;
nodes = (
(244,412,l),
(45,134,ls),
(35,120,o),
(30,103,o),
(30,85,cs),
(30,38,o),
(68,0,o),
(115,0,cs),
(143,0,o),
(168,13,o),
(184,35,cs),
(356,275,l)
);
}
);
width = 626;
}
);
unicode = 88;
},
{
glyphname = G.ss01;
lastChange = "2021-06-08 18:41:11 +0000";
layers = (
{
background = {
shapes = (
{
closed = 1;
nodes = (
(465,84,o),
(540,185,o),
(540,350,cs),
(540,515,o),
(465,616,o),
(343,616,cs),
(221,616,o),
(146,515,o),
(146,350,cs),
(146,185,o),
(221,84,o),
(343,84,cs)
);
},
{
closed = 1;
nodes = (
(157,-20,o),
(40,123,o),
(40,350,cs),
(40,577,o),
(157,720,o),
(343,720,cs),
(529,720,o),
(646,577,o),
(646,350,cs),
(646,123,o),
(529,-20,o),
(343,-20,cs)
);
}
);
};
layerId = m01;
shapes = (
{
closed = 1;
nodes = (
(506,-20,o),
(599,77,o),
(599,124,c),
(599,306,ls),
(599,336,o),
(578,357,o),
(548,358,cs),
(424,361,ls),
(396,362,o),
(371,339,o),
(371,311,cs),
(371,284,o),
(393,266,o),
(422,265,cs),
(495,263,l),
(495,158,l),
(495,124,o),
(438,83,o),
(359,83,cs),
(222,83,o),
(149,196,o),
(146,350,cs),
(143,524,o),
(230,618,o),
(355,618,cs),
(425,618,o),
(458,593,o),
(477,555,cs),
(485,538,o),
(502,526,o),
(523,526,cs),
(551,526,o),
(574,549,o),
(574,577,cs),
(574,586,o),
(572,594,o),
(568,601,cs),
(534,665,o),
(469,720,o),
(333,720,cs),
(114,720,o),
(39,514,o),
(39,358,cs),
(39,131,o),
(150,-18,o),
(348,-19,cs)
);
}
);
width = 605;
},
{
background = {
shapes = (
{
closed = 1;
nodes = (
(459,40,o),
(542,158,o),
(542,347,cs),
(542,537,o),
(459,655,o),
(321,655,cs),
(183,655,o),
(99,537,o),
(99,347,cs),
(99,158,o),
(183,40,o),
(321,40,cs)
);
},
{
closed = 1;
nodes = (
(145,-20,o),
(35,122,o),
(35,347,cs),
(35,573,o),
(145,715,o),
(321,715,cs),
(496,715,o),
(606,573,o),
(606,347,cs),
(606,122,o),
(496,-20,o),
(321,-20,cs)
);
}
);
};
layerId = "877D6F36-AFBE-4448-AD1B-25E457939AA6";
shapes = (
{
closed = 1;
nodes = (
(449,-14,o),
(543,63,o),
(543,118,cs),
(543,315,ls),
(543,332,o),
(530,346,o),
(513,346,cs),
(373,349,ls),
(359,349,o),
(347,336,o),
(347,321,cs),
(347,305,o),
(358,293,o),
(371,293,cs),
(483,291,l),
(483,137,ls),
(483,97,o),
(417,46,o),
(319,46,cs),
(182,46,o),
(96,169,o),
(96,354,cs),
(96,535,o),
(183,655,o),
(314,655,cs),
(410,655,o),
(456,609,o),
(477,553,cs),
(481,542,o),
(492,534,o),
(505,534,cs),
(521,534,o),
(535,547,o),
(535,564,cs),
(535,567,o),
(535,571,o),
(533,575,cs),
(504,646,o),
(439,715,o),
(314,715,cs),
(141,715,o),
(35,559,o),
(35,354,cs),
(35,133,o),
(141,-14,o),
(331,-14,cs)
);
}
);
width = 578;
},
{
background = {
shapes = (
{
closed = 1;
nodes = (
(-174,-19,o),
(-85,68,o),
(-85,124,c),
(-85,306,ls),
(-85,336,o),
(-106,357,o),
(-136,358,cs),
(-240,361,ls),
(-268,362,o),
(-293,339,o),
(-293,313,cs),
(-293,284,o),
(-271,266,o),
(-242,265,cs),
(-189,263,l),
(-189,145,l),
(-189,116,o),
(-235,83,o),
(-306,83,cs),
(-438,83,o),
(-511,185,o),
(-511,369,cs),
(-511,513,o),
(-432,618,o),
(-313,618,cs),
(-251,618,o),
(-218,593,o),
(-199,555,cs),
(-191,538,o),
(-174,526,o),
(-153,526,cs),
(-125,526,o),
(-102,549,o),
(-102,577,cs),
(-102,586,o),
(-104,594,o),
(-108,601,cs),
(-142,665,o),
(-207,720,o),
(-313,720,cs),
(-546,720,o),
(-615,507,o),
(-615,354,cs),
(-615,114,o),
(-504,-19,o),
(-305,-19,cs)
);
},
{
closed = 1;
nodes = (
(-163,-20,o),
(-47,69,o),
(-47,134,c),
(-47,296,ls),
(-47,344,o),
(-83,381,o),
(-131,382,cs),
(-207,384,ls),
(-239,385,o),
(-295,373,o),
(-295,305,cs),
(-295,258,o),
(-261,233,o),
(-224,233,cs),
(-207,233,l),
(-207,179,l),
(-207,160,o),
(-246,140,o),
(-298,140,cs),
(-393,140,o),
(-445,221,o),
(-445,348,cs),
(-445,472,o),
(-395,556,o),
(-306,556,cs),
(-258,556,o),
(-241,540,o),
(-230,525,cs),
(-215,504,o),
(-190,491,o),
(-163,491,cs),
(-116,491,o),
(-79,528,o),
(-79,574,cs),
(-79,594,o),
(-86,613,o),
(-98,627,cs),
(-145,684,o),
(-214,716,o),
(-306,716,cs),
(-492,716,o),
(-615,566,o),
(-615,348,cs),
(-615,127,o),
(-492,-20,o),
(-306,-20,cs)
);
},
{
closed = 1;
nodes = (
(490,247,l),
(490,160,l),
(466,138,o),
(433,123,o),
(384,123,cs),
(230,123,o),
(200,266,o),
(200,348,cs),
(200,447,o),
(245,572,o),
(384,572,cs),
(429,572,o),
(457,559,o),
(475,534,cs),
(489,514,o),
(516,500,o),
(546,500,cs),
(592,500,o),
(629,532,o),
(629,571,cs),
(629,586,o),
(624,600,o),
(615,611,cs),
(570,669,o),
(492,716,o),
(376,716,cs),
(113,716,o),
(30,512,o),
(30,350,cs),
(30,222,o),
(82,-20,o),
(376,-20,cs),
(525,-20,o),
(623,56,o),
(660,116,c),
(660,319,ls),
(660,364,o),
(636,389,o),
(591,390,cs),
(483,392,ls),
(439,393,o),
(395,363,o),
(395,320,cs),
(395,281,o),
(432,252,o),
(478,248,cs)
);
}
);
};
layerId = "D47B13D9-D7EB-4385-B3F1-1D14F737A65A";
shapes = (
{
closed = 1;
nodes = (
(525,-20,o),
(623,56,o),
(660,116,c),
(660,319,ls),
(660,364,o),
(636,389,o),
(591,390,cs),
(483,392,ls),
(439,393,o),
(395,363,o),
(395,320,cs),
(395,281,o),
(432,252,o),
(478,248,cs),
(490,247,l),
(490,160,l),
(466,138,o),
(433,123,o),
(384,123,cs),
(230,123,o),
(200,266,o),
(200,348,cs),
(200,447,o),
(245,572,o),
(384,572,cs),
(429,572,o),
(457,559,o),
(475,534,cs),
(489,514,o),
(516,500,o),
(546,500,cs),
(592,500,o),
(629,532,o),
(629,571,cs),
(629,586,o),
(624,600,o),
(615,611,cs),
(570,669,o),
(492,716,o),
(376,716,cs),
(113,716,o),
(30,512,o),
(30,350,cs),
(30,222,o),
(82,-20,o),
(376,-20,cs)
);
}
);
width = 690;
}
);
},
{
glyphname = a;
lastChange = "2021-06-08 19:50:05 +0000";
layers = (
{
background = {
shapes = (
{
attr = {
strokeWidth = 1;
};
closed = 0;
nodes = (
(96,402,l),
(96,420,o),
(117,516,o),
(267,516,c),
(404,516,o),
(439,439,o),
(439,361,c),
(439,360,o),
(441,151,o),
(441,71,c),
(441,10,o),
(495,10,o),
(495,10,c)
);
},
{
attr = {
strokeWidth = 1;
};
closed = 0;
nodes = (
(438,116,l),
(438,116,o),
(356,3,o),
(216,3,c),
(114,3,o),
(66,62,o),
(65,125,c),
(66,187,o),
(114,269,o),
(245,269,c),
(427,269,o),
(439,368,o),
(439,368,c)
);
},
{
closed = 1;
nodes = (
(388,307,ls),
(387,374,o),
(372,410,o),
(268,410,cs),
(129,410,o),
(179,341,o),
(111,341,cs),
(83,341,o),
(60,364,o),
(60,392,cs),
(60,449,o),
(152,514,o),
(268,514,cs),
(442,514,o),
(491,405,o),
(492,307,cs),
(494,136,ls),
(495,76,o),
(524,98,o),
(524,50,cs),
(524,19,o),
(504,-1,o),
(472,-1,cs),
(434,-1,o),
(409,20,o),
(409,51,c),
(390,97,l)
);
},
{
closed = 1;
nodes = (
(470,56,o),
(466,67,o),
(466,84,cs),
(467,373,l),
(464,424,o),
(435,514,o),
(280,514,cs),
(144,514,o),
(87,440,o),
(87,396,cs),
(87,374,o),
(101,367,o),
(117,367,cs),
(130,367,o),
(141,375,o),
(145,386,cs),
(154,413,o),
(186,454,o),
(278,454,cs),
(373,454,o),
(403,417,o),
(403,377,cs),
(403,328,o),
(348,303,o),
(263,299,cs),
(135,293,o),
(57,233,o),
(56,140,cs),
(55,54,o),
(119,0,o),
(226,0,cs),
(291,0,o),
(361,21,o),
(409,64,c),
(413,26,o),
(435,0,o),
(465,0,cs),
(486,0,o),
(496,13,o),
(496,26,cs),
(496,41,o),
(488,48,o),
(478,53,cs)
);
},
{
closed = 1;
nodes = (
(117,197,o),
(171,235,o),
(250,239,cs),
(322,243,o),
(373,250,o),
(405,281,c),
(406,135,l),
(360,84,o),
(301,60,o),
(235,60,cs),
(154,60,o),
(116,85,o),
(116,140,c)
);
},
{
closed = 1;
nodes = (
(1106,-1,o),
(1126,19,o),
(1126,50,cs),
(1126,87,o),
(1097,86,o),
(1096,136,cs),
(1094,307,ls),
(1093,431,o),
(1044,514,o),
(883,514,cs),
(751,514,o),
(682,445,o),
(682,392,cs),
(682,363,o),
(705,341,o),
(733,341,cs),
(801,341,o),
(751,410,o),
(883,410,cs),
(954,410,o),
(988,392,o),
(988,341,cs),
(988,317,o),
(921,313,o),
(853,307,cs),
(703,292,o),
(658,207,o),
(658,145,cs),
(658,77,o),
(714,0,o),
(820,0,cs),
(880,0,o),
(951,25,o),
(997,56,c),
(1010,11,o),
(1044,-1,o),
(1071,-1,cs)
);
},
{
closed = 1;
nodes = (
(762,182,o),
(807,200,o),
(859,211,cs),
(910,222,o),
(965,232,o),
(991,236,c),
(991,161,l),
(945,128,o),
(875,104,o),
(825,104,cs),
(788,104,o),
(762,114,o),
(762,145,cs)
);
},
{
closed = 1;
nodes = (
(291,0,o),
(361,21,o),
(405,64,c),
(418,18,o),
(429,0,o),
(468,0,cs),
(509,0,o),
(524,23,o),
(524,43,cs),
(524,68,o),
(512,79,o),
(502,88,cs),
(493,96,o),
(492,107,o),
(492,124,cs),
(492,348,ls),
(492,431,o),
(435,514,o),
(272,514,cs),
(124,514,o),
(68,436,o),
(68,392,cs),
(68,362,o),
(85,341,o),
(118,341,cs),
(147,341,o),
(151,363,o),
(167,380,cs),
(183,398,o),
(212,411,o),
(283,411,cs),
(339,411,o),
(388,395,o),
(388,362,cs),
(388,333,o),
(348,316,o),
(265,316,cs),
(126,316,o),
(36,254,o),
(36,156,cs),
(36,52,o),
(141,0,o),
(232,0,cs)
);
}
);
};
layerId = m01;
shapes = (
{
closed = 1;
nodes = (
(297,0,o),
(361,21,o),
(405,64,c),
(418,18,o),
(429,0,o),
(466,0,cs),
(509,0,o),
(524,23,o),
(524,47,cs),
(524,68,o),
(512,79,o),
(502,88,cs),
(493,96,o),
(492,107,o),
(492,124,cs),
(492,348,ls),
(492,431,o),
(435,514,o),
(276,514,cs),
(124,514,o),
(68,436,o),
(68,388,cs),
(68,362,o),
(85,341,o),
(119,341,cs),
(180,341,o),
(142,411,o),
(276,411,cs),
(339,411,o),
(388,395,o),
(388,362,cs),
(388,333,o),
(348,316,o),
(265,316,cs),
(126,316,o),
(35,254,o),
(35,159,cs),
(35,52,o),
(129,0,o),
(232,0,cs)
);
},
{
closed = 1;
nodes = (
(174,101,o),
(139,125,o),
(139,156,cs),
(139,194,o),
(191,212,o),
(255,216,cs),
(322,221,o),
(350,225,o),
(388,245,c),
(388,175,l),
(342,124,o),
(301,101,o),
(238,101,cs)
);
}
);
width = 564;
},
{
background = {
shapes = (
{
attr = {
strokeWidth = 1;
};
closed = 0;
nodes = (
(45,400,l),
(45,418,o),
(66,514,o),
(216,514,c),
(353,514,o),
(388,437,o),
(388,359,c),
(388,358,o),
(390,149,o),
(390,69,c),
(390,8,o),
(444,8,o),
(444,8,c)
);
},
{
attr = {
strokeWidth = 1;
};
closed = 0;
nodes = (
(387,114,l),
(387,114,o),
(305,1,o),
(165,1,c),
(63,1,o),
(15,60,o),
(14,123,c),
(15,185,o),
(63,267,o),
(194,267,c),
(376,267,o),
(388,366,o),
(388,366,c)
);
},
{
closed = 1;
nodes = (
(424,56,o),
(420,67,o),
(420,84,cs),
(420,164,o),
(418,337,o),
(418,338,cs),
(418,427,o),
(375,514,o),
(216,514,cs),
(88,514,o),
(40,451,o),
(23,407,cs),
(22,404,o),
(21,400,o),
(21,396,cs),
(21,380,o),
(35,367,o),
(51,367,cs),
(64,367,o),
(75,375,o),
(79,386,cs),
(88,413,o),
(120,454,o),
(216,454,cs),
(334,454,o),
(358,410,o),
(358,338,cs),
(358,337,o),
(360,164,o),
(360,84,cs),
(360,43,o),
(387,0,o),
(419,0,cs),
(440,0,o),
(450,13,o),
(450,26,cs),
(450,41,o),
(442,48,o),
(432,53,cs)
);
}
);
};
layerId = "877D6F36-AFBE-4448-AD1B-25E457939AA6";
shapes = (
{
closed = 1;
nodes = (
(269,0,o),
(335,21,o),
(383,64,c),
(387,26,o),
(409,0,o),
(439,0,cs),
(460,0,o),
(470,13,o),
(470,26,cs),
(470,41,o),
(462,48,o),
(452,53,cs),
(444,56,o),
(440,67,o),
(440,84,cs),
(441,340,ls),
(441,424,o),
(415,514,o),
(254,514,cs),
(106,514,o),
(61,437,o),
(61,396,cs),
(61,374,o),
(75,367,o),
(91,367,cs),
(130,367,o),
(103,454,o),
(252,454,cs),
(349,454,o),
(377,417,o),
(377,377,cs),
(377,346,o),
(356,307,o),
(237,299,cs),
(100,290,o),
(31,233,o),
(30,140,cs),
(29,54,o),
(90,0,o),
(200,0,cs)
);
},
{
closed = 1;
nodes = (
(128,60,o),
(90,85,o),
(90,137,cs),
(90,204,o),
(145,233,o),
(224,239,cs),
(306,245,o),
(345,249,o),
(378,275,c),
(380,135,l),
(334,84,o),
(275,60,o),
(202,60,cs)
);
}
);
width = 510;
},
{
background = {
shapes = (
{
closed = 1;
nodes = (
(279,0,o),
(331,21,o),
(375,64,c),
(388,18,o),
(431,-1,o),
(476,-1,cs),
(526,-1,o),
(560,23,o),
(560,51,cs),
(560,68,o),
(548,79,o),
(538,88,cs),
(529,96,o),
(528,107,o),
(528,124,cs),
(528,298,ls),
(528,441,o),
(468,514,o),
(270,514,cs),
(104,514,o),
(48,449,o),
(48,382,cs),
(48,343,o),
(66,324,o),
(102,324,cs),
(151,324,o),
(169,375,o),
(253,375,cs),
(349,375,o),
(358,353,o),
(358,333,cs),
(358,300,o),
(332,312,o),
(240,312,cs),
(96,312,o),
(0,260,o),
(0,163,cs),
(0,52,o),
(106,0,o),
(212,0,cs)
);
},
{
closed = 1;
nodes = (
(189,118,o),
(169,136,o),
(169,156,cs),
(169,183,o),
(210,204,o),
(253,204,cs),
(307,204,o),
(338,204,o),
(361,204,c),
(361,181,l),
(333,157,o),
(256,118,o),
(206,118,cs)
);
},
{
closed = 1;
nodes = (
(306,0,o),
(372,21,o),
(420,64,c),
(424,26,o),
(446,0,o),
(476,0,cs),
(497,0,o),
(507,13,o),
(507,26,cs),
(507,41,o),
(499,48,o),
(489,53,cs),
(481,56,o),
(477,67,o),
(477,84,cs),
(478,373,ls),
(478,424,o),
(452,514,o),
(291,514,cs),
(143,514,o),
(98,437,o),
(98,396,cs),
(98,374,o),
(112,367,o),
(128,367,cs),
(167,367,o),
(140,454,o),
(289,454,cs),
(384,454,o),
(414,417,o),
(414,377,cs),
(414,346,o),
(393,299,o),
(274,299,cs),
(146,299,o),
(68,233,o),
(67,140,cs),
(66,54,o),
(127,0,o),
(237,0,cs)
);
},
{
closed = 1;
nodes = (
(165,60,o),
(127,85,o),
(127,136,cs),
(127,197,o),
(182,239,o),
(261,239,cs),
(343,239,o),
(382,249,o),
(415,275,c),
(417,135,l),
(371,84,o),
(312,60,o),
(239,60,cs)
);
}
);
};
layerId = "D47B13D9-D7EB-4385-B3F1-1D14F737A65A";
shapes = (
{
closed = 1;
nodes = (
(314,0,o),
(364,21,o),
(408,64,c),
(421,18,o),
(439,-1,o),
(497,-1,cs),
(526,-1,o),
(560,18,o),
(560,44,cs),
(560,68,o),
(553,82,o),
(538,96,cs),
(530,103,o),
(528,119,o),
(528,136,cs),
(528,298,ls),
(528,441,o),
(468,514,o),
(286,514,cs),
(127,514,o),
(71,449,o),
(71,387,cs),
(71,353,o),
(89,333,o),
(133,333,cs),
(187,333,o),
(151,375,o),
(286,375,cs),
(349,375,o),
(365,357,o),
(365,337,cs),
(365,304,o),
(332,309,o),
(252,309,cs),
(133,309,o),
(35,260,o),
(35,169,cs),
(35,52,o),
(141,0,o),
(247,0,cs)
);
},
{
closed = 1;
nodes = (
(224,121,o),
(204,136,o),
(204,156,cs),
(204,183,o),
(219,195,o),
(288,195,cs),
(342,195,o),
(361,202,o),
(361,202,c),
(361,174,l),
(348,146,o),
(291,121,o),
(252,121,cs)
);
}
);
width = 600;
}
);
unicode = 97;
},
{
glyphname = b;
lastChange = "2021-06-08 19:38:30 +0000";
layers = (
{
background = {
shapes = (
{
attr = {
strokeWidth = 1;
};
closed = 1;
nodes = (
(509,116,o),
(442,0,o),
(310,0,c),
(195,0,o),
(109,82,o),
(109,258,c),
(109,443,o),
(195,516,o),
(310,516,c),
(440,516,o),
(509,400,o),
(509,258,c)
);
},
{
attr = {
strokeWidth = 1;
};
closed = 0;
nodes = (
(109,700,l),
(109,0,l)
);
}
);
};
guides = (
{
pos = (206,461);
}
);
layerId = m01;
shapes = (
{
closed = 1;
nodes = (
(205,102,o),
(154,160,o),
(154,252,cs),
(154,351,o),
(204,413,o),
(283,413,cs),
(346,413,o),
(387,352,o),
(387,260,cs),
(387,154,o),
(350,102,o),
(285,102,cs)
);
},
{
closed = 1;
nodes = (
(420,0,o),
(499,100,o),
(501,258,cs),
(503,405,o),
(420,514,o),
(301,514,cs),
(247.271,514,o),
(200.616,491.653,o),
(164,457.401,c),
(164,678,ls),
(164,707,o),
(141,730,o),
(112,730,cs),
(83,730,o),
(60,707,o),
(60,678,cs),
(60,52,ls),
(60,23,o),
(83,0,o),
(112,0,cs),
(141,0,o),
(164,23,o),
(164,52,cs),
(201.234,22.514,o),
(250.105,0,o),
(310,0,cs)
);
}
);
width = 541;
},
{
background = {
shapes = (
{
attr = {
strokeWidth = 1;
};
closed = 1;
nodes = (
(490,116,o),
(423,0,o),
(291,0,c),
(176,0,o),
(90,82,o),
(90,258,c),
(90,443,o),
(176,516,o),
(291,516,c),
(421,516,o),
(490,400,o),
(490,258,c)
);
},
{
attr = {
strokeWidth = 1;
};
closed = 0;
nodes = (
(90,700,l),
(90,0,l)
);
},
{
closed = 1;
nodes = (
(416,-10,o),
(495,112,o),
(495,258,cs),
(495,396,o),
(422,526,o),
(281,526,cs),
(218.219,526,o),
(160.638,502.734,o),
(120,454.341,c),
(120,703,ls),
(120,720,o),
(107,733,o),
(90,733,cs),
(73,733,o),
(60,720,o),
(60,703,cs),
(60,30,ls),
(60,13,o),
(73,0,o),
(90,0,cs),
(107,0,o),
(120,13,o),
(120,30,cs),
(120,65.139,l),
(160.476,15.851,o),
(217.881,-10,o),
(281,-10,cs)
);
}
);
};
layerId = "877D6F36-AFBE-4448-AD1B-25E457939AA6";
shapes = (
{
closed = 1;
nodes = (
(183,50,o),
(115,115,o),
(115,258,cs),
(115,409,o),
(182,466,o),
(275,466,cs),
(374,466,o),
(430,372,o),
(430,258,cs),
(430,144,o),
(376,50,o),
(276,50,cs)
);
},
{
closed = 1;
nodes = (
(416,-10,o),
(495,112,o),
(495,258,cs),
(495,396,o),
(422,526,o),
(281,526,cs),
(218.219,526,o),
(160.638,502.734,o),
(120,454.341,c),
(120,703,ls),
(120,720,o),
(107,733,o),
(90,733,cs),
(73,733,o),
(60,720,o),
(60,703,cs),
(60,30,ls),
(60,13,o),
(73,0,o),
(90,0,cs),
(116,0,o),
(120,10,o),
(120,65.139,c),
(160.476,15.851,o),
(217.881,-10,o),
(281,-10,cs)
);
}
);
width = 525;
},
{
layerId = "D47B13D9-D7EB-4385-B3F1-1D14F737A65A";
shapes = (
{
closed = 1;
nodes = (
(240,149,o),
(210,185,o),
(210,254,cs),
(210,327,o),
(242,364,o),
(298,364,cs),
(345,364,o),
(379,326,o),
(379,255,cs),
(379,185,o),
(343,147,o),
(293,148,cs)
);
},
{
closed = 1;
nodes = (
(439,0,o),
(554,114,o),
(554,268,cs),
(554,418,o),
(446,514,o),
(340,514,cs),
(294,514,o),
(254,499,o),
(220,476,c),
(220,642,ls),
(220,689,o),
(182,730,o),
(135,730,cs),
(88,730,o),
(50,689,o),
(50,642,cs),
(50,85,ls),
(50,39,o),
(88,0,o),
(135,0,cs),
(162,0,o),
(190,18,o),
(204,39,c),
(238,17,o),
(277,0,o),
(320,0,cs)
);
}
);
width = 594;
}
);
unicode = 98;
},
{
glyphname = c;
lastChange = "2021-06-08 19:07:48 +0000";
layers = (
{
layerId = m01;
shapes = (
{
closed = 1;
nodes = (
(388,34,o),
(412,0,o),
(456,0,cs),
(501,0,o),
(510,30,o),
(510,48,cs),
(510,93,o),
(478,65,o),
(478,112,cs),
(478,307,ls),
(478,417,o),
(424,514,o),
(268,514,cs),
(112,514,o),
(66,436,o),
(66,393,cs),
(66,362,o),
(91,341,o),
(124,341,cs),
(151,341,o),
(160,367,o),
(174,383,cs),
(190,401,o),
(220,414,o),
(267,414,cs),
(353,414,o),
(372,386,o),
(373,298,cs),
(374,153,l)
);
},
{
closed = 1;
nodes = (
(326,0,o),
(363,29,o),
(409,78,c),
(409,316,l),
(267,316,ls),
(126,316,o),
(40,244,o),
(40,159,cs),
(40,71,o),
(106,0,o),
(229,0,cs)
);
},
{
closed = 1;
nodes = (
(175,101,o),
(144,122,o),
(144,155,cs),
(144,194,o),
(184,216,o),
(292,216,cs),
(380,216,l),
(378,155,l),
(335,112,o),
(292,101,o),
(243,101,cs)
);
}
);
width = 550;
},
{
background = {
shapes = (
{
closed = 1;
nodes = (
(380,316,l),
(235,316,ls),
(117,316,o),
(20,255,o),
(20,161,cs),
(20,59,o),
(96,0,o),
(208,0,cs),
(258,0,o),
(327,13,o),
(385,64,c),
(385,25,o),
(408,0,o),
(446,0,cs),
(491,0,o),
(500,30,o),
(500,48,cs),
(500,93,o),
(468,77,o),
(468,124,cs),
(468,307,ls),
(468,417,o),
(414,514,o),
(258,514,cs),
(110,514,o),
(46,436,o),
(46,391,cs),
(46,362,o),
(71,341,o),
(104,341,cs),
(131,341,o),
(140,367,o),
(154,383,cs),
(170,401,o),
(200,411,o),
(257,411,cs),
(343,411,o),
(362,386,o),
(363,298,cs),
(364,169,l),
(318,118,o),
(277,101,o),
(224,101,cs),
(158,101,o),
(123,125,o),
(123,154,cs),
(123,191,o),
(176,216,o),
(236,216,cs),
(380,216,l)
);
},
{
closed = 1;
nodes = (
(1478,34,o),
(1502,0,o),
(1546,0,cs),
(1591,0,o),
(1600,30,o),
(1600,48,cs),
(1600,93,o),
(1568,77,o),
(1568,124,cs),
(1568,307,ls),
(1568,417,o),
(1514,514,o),
(1358,514,cs),
(1210,514,o),
(1146,436,o),
(1146,391,cs),
(1146,362,o),
(1171,341,o),
(1204,341,cs),
(1231,341,o),
(1240,367,o),
(1254,383,cs),
(1270,401,o),
(1300,411,o),
(1357,411,cs),
(1443,411,o),
(1462,386,o),
(1463,298,cs),
(1464,153,l)
);
},
{
closed = 1;
nodes = (
(1478,185,l),
(1426,122,o),
(1382,101,o),
(1324,101,cs),
(1258,101,o),
(1223,125,o),
(1223,154,cs),
(1223,191,o),
(1276,216,o),
(1336,216,cs),
(1480,216,l),
(1480,316,l),
(1335,316,ls),
(1217,316,o),
(1120,255,o),
(1120,161,cs),
(1120,59,o),
(1196,0,o),
(1308,0,cs),
(1362,0,o),
(1439,15,o),
(1499,78,c)
);
}
);
};
layerId = "877D6F36-AFBE-4448-AD1B-25E457939AA6";
shapes = (
{
closed = 1;
nodes = (
(380,30,o),
(404,0,o),
(439,0,cs),
(460,0,o),
(470,13,o),
(470,26,cs),
(470,63,o),
(440,35,o),
(440,84,cs),
(441,373,ls),
(441,424,o),
(409,514,o),
(254,514,cs),
(118,514,o),
(61,440,o),
(61,396,cs),
(61,374,o),
(75,367,o),
(91,367,cs),
(104,367,o),
(115,375,o),
(119,386,cs),
(128,413,o),
(160,454,o),
(252,454,cs),
(347,454,o),
(377,417,o),
(377,377,cs),
(380,119,l)
);
},
{
closed = 1;
nodes = (
(270,0,o),
(346,25,o),
(394,75,c),
(394,307,l),
(251,306,ls),
(112,305,o),
(30,239,o),
(30,145,cs),
(30,60,o),
(94,0,o),
(201,0,cs)
);
},
{
closed = 1;
nodes = (
(128,60,o),
(90,96,o),
(90,147,cs),
(90,208,o),
(145,249,o),
(235,249,cs),
(389,249,l),
(389,148,l),
(342,88,o),
(280,60,o),
(209,60,cs)
);
}
);
width = 510;
},
{
layerId = "D47B13D9-D7EB-4385-B3F1-1D14F737A65A";
shapes = (
{
closed = 1;
nodes = (
(375,34,o),
(377,0,o),
(470,0,cs),
(554,0,o),
(563,30,o),
(563,48,cs),
(563,93,o),
(531,77,o),
(531,124,cs),
(531,308,ls),
(531,425,o),
(436,514,o),
(302,514,cs),
(95,514,o),
(63,436,o),
(63,391,cs),
(63,355,o),
(84,315,o),
(135,315,cs),
(148,315,o),
(160,319,o),
(171,326,cs),
(199,344,o),
(217,379,o),
(277,379,cs),
(347,379,o),
(361,343,o),
(361,298,cs),
(361,153,l)
);
},
{
closed = 1;
nodes = (
(318,0,o),
(350,26,o),
(398,70,c),
(398,300,l),
(264,300,ls),
(101,300,o),
(30,258,o),
(30,161,cs),
(30,60,o),
(101,0,o),
(230,0,cs)
);
},
{
closed = 1;
nodes = (
(218,115,o),
(200,126,o),
(200,156,cs),
(200,175,o),
(227,199,o),
(313,199,cs),
(365,199,l),
(366,170,l),
(337,133,o),
(308,115,o),
(267,115,cs)
);
}
);
width = 603;
}
);
unicode = 99;
},
{
glyphname = d;
lastChange = "2021-05-31 21:46:19 +0000";
layers = (
{
layerId = m01;
width = 660;
},
{
layerId = "877D6F36-AFBE-4448-AD1B-25E457939AA6";
width = 720;
},
{
background = {
shapes = (
{
closed = 1;
nodes = (
(134,356,o),
(174,414,o),
(243,414,cs),
(315,414,o),
(357,356,o),
(357,260,cs),
(357,160,o),
(315,100,o),
(248,100,cs),
(174,100,o),
(134,160,o),
(134,260,cs)
);
},
{
closed = 1;
nodes = (
(30,123,o),
(97,0,o),
(230,0,cs),
(364,0,o),
(455,132,o),
(455,259,cs),
(455,386,o),
(364,514,o),
(229,514,cs),
(103,514,o),
(30,403,o),
(30,259,cs)
);
},
{
closed = 1;
nodes = (
(357,23,o),
(380,0,o),
(409,0,cs),
(438,0,o),
(461,23,o),
(461,52,cs),
(461,678,ls),
(461,707,o),
(438,730,o),
(409,730,cs),
(380,730,o),
(357,707,o),
(357,678,cs),
(357,52,ls)
);
}
);
};
layerId = "D47B13D9-D7EB-4385-B3F1-1D14F737A65A";
width = 511;
}
);
unicode = 100;
},
{
glyphname = e;
lastChange = "2021-06-08 19:50:02 +0000";
layers = (
{
background = {
shapes = (
{
attr = {
strokeWidth = 1;
};
closed = 0;
nodes = (
(1062,111,l),
(1062,77,o),
(975,0,o),
(864,0,c),
(743,0,o),
(647,94,o),
(647,260,c),
(647,400,o),
(742,515,o),
(864,515,c),
(986,515,o),
(1082,412,o),
(1082,279,c)
);
},
{
closed = 0;
nodes = (
(1038,273,ls),
(1044,364,o),
(974,461,o),
(866,461,cs),
(761,461,o),
(686,371,o),
(686,256,cs),
(686,132,o),
(752,45,o),
(866,45,cs),
(936,45,o),
(993,77,o),
(1030,142,c)
);
},
{
closed = 0;
nodes = (
(1013,270,ls),
(1018,348,o),
(958,431,o),
(866,431,cs),
(776,431,o),
(712,354,o),
(712,256,cs),
(712,149,o),
(768,75,o),
(866,75,cs),
(926,75,o),
(975,102,o),
(1006,158,c)
);
},
{
attr = {
strokeWidth = 1;
};
closed = 0;
nodes = (
(1082,279,l),
(648,279,l)
);
},
{
closed = 1;
nodes = (
(939,115,o),
(910,104,o),
(866,104,cs),
(778,104,o),
(738,156,o),
(738,257,cs),
(738,353,o),
(785,410,o),
(866,410,cs),
(934,410,o),
(976,368,o),
(985,312,c),
(1086,330,l),
(1066,427,o),
(983,514,o),
(866,514,cs),
(730,514,o),
(634,399,o),
(634,257,cs),
(634,114,o),
(720,0,o),
(866,0,cs),
(935,0,o),
(996,26,o),
(1042,77,cs),
(1050,86,o),
(1055,98,o),
(1055,111,cs),
(1055,140,o),
(1032,163,o),
(1003,163,cs),
(988,163,o),
(974,156,o),
(964,144,cs)
);
},
{
closed = 1;
nodes = (
(849,483,l),
(879,483,l),
(879,513,l),
(849,513,l)
);
},
{
closed = 1;
nodes = (
(831,461,l),
(883,461,l),
(883,513,l),
(831,513,l)
);
},
{
closed = 1;
nodes = (
(816,430,l),
(901,430,l),
(901,515,l),
(816,515,l)
);
}
);
};
layerId = m01;
shapes = (
{
closed = 1;
nodes = (
(351,-10,o),
(408,16,o),
(454,67,cs),
(462,76,o),
(467,88,o),
(467,101,cs),
(467,130,o),
(444,153,o),
(415,153,cs),
(400,153,o),
(386,146,o),
(376,134,cs),
(351,105,o),
(322,93,o),
(275,93,cs),
(180,93,o),
(140,144,o),
(138,247,c),
(138,306,l),
(138,380,o),
(195,417,o),
(261,417,cs),
(327,417,o),
(375,371,o),
(375,321,c),
(123,321,l),
(123,228,l),
(427,228,ls),
(456,228,o),
(479,248,o),
(479,280,c),
(490,407,o),
(394,514,o),
(261,514,cs),
(125,514,o),
(35,406,o),
(35,257,cs),
(35,104,o),
(113,-10,o),
(273,-10,cs)
);
}
);
width = 515;
},
{
layerId = "877D6F36-AFBE-4448-AD1B-25E457939AA6";
shapes = (
{
closed = 1;
nodes = (
(337,0,o),
(403,33,o),
(450,97,cs),
(453,102,o),
(455,108,o),
(455,114,cs),
(455,131,o),
(442,144,o),
(425,144,cs),
(415,144,o),
(406,139,o),
(401,132,cs),
(366,82,o),
(320,60,o),
(259,60,cs),
(144,60,o),
(86,142,o),
(90,269,c),
(90,292,l),
(104,389,o),
(168,454,o),
(253,454,cs),
(340,454,o),
(400,386,o),
(407,308,c),
(76,308,l),
(76,251,l),
(436,251,ls),
(453,251,o),
(466,264,o),
(466,281,cs),
(466,420,o),
(374,514,o),
(253,514,cs),
(125,514,o),
(30,406,o),
(30,257,cs),
(30,113,o),
(108,0,o),
(259,0,cs)
);
}
);
width = 496;
},
{
background = {
shapes = (
{
closed = 1;
nodes = (
(446,12,o),
(481,29,qs),
(509,42,o),
(528,91,o),
(513,138,o),
(469,161,o),
(437,149,qs),
(411,138,o),
(353,128,o),
(332,128,qs),
(277,128,o),
(215,170,o),
(206,218,q),
(491,218,ls),
(537,218,o),
(537,257,qs),
(537,334,o),
(478,449,o),
(369,511,o),
(295,511,qs),
(220,511,o),
(103,446,o),
(36,330,o),
(36,255,qs),
(36,176,o),
(106,60,o),
(237,-3,o),
(327,-3,qs),
(367,-3,o)
);
},
{
closed = 1;
nodes = (
(388,349,o),
(391,302,q),
(205,302,l),
(212,348,o),
(263,396,o),
(303,396,qs),
(343,396,o)
);
}
);
};
layerId = "D47B13D9-D7EB-4385-B3F1-1D14F737A65A";
shapes = (
{
closed = 1;
nodes = (
(383,-10,o),
(455,8,o),
(496,41,cs),
(514,55,o),
(525,73,o),
(525,93,cs),
(525,128,o),
(506,161,o),
(462,161,cs),
(442,161,o),
(432,155,o),
(421,147,cs),
(403,134,o),
(384,116,o),
(319,116,cs),
(241,116,o),
(204,156,o),
(196,211,c),
(196,286,l),
(196,332,o),
(227,379,o),
(291,379,cs),
(342,379,o),
(386,349,o),
(386,305,c),
(180,304,l),
(178,200,l),
(445,200,ls),
(500,200,o),
(533,232,o),
(533,286,cs),
(533,412,o),
(450,516,o),
(302,516,cs),
(132,516,o),
(35,406,o),
(35,246,cs),
(35,81,o),
(151,-10,o),
(321,-10,cs)
);
}
);
width = 586;
}
);
unicode = 101;
},
{
glyphname = h;
lastChange = "2021-06-08 18:42:11 +0000";
layers = (
{
background = {
shapes = (
{
closed = 1;
nodes = (
(-76,224,ls),
(-76,371,o),
(-107,512,o),
(-263,512,cs),
(-384,512,o),
(-483,439,o),
(-492,257,c),
(-434,255,l),
(-434,404,o),
(-360,452,o),
(-263,452,cs),
(-157,452,o),
(-136,363,o),
(-136,224,cs),
(-136,30,ls),
(-136,13,o),
(-123,0,o),
(-106,0,cs),
(-89,0,o),
(-76,13,o),
(-76,30,cs)
);
},
{
closed = 1;
nodes = (
(-434,702,ls),
(-434,719,o),
(-447,732,o),
(-464,732,cs),
(-481,732,o),
(-494,719,o),
(-494,702,cs),
(-494,30,ls),
(-494,13,o),
(-481,0,o),
(-464,0,cs),
(-447,0,o),
(-434,13,o),
(-434,30,cs)
);
},
{
closed = 1;
nodes = (
(490,270,ls),
(490,424,o),
(432,512,o),
(311,512,cs),
(171,512,o),
(82,416,o),
(74,257,c),
(132,255,l),
(132,404,o),
(217,452,o),
(309,452,cs),
(398,452,o),
(430,393,o),
(430,256,cs),
(430,30,ls),
(430,13,o),
(443,0,o),
(460,0,cs),
(477,0,o),
(490,13,o),
(490,30,cs)
);
},
{
closed = 1;
nodes = (
(132,702,ls),
(132,719,o),
(119,732,o),
(102,732,cs),
(85,732,o),
(72,719,o),
(72,702,cs),
(72,30,ls),
(72,13,o),
(85,0,o),
(102,0,cs),
(119,0,o),
(132,13,o),
(132,30,cs)
);
},
{
closed = 1;
nodes = (
(512,427,o),
(426,512,o),
(309,512,cs),
(171,512,o),
(82,416,o),
(74,257,c),
(154,234,l),
(154,369,o),
(217,409,o),
(309,408,cs),
(380,407,o),
(408,353,o),
(408,226,cs),
(408,52,ls),
(408,23,o),
(431,0,o),
(460,0,cs),
(489,0,o),
(512,23,o),
(512,52,cs),
(512,243,ls)
);
},
{
closed = 1;
nodes = (
(154,679,ls),
(154,708,o),
(131,731,o),
(102,731,cs),
(73,731,o),
(50,708,o),
(50,679,cs),
(50,52,ls),
(50,23,o),
(73,0,o),
(102,0,cs),
(131,0,o),
(154,23,o),
(154,52,cs)
);
},
{
closed = 1;
nodes = (
(787,646,ls),
(787,692,o),
(749,731,o),
(702,731,cs),
(655,731,o),
(617,692,o),
(617,646,cs),
(617,86,ls),
(617,39,o),
(655,0,o),
(702,0,cs),
(749,0,o),
(787,39,o),
(787,86,cs)
);
},
{
closed = 1;
nodes = (
(1112,411,o),
(1036,512,o),
(909,512,cs),
(771,512,o),
(682,416,o),
(674,257,c),
(754,234,l),
(754,353,o),
(804,409,o),
(896,408,cs),
(983,407,o),
(1008,353,o),
(1008,226,cs),
(1008,52,ls),
(1008,23,o),
(1031,0,o),
(1060,0,cs),
(1089,0,o),
(1112,23,o),
(1112,52,cs),
(1112,248,ls)
);
},
{
closed = 1;
nodes = (
(754,679,ls),
(754,708,o),
(731,731,o),
(702,731,cs),
(673,731,o),
(650,708,o),
(650,679,cs),
(650,52,ls),
(650,23,o),
(673,0,o),
(702,0,cs),
(731,0,o),
(754,23,o),
(754,52,cs)
);
}
);
};
layerId = m01;
shapes = (
{
closed = 1;
nodes = (
(131,0,o),
(154,25,o),
(154,54,cs),
(154,681,ls),
(154,710,o),
(131,731,o),
(102,731,cs),
(73,731,o),
(50,708,o),
(50,679,cs),
(50,52,ls),
(50,23,o),
(73,0,o),
(102,0,cs)
);
},
{
closed = 1;
nodes = (
(154,242,l),
(154,356,o),
(184,414,o),
(279,413,cs),
(360,412,o),
(390,356,o),
(389,249,cs),
(388,52,ls),
(388,23,o),
(411,0,o),
(440,0,cs),
(469,0,o),
(492,23,o),
(492,52,cs),
(492,266,ls),
(492,413,o),
(416,514,o),
(285,514,cs),
(151,514,o),
(82,418,o),
(74,259,c)
);
}
);
width = 537;
},
{
layerId = "877D6F36-AFBE-4448-AD1B-25E457939AA6";
shapes = (
{
closed = 1;
nodes = (
(97,0,o),
(110,13,o),
(110,30,cs),
(110,702,ls),
(110,719,o),
(97,732,o),
(80,732,cs),
(63,732,o),
(50,719,o),
(50,702,cs),
(50,30,ls),
(50,13,o),
(63,0,o),
(80,0,cs)
);
},
{
closed = 1;
nodes = (
(110,257,l),
(110,406,o),
(195,454,o),
(280,454,cs),
(376,454,o),
(408,395,o),
(408,258,cs),
(408,30,ls),
(408,13,o),
(421,0,o),
(438,0,cs),
(455,0,o),
(468,13,o),
(468,30,cs),
(468,272,ls),
(468,426,o),
(410,514,o),
(283,514,cs),
(149,514,o),
(60,418,o),
(52,259,c)
);
}
);
width = 513;
},
{
layerId = "D47B13D9-D7EB-4385-B3F1-1D14F737A65A";
shapes = (
{
closed = 1;
nodes = (
(182,0,o),
(220,39,o),
(220,86,cs),
(220,646,ls),
(220,692,o),
(182,731,o),
(135,731,cs),
(88,731,o),
(50,692,o),
(50,646,cs),
(50,86,ls),
(50,39,o),
(88,0,o),
(135,0,cs)
);
},
{
closed = 1;
nodes = (
(220,227,l),
(220,308,o),
(249,356,o),
(315,356,cs),
(367,356,o),
(398,320,o),
(398,261,cs),
(398,86,ls),
(398,39,o),
(436,0,o),
(483,0,cs),
(530,0,o),
(568,39,o),
(568,86,cs),
(568,240,ls),
(568,371,o),
(517,514,o),
(332,514,cs),
(194,514,o),
(71,379,o),
(71,210,c)
);
}
);
width = 608;
}
);
unicode = 104;
},
{
glyphname = i;
lastChange = "2021-06-08 19:48:18 +0000";
layers = (
{
background = {
shapes = (
{
attr = {
strokeWidth = 1;
};
closed = 0;
nodes = (
(99,506,l),
(99,0,l)
);
},
{
attr = {
strokeWidth = 1;
};
closed = 0;
nodes = (
(99,700,l),
(99,681,l)
);
}
);
};
layerId = m01;
shapes = (
{
closed = 1;
nodes = (
(130,0,o),
(154,23,o),
(154,52,cs),
(154,462,ls),
(154,490,o),
(130,514,o),
(102,514,cs),
(73,514,o),
(50,490,o),
(50,462,cs),
(50,52,ls),
(50,23,o),
(73,0,o),
(102,0,cs)
);
},
{
closed = 1;
nodes = (
(130,595,o),
(154,618,o),
(154,647,cs),
(154,656,ls),
(154,685,o),
(130,708,o),
(102,708,cs),
(73,708,o),
(50,685,o),
(50,656,cs),
(50,647,ls),
(50,618,o),
(73,595,o),
(102,595,cs)
);
}
);
width = 204;
},
{
layerId = "877D6F36-AFBE-4448-AD1B-25E457939AA6";
shapes = (
{
closed = 1;
nodes = (
(104,0,o),
(117,13,o),
(117,30,cs),
(117,484,ls),
(117,501,o),
(104,514,o),
(87,514,cs),
(70,514,o),
(57,501,o),
(57,484,cs),
(57,30,ls),
(57,13,o),
(70,0,o),
(87,0,cs)
);
},
{
closed = 1;
nodes = (
(108,629,o),
(124,642,o),
(124,659,cs),
(124,678,ls),
(124,695,o),
(108,708,o),
(87,708,cs),
(66,708,o),
(50,695,o),
(50,678,cs),
(50,659,ls),
(50,642,o),
(66,629,o),
(87,629,cs)
);
}
);
width = 174;
},
{
layerId = "D47B13D9-D7EB-4385-B3F1-1D14F737A65A";
shapes = (
{
closed = 1;
nodes = (
(193,0,o),
(231,38,o),
(231,85,cs),
(231,429,ls),
(231,476,o),
(193,514,o),
(146,514,cs),
(99,514,o),
(61,476,o),
(61,429,cs),
(61,85,ls),
(61,38,o),
(99,0,o),
(146,0,cs)
);
},
{
closed = 1;
nodes = (
(199,551,o),
(241,591,o),
(241,642,cs),
(241,646,ls),
(241,697,o),
(199,738,o),
(146,738,cs),
(93,738,o),
(50,697,o),
(50,646,cs),
(50,642,ls),
(50,591,o),
(93,551,o),
(146,551,cs)
);
}
);
width = 291;
}
);
unicode = 105;
},
{
glyphname = k;
lastChange = "2021-06-03 17:19:56 +0000";
layers = (
{
background = {
shapes = (
{
attr = {
strokeWidth = 1;
};
closed = 0;
nodes = (
(97,700,l),
(97,0,l)
);
},
{
attr = {
strokeWidth = 1;
};
closed = 0;
nodes = (
(412,495,l),
(412,495,o),
(97,235,o),
(97,222,c)
);
},
{
attr = {
strokeWidth = 1;
};
closed = 0;
nodes = (
(231,343,l),
(478,0,l)
);
},
{
closed = 1;
nodes = (
(117,0,o),
(130,13,o),
(130,30,cs),
(130,700,ls),
(130,717,o),
(117,730,o),
(100,730,cs),
(83,730,o),
(70,717,o),
(70,700,cs),
(70,30,ls),
(70,13,o),
(83,0,o),
(100,0,cs)
);
},
{
closed = 1;
nodes = (
(424,463,ls),
(430,469,o),
(433,476,o),
(433,484,cs),
(433,500,o),
(420,514,o),
(403,514,cs),
(395,514,o),
(387,510,o),
(382,505,cs),
(98,261,l),
(98,177,l)
);
},
{
closed = 1;
nodes = (
(436,13,ls),
(442,5,o),
(451,0,o),
(461,0,cs),
(477,0,o),
(491,14,o),
(491,30,cs),
(491,37,o),
(489,43,o),
(485,48,cs),
(263,362,l),
(218,321,l)
);
},
{
closed = 1;
nodes = (
(131,0,o),
(154,23,o),
(154,52,cs),
(154,678,ls),
(154,707,o),
(131,730,o),
(102,730,cs),
(73,730,o),
(50,707,o),
(50,678,cs),
(50,52,ls),
(50,23,o),
(73,0,o),
(102,0,cs)
);
},
{
closed = 1;
nodes = (
(436,425,ls),
(446,433,o),
(451,447,o),
(451,462,cs),
(451,490,o),
(428,514,o),
(399,514,cs),
(385,514,o),
(373,507,o),
(362,498,cs),
(88,269,l),
(118,152,l)
);
},
{
closed = 1;
nodes = (
(401,22,ls),
(410,9,o),
(426,0,o),
(443,0,cs),
(472,0,o),
(494,24,o),
(494,52,cs),
(494,64,o),
(491,74,o),
(485,83,cs),
(266,386,l),
(198,302,l)
);
}
);
};
layerId = m01;
shapes = (
{
closed = 1;
nodes = (
(131,0,o),
(154,23,o),
(154,52,cs),
(154,678,ls),
(154,707,o),
(131,730,o),
(102,730,cs),
(73,730,o),
(50,707,o),
(50,678,cs),
(50,52,ls),
(50,23,o),
(73,0,o),
(102,0,cs)
);
},
{
closed = 1;
nodes = (
(419,426,ls),
(428,435,o),
(433,449,o),
(432,464,cs),
(431,492,o),
(408,515,o),
(379,514,cs),
(365,514,o),
(353,506,o),
(342,497,cs),
(77,258,l),
(111,142,l)
);
},
{
closed = 1;
nodes = (
(472,0,o),
(494,24,o),
(494,52,cs),
(494,64,o),
(491,74,o),
(485,83,cs),
(266,386,l),
(198,302,l),
(401,22,ls),
(410,9,o),
(426,0,o),
(443,0,cs)
);
}
);
width = 514;
},
{
background = {
shapes = (
{
attr = {
strokeWidth = 1;
};
closed = 0;
nodes = (
(81,700,l),
(81,0,l)
);
},
{
attr = {
strokeWidth = 1;
};
closed = 0;
nodes = (
(396,495,l),
(396,495,o),
(81,235,o),
(81,222,c)
);
},
{
attr = {
strokeWidth = 1;
};
closed = 0;
nodes = (
(215,343,l),
(462,0,l)
);
}
);
};
layerId = "877D6F36-AFBE-4448-AD1B-25E457939AA6";
shapes = (
{
closed = 1;
nodes = (
(97,0,o),
(110,13,o),
(110,30,cs),
(110,700,ls),
(110,717,o),
(97,730,o),
(80,730,cs),
(63,730,o),
(50,717,o),
(50,700,cs),
(50,30,ls),
(50,13,o),
(63,0,o),
(80,0,cs)
);
},
{
closed = 1;
nodes = (
(394,454,ls),
(400,460,o),
(403,467,o),
(403,475,cs),
(403,491,o),
(390,505,o),
(373,505,cs),
(365,505,o),
(357,501,o),
(352,496,cs),
(78,261,l),
(78,177,l)
);
},
{
closed = 1;
nodes = (
(457,0,o),
(471,14,o),
(471,30,cs),
(471,37,o),
(469,43,o),
(465,48,cs),
(243,362,l),
(198,321,l),
(416,13,ls),
(422,5,o),
(431,0,o),
(441,0,cs)
);
}
);
width = 501;
},
{
background = {
shapes = (
{
attr = {
strokeWidth = 1;
};
closed = 0;
nodes = (
(146,700,l),
(146,0,l)
);
},
{
attr = {
strokeWidth = 1;
};
closed = 0;
nodes = (
(461,495,l),
(461,495,o),
(146,235,o),
(146,222,c)
);
},
{
attr = {
strokeWidth = 1;
};
closed = 0;
nodes = (
(280,343,l),
(527,0,l)
);
}
);
};
layerId = "D47B13D9-D7EB-4385-B3F1-1D14F737A65A";
shapes = (
{
closed = 1;
nodes = (
(182,0,o),
(220,39,o),
(220,86,cs),
(220,645,ls),
(220,691,o),
(182,730,o),
(135,730,cs),
(88,730,o),
(50,691,o),
(50,645,cs),
(50,86,ls),
(50,39,o),
(88,0,o),
(135,0,cs)
);
},
{
closed = 1;
nodes = (
(462,375,ls),
(477,388,o),
(483,412,o),
(482,435,cs),
(478,482,o),
(437,514,o),
(391,514,cs),
(368,514,o),
(350,500,o),
(333,484,cs),
(113,287,l),
(177,121,l)
);
},
{
closed = 1;
nodes = (
(507,0,o),
(545,38,o),
(545,85,cs),
(545,103,o),
(540,120,o),
(530,134,cs),
(340,409,l),
(210,296,l),
(391,35,ls),
(406,13,o),
(432,0,o),
(460,0,cs)
);
}
);
width = 575;
}
);
unicode = 107;
},
{
glyphname = l;
lastChange = "2021-06-08 19:47:45 +0000";
layers = (
{
layerId = m01;
shapes = (
{
closed = 1;
nodes = (
(131,0,o),
(154,25,o),
(154,54,cs),
(154,681,ls),
(154,710,o),
(131,731,o),
(102,731,cs),
(73,731,o),
(50,708,o),
(50,679,cs),
(50,52,ls),
(50,23,o),
(73,0,o),
(102,0,cs)
);
}
);
width = 204;
},
{
layerId = "877D6F36-AFBE-4448-AD1B-25E457939AA6";
shapes = (
{
closed = 1;
nodes = (
(97,0,o),
(110,13,o),
(110,30,cs),
(110,702,ls),
(110,719,o),
(97,732,o),
(80,732,cs),
(63,732,o),
(50,719,o),
(50,702,cs),
(50,30,ls),
(50,13,o),
(63,0,o),
(80,0,cs)
);
}
);
width = 160;
},
{
layerId = "D47B13D9-D7EB-4385-B3F1-1D14F737A65A";
shapes = (
{
closed = 1;
nodes = (
(182,0,o),
(220,39,o),
(220,86,cs),
(220,646,ls),
(220,692,o),
(182,731,o),
(135,731,cs),
(88,731,o),
(50,692,o),
(50,646,cs),
(50,86,ls),
(50,39,o),
(88,0,o),
(135,0,cs)
);
}
);
width = 270;
}
);
unicode = 108;
},
{
glyphname = m;
lastChange = "2021-06-08 18:42:34 +0000";
layers = (
{
background = {
shapes = (
{
attr = {
strokeWidth = 1;
};
closed = 0;
nodes = (
(-902,512,l),
(-902,0,l)
);
},
{
attr = {
strokeWidth = 1;
};
closed = 0;
nodes = (
(-566,383,l),
(-566,0,l)
);
},
{
attr = {
strokeWidth = 1;
};
closed = 0;
nodes = (
(-232,388,l),
(-232,0,l)
);
},
{
attr = {
strokeWidth = 1;
};
closed = 0;
nodes = (
(-902,403,l),
(-902,453,o),
(-781,524,o),
(-725,524,c),
(-646,524,o),
(-566,458,o),
(-566,385,c)
);
},
{
attr = {
strokeWidth = 1;
};
closed = 0;
nodes = (
(-567,383,l),
(-567,442,o),
(-456,524,o),
(-393,524,c),
(-299,524,o),
(-232,447,o),
(-232,388,c)
);
},
{
closed = 0;
nodes = (
(144,252,ls),
(144,351,o),
(194,413,o),
(273,413,cs),
(336,413,o),
(377,352,o),
(377,260,cs)
);
},
{
closed = 0;
nodes = (
(491,258,ls),
(493,405,o),
(410,514,o),
(291,514,cs),
(237,514,o),
(191,492,o),
(154,457,c),
(154,678,ls),
(154,707,o),
(131,730,o),
(102,730,cs),
(73,730,o),
(50,707,o),
(50,678,cs)
);
}
);
};
layerId = m01;
shapes = (
{
closed = 1;
nodes = (
(131,0,o),
(154,25,o),
(154,54,cs),
(154,465,ls),
(154,493,o),
(131,514,o),
(102,514,cs),
(73,514,o),
(50,491,o),
(50,463,cs),
(50,52,ls),
(50,23,o),
(73,0,o),
(102,0,cs)
);
},
{
closed = 1;
nodes = (
(154,266,l),
(154,366,o),
(201,413,o),
(279,413,cs),
(360,413,o),
(388,356,o),
(388,249,cs),
(388,52,ls),
(388,23,o),
(411,0,o),
(440,0,cs),
(469,0,o),
(492,23,o),
(492,52,cs),
(492,266,ls),
(492,413,o),
(416,514,o),
(295,514,cs),
(151,514,o),
(74,383,o),
(66,254,c)
);
},
{
closed = 1;
nodes = (
(492,266,l),
(492,366,o),
(539,413,o),
(617,413,cs),
(698,413,o),
(726,356,o),
(726,249,cs),
(726,52,ls),
(726,23,o),
(749,0,o),
(778,0,cs),
(807,0,o),
(830,23,o),
(830,52,cs),
(830,266,ls),
(830,413,o),
(754,514,o),
(633,514,cs),
(489,514,o),
(412,418,o),
(404,259,c)
);
}
);
width = 875;
},
{
layerId = "877D6F36-AFBE-4448-AD1B-25E457939AA6";
shapes = (
{
closed = 1;
nodes = (
(97,0,o),
(110,13,o),
(110,30,cs),
(110,483,ls),
(110,500,o),
(97,513,o),
(80,513,cs),
(63,513,o),
(50,500,o),
(50,483,cs),
(50,30,ls),
(50,13,o),
(63,0,o),
(80,0,cs)
);
},
{
closed = 1;
nodes = (
(110,257,l),
(110,406,o),
(171,454,o),
(263,454,cs),
(352,454,o),
(384,395,o),
(384,258,cs),
(384,30,ls),
(384,13,o),
(397,0,o),
(414,0,cs),
(431,0,o),
(444,13,o),
(444,30,cs),
(444,272,ls),
(444,426,o),
(386,514,o),
(265,514,cs),
(145,514,o),
(60,418,o),
(52,259,c)
);
},
{
closed = 1;
nodes = (
(444,257,l),
(444,406,o),
(505,454,o),
(597,454,cs),
(686,454,o),
(718,395,o),
(718,258,cs),
(718,30,ls),
(718,13,o),
(731,0,o),
(748,0,cs),
(765,0,o),
(778,13,o),
(778,30,cs),
(778,272,ls),
(778,426,o),
(720,514,o),
(599,514,cs),
(479,514,o),
(394,418,o),
(386,259,c)
);
}
);
width = 823;
},
{
layerId = "D47B13D9-D7EB-4385-B3F1-1D14F737A65A";
shapes = (
{
closed = 1;
nodes = (
(182,0,o),
(220,39,o),
(220,86,cs),
(221,429,ls),
(221,475,o),
(183,514,o),
(136,514,cs),
(89,514,o),
(51,475,o),
(51,429,cs),
(50,86,ls),
(50,39,o),
(88,0,o),
(135,0,cs)
);
},
{
closed = 1;
nodes = (
(220,227,l),
(220,308,o),
(249,356,o),
(315,356,cs),
(357,356,o),
(388,320,o),
(388,261,cs),
(388,86,ls),
(388,39,o),
(426,0,o),
(473,0,cs),
(520,0,o),
(558,39,o),
(558,86,cs),
(558,240,ls),
(558,371,o),
(507,514,o),
(332,514,cs),
(194,514,o),
(71,379,o),
(71,210,c)
);
},
{
closed = 1;
nodes = (
(558,227,l),
(558,308,o),
(583,356,o),
(649,356,cs),
(691,356,o),
(722,320,o),
(722,261,cs),
(722,86,ls),
(722,39,o),
(760,0,o),
(807,0,cs),
(854,0,o),
(892,39,o),
(892,86,cs),
(892,240,ls),
(892,371,o),
(841,514,o),
(666,514,cs),
(528,514,o),
(405,379,o),
(405,210,c)
);
}
);
width = 937;
}
);
unicode = 109;
},
{
glyphname = n;
lastChange = "2021-06-08 19:37:14 +0000";
layers = (
{
background = {
shapes = (
{
closed = 1;
nodes = (
(154,266,l),
(154,366,o),
(201,413,o),
(279,413,cs),
(360,413,o),
(388,356,o),
(388,249,cs),
(388,52,ls),
(388,23,o),
(411,0,o),
(440,0,cs),
(469,0,o),
(492,23,o),
(492,52,cs),
(492,266,ls),
(492,413,o),
(416,514,o),
(295,514,cs),
(151,514,o),
(74,388,o),
(66,259,c)
);
}
);
};
layerId = m01;
shapes = (
{
closed = 1;
nodes = (
(131,0,o),
(154,25,o),
(154,54,cs),
(154,465,ls),
(154,493,o),
(131,514,o),
(102,514,cs),
(73,514,o),
(50,491,o),
(50,463,cs),
(50,52,ls),
(50,23,o),
(73,0,o),
(102,0,cs)
);
},
{
closed = 1;
nodes = (
(154,266,l),
(154,366,o),
(201,413,o),
(279,413,cs),
(371,413,o),
(388,365,o),
(388,249,cs),
(388,52,ls),
(388,23,o),
(411,0,o),
(440,0,cs),
(469,0,o),
(492,23,o),
(492,52,cs),
(492,300,ls),
(492,423,o),
(416,514,o),
(295,514,cs),
(151,514,o),
(74,388,o),
(66,259,c)
);
}
);
width = 537;
},
{
layerId = "877D6F36-AFBE-4448-AD1B-25E457939AA6";
shapes = (
{
closed = 1;
nodes = (
(97,0,o),
(110,13,o),
(110,30,cs),
(110,483,ls),
(110,500,o),
(97,513,o),
(80,513,cs),
(63,513,o),
(50,500,o),
(50,483,cs),
(50,30,ls),
(50,13,o),
(63,0,o),
(80,0,cs)
);
},
{
closed = 1;
nodes = (
(110,257,l),
(110,406,o),
(171,454,o),
(256,454,cs),
(352,454,o),
(384,395,o),
(384,258,cs),
(384,30,ls),
(384,13,o),
(397,0,o),
(414,0,cs),
(431,0,o),
(444,13,o),
(444,30,cs),
(444,272,ls),
(444,426,o),
(386,514,o),
(265,514,cs),
(145,514,o),
(60,418,o),
(52,259,c)
);
}
);
width = 489;
},
{
guides = (
{
pos = (209,476);
}
);
layerId = "D47B13D9-D7EB-4385-B3F1-1D14F737A65A";
shapes = (
{
closed = 1;
nodes = (
(182,0,o),
(220,39,o),
(220,86,cs),
(221,429,ls),
(221,475,o),
(183,514,o),
(136,514,cs),
(89,514,o),
(51,475,o),
(51,429,cs),
(50,86,ls),
(50,39,o),
(88,0,o),
(135,0,cs)
);
},
{
closed = 1;
nodes = (
(220,227,l),
(220,308,o),
(239,356,o),
(305,356,cs),
(347,356,o),
(378,320,o),
(378,261,cs),
(378,86,ls),
(378,39,o),
(416,0,o),
(463,0,cs),
(510,0,o),
(548,39,o),
(548,86,cs),
(548,240,ls),
(548,371,o),
(497,514,o),
(322,514,cs),
(184,514,o),
(71,349,o),
(71,210,c)
);
}
);
width = 588;
}
);
unicode = 110;
},
{
glyphname = o;
lastChange = "2021-06-08 19:42:39 +0000";
layers = (
{
background = {
shapes = (
{
attr = {
strokeWidth = 1;
};
closed = 1;
nodes = (
(501,117,o),
(403,0,o),
(281,0,c),
(159,0,o),
(60,117,o),
(60,262,c),
(60,407,o),
(159,524,o),
(281,524,c),
(403,524,o),
(501,407,o),
(501,262,c)
);
},
{
closed = 1;
nodes = (
(232,146,o),
(195,194,o),
(195,258,cs),
(195,321,o),
(232,369,o),
(281,369,cs),
(329,369,o),
(365,321,o),
(365,258,cs),
(365,194,o),
(329,146,o),
(281,146,cs)
);
},
{
closed = 1;
nodes = (
(425,-10,o),
(525,110,o),
(525,258,cs),
(525,406,o),
(425,525,o),
(281,525,cs),
(136,525,o),
(35,406,o),
(35,258,cs),
(35,110,o),
(136,-10,o),
(281,-10,cs)
);
}
);
};
layerId = m01;
shapes = (
{
closed = 1;
nodes = (
(190,81,o),
(142,144,o),
(142,258,cs),
(142,373,o),
(190,436,o),
(278,436,cs),
(366,436,o),
(416,373,o),
(416,258,cs),
(416,144,o),
(366,81,o),
(278,81,cs)
);
},
{
closed = 1;
nodes = (
(415,-9,o),
(523,101,o),
(523,258,cs),
(523,415,o),
(418,526,o),
(278,526,cs),
(138,526,o),
(35,416,o),
(35,259,cs),
(35,102,o),
(135,-9,o),
(275,-9,cs)
);
}
);
width = 558;
},
{
background = {
shapes = (
{
attr = {
strokeWidth = 1;
};
closed = 1;
nodes = (
(475,118,o),
(377,0,o),
(255,0,c),
(133,0,o),
(34,118,o),
(34,262,c),
(34,407,o),
(133,524,o),
(255,524,c),
(377,524,o),
(475,407,o),
(475,262,c)
);
}
);
};
layerId = "877D6F36-AFBE-4448-AD1B-25E457939AA6";
shapes = (
{
closed = 1;
nodes = (
(160,45,o),
(92,132,o),
(92,258,cs),
(92,384,o),
(160,471,o),
(255,471,cs),
(350,471,o),
(420,384,o),
(420,258,cs),
(420,132,o),
(350,45,o),
(255,45,cs)
);
},
{
closed = 1;
nodes = (
(386,-10,o),
(482,101,o),
(482,258,cs),
(482,415,o),
(386,526,o),
(256,526,cs),
(126,526,o),
(30,415,o),
(30,258,cs),
(30,101,o),
(126,-10,o),
(256,-10,cs)
);
}
);
width = 512;
},
{
background = {
shapes = (
{
attr = {
strokeWidth = 1;
};
closed = 1;
nodes = (
(512,118,o),
(414,0,o),
(292,0,c),
(170,0,o),
(71,118,o),
(71,262,c),
(71,407,o),
(170,524,o),
(292,524,c),
(414,524,o),
(512,407,o),
(512,262,c)
);
}
);
};
layerId = "D47B13D9-D7EB-4385-B3F1-1D14F737A65A";
shapes = (
{
closed = 1;
nodes = (
(236,137,o),
(200,182,o),
(200,258,cs),
(200,333,o),
(236,378,o),
(296,378,cs),
(355,378,o),
(390,333,o),
(390,258,cs),
(390,182,o),
(355,137,o),
(296,137,cs)
);
},
{
closed = 1;
nodes = (
(444,-10,o),
(555,105,o),
(555,257,cs),
(555,410,o),
(441,525,o),
(291,525,cs),
(145,525,o),
(35,410,o),
(35,258,cs),
(35,105,o),
(147,-10,o),
(296,-10,cs)
);
}
);
width = 590;
}
);
unicode = 111;
},
{
glyphname = q;
lastChange = "2021-05-31 21:35:44 +0000";
layers = (
{
background = {
shapes = (
{
attr = {
strokeWidth = 1;
};
closed = 1;
nodes = (
(31,422,o),
(129,511,o),
(239,511,c),
(347,511,o),
(445,432,o),
(445,256,c),
(445,71,o),
(309,0,o),
(225,0,c),
(91,0,o),
(31,112,o),
(31,266,c)
);
},
{
attr = {
strokeWidth = 1;
};
closed = 0;
nodes = (
(445,-147,l),
(445,491,l)
);
},
{
closed = 1;
nodes = (
(135,357,o),
(187,414,o),
(265,414,cs),
(344,414,o),
(395,355,o),
(395,258,cs),
(395,159,o),
(340,101,o),
(255,101,cs),
(174,101,o),
(135,150,o),
(135,265,cs)
);
},
{
closed = 1;
nodes = (
(27,104,o),
(110,-2,o),
(246,-2,cs),
(384,-2,o),
(485,111,o),
(485,257,cs),
(485,401,o),
(390,514,o),
(257,514,cs),
(126,514,o),
(27,406,o),
(27,266,cs)
);
},
{
attr = {
strokeWidth = 1;
};
closed = 1;
nodes = (
(30,421,o),
(128,511,o),
(238,511,c),
(346,511,o),
(445,432,o),
(445,255,c),
(445,71,o),
(308,0,o),
(224,0,c),
(90,0,o),
(30,111,o),
(30,265,c)
);
},
{
attr = {
strokeWidth = 1;
};
closed = 0;
nodes = (
(445,-148,l),
(445,490,l)
);
}
);
};
layerId = m01;
shapes = (
{
closed = 1;
nodes = (
(474,-152,o),
(497,-129,o),
(497,-100,cs),
(497,462,ls),
(497,491,o),
(474,514,o),
(445,514,cs),
(416,514,o),
(393,491,o),
(393,462,cs),
(393,-100,ls),
(393,-129,o),
(416,-152,o),
(445,-152,cs)
);
},
{
closed = 1;
nodes = (
(189,97,o),
(134,165,o),
(134,256,cs),
(134,348,o),
(189,417,o),
(260,417,cs),
(343,417,o),
(394,363,o),
(393,256,cs),
(392,157,o),
(339,97,o),
(260,97,cs)
);
},
{
closed = 1;
nodes = (
(408,1,o),
(497,133,o),
(496,256,cs),
(495,400,o),
(398,514,o),
(252,514,cs),
(120,514,o),
(30,400,o),
(30,256,cs),
(30,115,o),
(117,0,o),
(252,0,cs)
);
}
);
width = 547;
},
{
layerId = "877D6F36-AFBE-4448-AD1B-25E457939AA6";
shapes = (
{
closed = 1;
nodes = (
(464,-152,o),
(477,-139,o),
(477,-122,cs),
(477,484,ls),
(477,501,o),
(464,514,o),
(447,514,cs),
(430,514,o),
(417,501,o),
(417,484,cs),
(417,-122,ls),
(417,-139,o),
(430,-152,o),
(447,-152,cs)
);
},
{
closed = 1;
nodes = (
(167,60,o),
(100,148,o),
(100,258,cs),
(100,368,o),
(167,459,o),
(266,459,cs),
(357,459,o),
(416,383,o),
(416,258,cs),
(416,134,o),
(357,60,o),
(266,60,cs)
);
},
{
closed = 1;
nodes = (
(382,0,o),
(478,114,o),
(478,258,cs),
(478,402,o),
(382,516,o),
(259,516,cs),
(134,516,o),
(40,405,o),
(40,258,cs),
(40,111,o),
(134,0,o),
(259,0,cs)
);
}
);
width = 528;
},
{
background = {
shapes = (
{
attr = {
strokeWidth = 1;
};
closed = 1;
nodes = (
(40,421,o),
(138,511,o),
(248,511,c),
(356,511,o),
(455,432,o),
(455,255,c),
(455,71,o),
(318,0,o),
(234,0,c),
(100,0,o),
(40,111,o),
(40,265,c)
);
},
{
attr = {
strokeWidth = 1;
};
closed = 0;
nodes = (
(455,-148,l),
(455,490,l)
);
},
{
closed = 1;
nodes = (
(237,146,o),
(200,194,o),
(200,258,cs),
(200,321,o),
(237,369,o),
(286,369,cs),
(334,369,o),
(370,321,o),
(370,258,cs),
(370,194,o),
(334,146,o),
(286,146,cs)
);
},
{
closed = 1;
nodes = (
(430,-10,o),
(530,110,o),
(530,258,cs),
(530,406,o),
(430,525,o),
(286,525,cs),
(141,525,o),
(40,406,o),
(40,258,cs),
(40,110,o),
(141,-10,o),
(286,-10,cs)
);
}
);
};
layerId = "D47B13D9-D7EB-4385-B3F1-1D14F737A65A";
shapes = (
{
closed = 1;
nodes = (
(501,-153,o),
(539,-114,o),
(539,-67,cs),
(539,429,ls),
(539,475,o),
(501,514,o),
(454,514,cs),
(407,514,o),
(369,475,o),
(369,429,cs),
(369,-67,ls),
(369,-114,o),
(407,-153,o),
(454,-153,cs)
);
},
{
closed = 1;
nodes = (
(226,145,o),
(194,188,o),
(194,259,cs),
(194,328,o),
(227,369,o),
(283,368,cs),
(337,369,o),
(369,328,o),
(369,259,cs),
(369,188,o),
(336,145,o),
(280,145,cs)
);
},
{
closed = 1;
nodes = (
(418,1,o),
(506,169,o),
(506,256,cs),
(506,400,o),
(408,514,o),
(262,514,cs),
(130,514,o),
(30,400,o),
(30,256,cs),
(30,96,o),
(123,0,o),
(255,0,cs)
);
}
);
width = 589;
}
);
unicode = 113;
},
{
glyphname = r;
lastChange = "2021-06-08 19:06:07 +0000";
layers = (
{
background = {
shapes = (
{
attr = {
strokeWidth = 1;
};
closed = 0;
nodes = (
(691,493,l),
(691,0,l)
);
},
{
attr = {
strokeWidth = 1;
};
closed = 0;
nodes = (
(859,490,l),
(793,490,o),
(782,470,o),
(769,457,c),
(739,425,o),
(691,353,o),
(691,353,c)
);
},
{
closed = 1;
nodes = (
(713,0,o),
(726,13,o),
(726,30,cs),
(726,484,ls),
(726,501,o),
(713,514,o),
(696,514,cs),
(679,514,o),
(666,501,o),
(666,484,cs),
(666,30,ls),
(666,13,o),
(679,0,o),
(696,0,cs)
);
},
{
closed = 1;
nodes = (
(865,462,o),
(876,479,o),
(876,495,cs),
(876,509,o),
(866,522,o),
(848,522,cs),
(755,522,o),
(676,418,o),
(668,259,c),
(726,257,l),
(726,406,o),
(782,462,o),
(838,462,cs)
);
},
{
closed = 1;
nodes = (
(725,0,o),
(748,25,o),
(748,54,cs),
(748,465,ls),
(748,493,o),
(725,514,o),
(696,514,cs),
(667,514,o),
(644,491,o),
(644,463,cs),
(644,52,ls),
(644,23,o),
(667,0,o),
(696,0,cs)
);
},
{
closed = 1;
nodes = (
(886,413,o),
(908,437,o),
(908,469,cs),
(908,499,o),
(886,522,o),
(857,522,cs),
(745,522,o),
(682,418,o),
(674,259,c),
(748,266,l),
(748,415,o),
(823,413,o),
(857,413,cs)
);
},
{
closed = 1;
nodes = (
(131,0,o),
(154,25,o),
(154,54,cs),
(154,465,ls),
(154,493,o),
(131,514,o),
(102,514,cs),
(73,514,o),
(50,491,o),
(50,463,cs),
(50,52,ls),
(50,23,o),
(73,0,o),
(102,0,cs)
);
},
{
closed = 1;
nodes = (
(154,266,l),
(154,411,o),
(245,413,o),
(280,413,cs),
(311,413,o),
(334,436,o),
(334,469,cs),
(334,499,o),
(312,522,o),
(283,522,cs),
(171,522,o),
(88,418,o),
(80,259,c)
);
}
);
};
layerId = m01;
shapes = (
{
closed = 1;
nodes = (
(131,0,o),
(154,25,o),
(154,54,cs),
(154,465,ls),
(154,493,o),
(131,514,o),
(102,514,cs),
(73,514,o),
(50,491,o),
(50,463,cs),
(50,52,ls),
(50,23,o),
(73,0,o),
(102,0,cs)
);
},
{
closed = 1;
nodes = (
(154,266,l),
(154,411,o),
(245,413,o),
(280,413,cs),
(311,413,o),
(334,436,o),
(334,469,cs),
(334,499,o),
(312,522,o),
(283,522,cs),
(171,522,o),
(88,398,o),
(80,239,c)
);
}
);
width = 344;
},
{
layerId = "877D6F36-AFBE-4448-AD1B-25E457939AA6";
shapes = (
{
closed = 1;
nodes = (
(97,0,o),
(110,13,o),
(110,30,cs),
(110,484,ls),
(110,501,o),
(97,514,o),
(80,514,cs),
(63,514,o),
(50,501,o),
(50,484,cs),
(50,30,ls),
(50,13,o),
(63,0,o),
(80,0,cs)
);
},
{
closed = 1;
nodes = (
(110,257,l),
(110,406,o),
(166,462,o),
(222,462,cs),
(249,462,o),
(260,479,o),
(260,495,cs),
(260,509,o),
(250,522,o),
(232,522,cs),
(139,522,o),
(60,408,o),
(52,249,c)
);
}
);
width = 295;
},
{
background = {
shapes = (
{
closed = 1;
nodes = (
(182,0,o),
(220,39,o),
(220,86,cs),
(221,429,ls),
(221,475,o),
(183,514,o),
(136,514,cs),
(89,514,o),
(51,475,o),
(51,429,cs),
(50,86,ls),
(50,39,o),
(88,0,o),
(135,0,cs)
);
},
{
closed = 1;
nodes = (
(220,227,l),
(220,310,o),
(256,356,o),
(320,356,cs),
(364,356,o),
(397,390,o),
(397,436,cs),
(397,480,o),
(367,514,o),
(327,514,cs),
(199,514,o),
(98,371,o),
(98,202,c)
);
}
);
};
layerId = "D47B13D9-D7EB-4385-B3F1-1D14F737A65A";
shapes = (
{
closed = 1;
nodes = (
(182,0,o),
(220,39,o),
(220,86,cs),
(221,429,ls),
(221,475,o),
(183,514,o),
(136,514,cs),
(89,514,o),
(51,475,o),
(51,429,cs),
(50,86,ls),
(50,39,o),
(88,0,o),
(135,0,cs)
);
},
{
closed = 1;
nodes = (
(220,251,l),
(220,316,o),
(239,335,o),
(320,351,cs),
(363,359,o),
(397,390,o),
(397,436,cs),
(397,480,o),
(367,514,o),
(327,514,cs),
(199,514,o),
(98,312,o),
(98,251,c)
);
}
);
width = 407;
}
);
unicode = 114;
},
{
glyphname = s;
lastChange = "2021-06-08 19:54:01 +0000";
layers = (
{
background = {
shapes = (
{
attr = {
strokeWidth = 1;
};
closed = 0;
nodes = (
(-456,433,l),
(-456,433,o),
(-479,512,o),
(-602,512,c),
(-670,512,o),
(-782,490,o),
(-782,380,c),
(-782,215,o),
(-429,314,o),
(-429,117,c),
(-429,63,o),
(-477,-19,o),
(-596,-19,c),
(-763,-19,o),
(-782,97,o),
(-782,97,c)
);
}
);
};
layerId = m01;
shapes = (
{
closed = 1;
nodes = (
(350,0,o),
(417,60,o),
(417,161,cs),
(417,275,o),
(326,306,o),
(245,321,cs),
(171,335,o),
(140,341,o),
(140,379,cs),
(140,410,o),
(183,419,o),
(218,419,cs),
(274,419,o),
(292,409,o),
(302,400,cs),
(311,392,o),
(323,386,o),
(336,386,cs),
(364,386,o),
(387,416,o),
(387,444,cs),
(387,460,o),
(380,474,o),
(368,483,cs),
(338,507,o),
(295,523,o),
(218,523,cs),
(141,523,o),
(37,481,o),
(37,371,cs),
(37,280,o),
(118,245,o),
(196,226,cs),
(274,207,o),
(313,205,o),
(313,163,cs),
(313,124,o),
(281,100,o),
(226,100,cs),
(186,100,o),
(141,115,o),
(128,134,cs),
(119,147,o),
(103,156,o),
(86,156,cs),
(58,156,o),
(35,133,o),
(35,105,cs),
(35,93,o),
(39,82,o),
(46,73,cs),
(78,32,o),
(136,0,o),
(223,0,cs)
);
}
);
width = 452;
},
{
background = {
shapes = (
{
attr = {
strokeWidth = 1;
};
closed = 0;
nodes = (
(-78,443,l),
(-78,443,o),
(-100,522,o),
(-223,522,c),
(-291,522,o),
(-404,499,o),
(-404,390,c),
(-404,225,o),
(-50,324,o),
(-50,127,c),
(-50,73,o),
(-99,-10,o),
(-217,-10,c),
(-384,-10,o),
(-404,106,o),
(-404,106,c)
);
}
);
};
layerId = "877D6F36-AFBE-4448-AD1B-25E457939AA6";
shapes = (
{
closed = 1;
nodes = (
(349,0,o),
(397,90,o),
(397,152,cs),
(397,269,o),
(299,278,o),
(217,300,cs),
(153,317,o),
(103,329,o),
(103,375,cs),
(103,448,o),
(177,466,o),
(224,466,cs),
(280,466,o),
(295,449,o),
(310,429,cs),
(315,422,o),
(323,417,o),
(333,417,cs),
(350,417,o),
(363,430,o),
(363,446,cs),
(363,453,o),
(361,459,o),
(357,464,cs),
(332,497,o),
(298,523,o),
(224,523,cs),
(168,523,o),
(43,497,o),
(43,375,cs),
(43,279,o),
(139,259,o),
(203,242,cs),
(285,220,o),
(337,219,o),
(337,152,cs),
(337,112,o),
(306,57,o),
(218,57,cs),
(140,57,o),
(103,87,o),
(87,121,cs),
(82,131,o),
(72,138,o),
(60,138,cs),
(44,138,o),
(30,124,o),
(30,108,cs),
(30,103,o),
(32,98,o),
(34,94,cs),
(59,44,o),
(117,0,o),
(218,0,cs)
);
}
);
width = 427;
},
{
background = {
shapes = (
{
closed = 1;
nodes = (
(379,10,o),
(485,62,o),
(485,179,cs),
(485,270,o),
(387,319,o),
(268,319,cs),
(188,319,o),
(155,314,o),
(155,347,cs),
(155,367,o),
(171,385,o),
(234,385,cs),
(369,385,o),
(333,343,o),
(387,343,cs),
(431,343,o),
(449,363,o),
(449,397,cs),
(449,459,o),
(393,524,o),
(234,524,cs),
(52,524,o),
(-8,451,o),
(-8,308,cs),
(-8,134,ls),
(-8,117,o),
(-9,106,o),
(-18,98,cs),
(-28,89,o),
(-40,78,o),
(-40,61,cs),
(-40,33,o),
(-6,9,o),
(44,9,cs),
(89,9,o),
(112,28,o),
(125,74,c),
(169,31,o),
(206,10,o),
(273,10,cs)
);
},
{
closed = 1;
nodes = (
(229,121,o),
(172,146,o),
(159,174,c),
(159,202,l),
(159,202,o),
(178,195,o),
(232,195,cs),
(301,195,o),
(316,183,o),
(316,156,cs),
(316,136,o),
(296,121,o),
(268,121,cs)
);
},
{
closed = 1;
nodes = (
(879,0,o),
(963,67,o),
(963,156,cs),
(963,269,o),
(907,319,o),
(752,345,cs),
(700,355,o),
(688,356,o),
(688,369,cs),
(688,380,o),
(711,387,o),
(739,387,cs),
(783,387,o),
(797,380,o),
(814,374,cs),
(828,369,o),
(843,365,o),
(877,365,cs),
(906,365,o),
(928,390,o),
(928,422,cs),
(928,453,o),
(913,481,o),
(888,496,cs),
(860,513,o),
(808,523,o),
(748,523,cs),
(614,523,o),
(534,460,o),
(534,356,cs),
(534,292,o),
(576,241,o),
(665,217,cs),
(789,184,o),
(803,178,o),
(803,162,cs),
(803,146,o),
(788,140,o),
(745,140,cs),
(718,140,o),
(685,148,o),
(654,169,cs),
(643,177,o),
(622,185,o),
(601,185,cs),
(570,185,o),
(536,169,o),
(536,122,cs),
(536,95,o),
(558,68,o),
(580,52,cs),
(631,17,o),
(691,0,o),
(768,0,cs)
);
},
{
closed = 1;
nodes = (
(379,0,o),
(474,67,o),
(474,156,cs),
(474,269,o),
(425,329,o),
(268,329,cs),
(223,329,o),
(199,335,o),
(199,357,cs),
(199,383,o),
(226,396,o),
(256,396,cs),
(316,396,o),
(301,356,o),
(377,356,cs),
(432,356,o),
(443,390,o),
(443,422,cs),
(443,508,o),
(333,523,o),
(248,523,cs),
(114,523,o),
(34,460,o),
(34,356,cs),
(34,292,o),
(76,241,o),
(165,217,cs),
(289,184,o),
(314,178,o),
(314,162,cs),
(314,146,o),
(288,127,o),
(245,127,cs),
(218,127,o),
(185,148,o),
(154,169,cs),
(143,177,o),
(122,185,o),
(101,185,cs),
(70,185,o),
(36,169,o),
(36,122,cs),
(36,95,o),
(58,68,o),
(80,52,cs),
(131,17,o),
(191,0,o),
(268,0,cs)
);
}
);
};
layerId = "D47B13D9-D7EB-4385-B3F1-1D14F737A65A";
shapes = (
{
closed = 1;
nodes = (
(399,0,o),
(477,66,o),
(477,175,cs),
(477,225,o),
(437,296,o),
(345,313,cs),
(234,334,o),
(199,335,o),
(199,357,cs),
(199,383,o),
(226,398,o),
(256,398,cs),
(289,398,o),
(299,384,o),
(315,373,cs),
(327,364,o),
(343,356,o),
(377,356,cs),
(432,356,o),
(443,390,o),
(443,422,cs),
(443,450,o),
(431,471,o),
(412,486,cs),
(373,516,o),
(305,523,o),
(248,523,cs),
(114,523,o),
(39,460,o),
(39,356,cs),
(39,299,o),
(64,258,o),
(128,230,cs),
(206,195,o),
(309,207,o),
(309,165,cs),
(309,140,o),
(284,126,o),
(255,126,cs),
(191,126,o),
(179,156,o),
(149,173,cs),
(138,180,o),
(123,185,o),
(101,185,cs),
(46,185,o),
(35,151,o),
(35,119,cs),
(35,94,o),
(48,72,o),
(70,55,cs),
(114,19,o),
(193,0,o),
(271,0,cs)
);
}
);
width = 512;
}
);
unicode = 115;
},
{
glyphname = u;
lastChange = "2021-06-08 19:54:31 +0000";
layers = (
{
layerId = m01;
shapes = (
{
closed = 1;
nodes = (
(464,0,o),
(487,23,o),
(487,51,cs),
(487,462,ls),
(487,491,o),
(464,514,o),
(435,514,cs),
(406,514,o),
(383,489,o),
(383,460,cs),
(383,49,ls),
(383,21,o),
(406,0,o),
(435,0,cs)
);
},
{
closed = 1;
nodes = (
(386,0,o),
(471,135,o),
(471,255,c),
(383,239,l),
(383,146,o),
(346,101,o),
(259,101,cs),
(179,101,o),
(149,145,o),
(149,248,cs),
(149,462,ls),
(149,491,o),
(126,514,o),
(97,514,cs),
(68,514,o),
(45,491,o),
(45,462,cs),
(45,248,ls),
(45,89,o),
(118,0,o),
(249,0,cs)
);
}
);
width = 537;
},
{
layerId = "877D6F36-AFBE-4448-AD1B-25E457939AA6";
shapes = (
{
closed = 1;
nodes = (
(426,1,o),
(439,14,o),
(439,31,cs),
(439,484,ls),
(439,501,o),
(426,514,o),
(409,514,cs),
(392,514,o),
(379,501,o),
(379,484,cs),
(379,31,ls),
(379,14,o),
(392,1,o),
(409,1,cs)
);
},
{
closed = 1;
nodes = (
(351,0,o),
(429,96,o),
(437,255,c),
(379,257,l),
(379,117,o),
(318,60,o),
(229,60,cs),
(139,60,o),
(105,114,o),
(105,256,cs),
(105,484,ls),
(105,501,o),
(92,514,o),
(75,514,cs),
(58,514,o),
(45,501,o),
(45,484,cs),
(45,242,ls),
(45,76,o),
(102,0,o),
(225,0,cs)
);
}
);
width = 489;
},
{
background = {
shapes = (
{
attr = {
strokeWidth = 1;
};
closed = 0;
nodes = (
(485,26,l),
(485,518,l)
);
},
{
attr = {
strokeWidth = 1;
};
closed = 0;
nodes = (
(132,156,l),
(132,518,l)
);
},
{
attr = {
strokeWidth = 1;
};
closed = 0;
nodes = (
(485,232,l),
(485,182,o),
(367,76,o),
(296,76,cs),
(207,76,o),
(132,164,o),
(132,232,c)
);
},
{
closed = 1;
nodes = (
(440,514,o),
(402,475,o),
(402,428,cs),
(402,85,ls),
(402,39,o),
(440,0,o),
(487,0,cs),
(534,0,o),
(572,39,o),
(572,85,cs),
(572,428,ls),
(572,475,o),
(534,514,o),
(487,514,cs)
);
},
{
closed = 1;
nodes = (
(214,428,ls),
(214,475,o),
(176,514,o),
(129,514,cs),
(82,514,o),
(44,475,o),
(44,428,cs),
(44,274,ls),
(44,103,o),
(133,0,o),
(280,0,cs),
(418,0,o),
(551,135,o),
(551,304,c),
(402,253,l),
(402,194,o),
(371,158,o),
(319,158,cs),
(248,158,o),
(214,199,o),
(214,287,cs)
);
},
{
closed = 0;
nodes = (
(383,265,ls),
(383,198,o),
(352,158,o),
(299,158,cs),
(247,158,o),
(215,198,o),
(215,265,cs)
);
}
);
};
layerId = "D47B13D9-D7EB-4385-B3F1-1D14F737A65A";
shapes = (
{
closed = 1;
nodes = (
(515,0,o),
(553,39,o),
(553,85,cs),
(553,428,ls),
(553,475,o),
(515,514,o),
(468,514,cs),
(421,514,o),
(383,475,o),
(383,428,cs),
(383,85,ls),
(383,39,o),
(412,0,o),
(468,0,cs)
);
},
{
closed = 1;
nodes = (
(412,0,o),
(532,210,o),
(532,253,c),
(383,253,l),
(383,180,o),
(358,158,o),
(304,158,cs),
(244,158,o),
(215,188,o),
(215,265,cs),
(215,428,ls),
(215,475,o),
(177,514,o),
(130,514,cs),
(83,514,o),
(45,475,o),
(45,428,cs),
(45,285,ls),
(45,101,o),
(125,0,o),
(280,0,cs)
);
}
);
width = 613;
}
);
unicode = 117;
},
{
glyphname = x;
lastChange = "2021-06-09 16:06:33 +0000";
layers = (
{
background = {
shapes = (
{
attr = {
strokeWidth = 1;
};
closed = 0;
nodes = (
(670,493,l),
(1031,0,l)
);
},
{
attr = {
strokeWidth = 1;
};
closed = 0;
nodes = (
(1031,493,l),
(650,0,l)
);
},
{
attr = {
strokeWidth = 1;
};
closed = 0;
nodes = (
(-516,493,l),
(-155,0,l)
);
},
{
attr = {
strokeWidth = 1;
};
closed = 0;
nodes = (
(-155,493,l),
(-536,0,l)
);
}
);
};
layerId = m01;
shapes = (
{
closed = 1;
nodes = (
(141,493,ls),
(132,506,o),
(117,514,o),
(101,514,cs),
(73,514,o),
(50,491,o),
(50,463,cs),
(50,452,o),
(54,441,o),
(60,432,cs),
(360,21,ls),
(369,8,o),
(384,0,o),
(401,0,cs),
(429,0,o),
(452,23,o),
(452,51,cs),
(452,62,o),
(448,73,o),
(442,82,cs)
);
},
{
closed = 1;
nodes = (
(273,218,l),
(440,431,ls),
(447,440,o),
(451,451,o),
(451,463,cs),
(451,491,o),
(428,514,o),
(400,514,cs),
(384,514,o),
(369,506,o),
(360,494,cs),
(215,305,l)
);
},
{
closed = 1;
nodes = (
(97,0,o),
(111,9,o),
(120,20,cs),
(272,218,l),
(214,305,l),
(41,83,ls),
(34,74,o),
(30,63,o),
(30,51,cs),
(30,23,o),
(53,0,o),
(81,0,cs)
);
}
);
width = 482;
},
{
layerId = "877D6F36-AFBE-4448-AD1B-25E457939AA6";
shapes = (
{
closed = 1;
nodes = (
(104,502,ls),
(99,509,o),
(90,514,o),
(80,514,cs),
(63,514,o),
(50,501,o),
(50,484,cs),
(50,477,o),
(52,471,o),
(56,466,cs),
(386,12,ls),
(391,5,o),
(400,0,o),
(410,0,cs),
(427,0,o),
(440,13,o),
(440,30,cs),
(440,37,o),
(438,43,o),
(434,48,cs)
);
},
{
closed = 1;
nodes = (
(258,236,l),
(435,465,ls),
(439,470,o),
(441,477,o),
(441,484,cs),
(441,500,o),
(428,514,o),
(411,514,cs),
(402,514,o),
(393,509,o),
(388,502,cs),
(220,285,l)
);
},
{
closed = 1;
nodes = (
(69,0,o),
(78,5,o),
(83,12,cs),
(256,236,l),
(218,285,l),
(36,49,ls),
(32,44,o),
(30,37,o),
(30,30,cs),
(30,14,o),
(43,0,o),
(60,0,cs)
);
}
);
width = 471;
},
{
layerId = "D47B13D9-D7EB-4385-B3F1-1D14F737A65A";
shapes = (
{
closed = 1;
nodes = (
(186,484,ls),
(170,504,o),
(146,514,o),
(117,514,cs),
(70,514,o),
(33,473,o),
(36,426,cs),
(36,407,o),
(44,389,o),
(55,375,cs),
(324,31,ls),
(341,10,o),
(366,-2,o),
(394,0,cs),
(441,2,o),
(477,42,o),
(475,89,cs),
(474,108,o),
(466,126,o),
(456,139,cs)
);
},
{
closed = 1;
nodes = (
(305,184,l),
(455,377,ls),
(466,391,o),
(473,410,o),
(473,429,cs),
(473,476,o),
(435,514,o),
(388,514,cs),
(361,514,o),
(337,502,o),
(321,482,cs),
(202,329,l)
);
},
{
closed = 1;
nodes = (
(142,0,o),
(166,12,o),
(182,32,cs),
(300,184,l),
(197,329,l),
(48,137,ls),
(37,123,o),
(30,104,o),
(30,85,cs),
(30,38,o),
(68,0,o),
(115,0,cs)
);
}
);
width = 505;
}
);
unicode = 120;
},
{
glyphname = a.ss01;
lastChange = "2021-06-08 19:08:52 +0000";
layers = (
{
background = {
shapes = (
{
attr = {
strokeWidth = 1;
};
closed = 0;
nodes = (
(111,402,l),
(111,420,o),
(132,516,o),
(282,516,c),
(419,516,o),
(454,439,o),
(454,361,c),
(454,360,o),
(456,151,o),
(456,71,c),
(456,10,o),
(510,10,o),
(510,10,c)
);
},
{
attr = {
strokeWidth = 1;
};
closed = 0;
nodes = (
(453,116,l),
(453,116,o),
(371,3,o),
(231,3,c),
(129,3,o),
(81,62,o),
(80,125,c),
(81,187,o),
(129,269,o),
(260,269,c),
(442,269,o),
(454,368,o),
(454,368,c)
);
},
{
closed = 1;
nodes = (
(403,307,ls),
(402,374,o),
(387,410,o),
(283,410,cs),
(144,410,o),
(194,341,o),
(126,341,cs),
(98,341,o),
(75,364,o),
(75,392,cs),
(75,449,o),
(167,514,o),
(283,514,cs),
(457,514,o),
(506,405,o),
(507,307,cs),
(509,136,ls),
(510,76,o),
(539,98,o),
(539,50,cs),
(539,19,o),
(519,-1,o),
(487,-1,cs),
(449,-1,o),
(424,20,o),
(424,51,c),
(405,97,l)
);
},
{
closed = 1;
nodes = (
(485,56,o),
(481,67,o),
(481,84,cs),
(482,373,l),
(479,424,o),
(450,514,o),
(295,514,cs),
(159,514,o),
(102,440,o),
(102,396,cs),
(102,374,o),
(116,367,o),
(132,367,cs),
(145,367,o),
(156,375,o),
(160,386,cs),
(169,413,o),
(201,454,o),
(293,454,cs),
(388,454,o),
(418,417,o),
(418,377,cs),
(418,328,o),
(363,303,o),
(278,299,cs),
(150,293,o),
(72,233,o),
(71,140,cs),
(70,54,o),
(134,0,o),
(241,0,cs),
(306,0,o),
(376,21,o),
(424,64,c),
(428,26,o),
(450,0,o),
(480,0,cs),
(501,0,o),
(511,13,o),
(511,26,cs),
(511,41,o),
(503,48,o),
(493,53,cs)
);
},
{
closed = 1;
nodes = (
(132,197,o),
(186,235,o),
(265,239,cs),
(337,243,o),
(388,250,o),
(420,281,c),
(421,135,l),
(375,84,o),
(316,60,o),
(250,60,cs),
(169,60,o),
(131,85,o),
(131,140,c)
);
},
{
closed = 1;
nodes = (
(1121,-1,o),
(1141,19,o),
(1141,50,cs),
(1141,87,o),
(1112,86,o),
(1111,136,cs),
(1109,307,ls),
(1108,431,o),
(1059,514,o),
(898,514,cs),
(766,514,o),
(697,445,o),
(697,392,cs),
(697,363,o),
(720,341,o),
(748,341,cs),
(816,341,o),
(766,410,o),
(898,410,cs),
(969,410,o),
(1003,392,o),
(1003,341,cs),
(1003,317,o),
(936,313,o),
(868,307,cs),
(718,292,o),
(673,207,o),
(673,145,cs),
(673,77,o),
(729,0,o),
(835,0,cs),
(895,0,o),
(966,25,o),
(1012,56,c),
(1025,11,o),
(1059,-1,o),
(1086,-1,cs)
);
},
{
closed = 1;
nodes = (
(777,182,o),
(822,200,o),
(874,211,cs),
(925,222,o),
(980,232,o),
(1006,236,c),
(1006,161,l),
(960,128,o),
(890,104,o),
(840,104,cs),
(803,104,o),
(777,114,o),
(777,145,cs)
);
},
{
closed = 1;
nodes = (
(306,0,o),
(376,21,o),
(420,64,c),
(433,18,o),
(444,0,o),
(483,0,cs),
(524,0,o),
(539,23,o),
(539,43,cs),
(539,68,o),
(527,79,o),
(517,88,cs),
(508,96,o),
(507,107,o),
(507,124,cs),
(507,348,ls),
(507,431,o),
(450,514,o),
(287,514,cs),
(139,514,o),
(83,436,o),
(83,392,cs),
(83,362,o),
(100,341,o),
(133,341,cs),
(162,341,o),
(166,363,o),
(182,380,cs),
(198,398,o),
(227,411,o),
(298,411,cs),
(354,411,o),
(403,395,o),
(403,362,cs),
(403,333,o),
(363,316,o),
(280,316,cs),
(141,316,o),
(51,254,o),
(51,156,cs),
(51,52,o),
(156,0,o),
(247,0,cs)
);
}
);
};
layerId = m01;
shapes = (
{
closed = 1;
nodes = (
(388,34,o),
(412,0,o),
(456,0,cs),
(501,0,o),
(510,30,o),
(510,48,cs),
(510,93,o),
(478,65,o),
(478,112,cs),
(478,307,ls),
(478,417,o),
(424,514,o),
(268,514,cs),
(112,514,o),
(66,436,o),
(66,393,cs),
(66,362,o),
(91,341,o),
(124,341,cs),
(151,341,o),
(160,367,o),
(174,383,cs),
(190,401,o),
(220,414,o),
(267,414,cs),
(353,414,o),
(372,386,o),
(373,298,cs),
(374,153,l)
);
},
{
closed = 1;
nodes = (
(326,0,o),
(363,29,o),
(409,78,c),
(409,316,l),
(267,316,ls),
(126,316,o),
(40,244,o),
(40,159,cs),
(40,71,o),
(106,0,o),
(229,0,cs)
);
},
{
closed = 1;
nodes = (
(175,101,o),
(144,122,o),
(144,155,cs),
(144,194,o),
(184,216,o),
(292,216,cs),
(380,216,l),
(378,155,l),
(335,112,o),
(292,101,o),
(243,101,cs)
);
}
);
width = 550;
},
{
background = {
shapes = (
{
attr = {
strokeWidth = 1;
};
closed = 0;
nodes = (
(45,400,l),
(45,418,o),
(66,514,o),
(216,514,c),
(353,514,o),
(388,437,o),
(388,359,c),
(388,358,o),
(390,149,o),
(390,69,c),
(390,8,o),
(444,8,o),
(444,8,c)
);
},
{
attr = {
strokeWidth = 1;
};
closed = 0;
nodes = (
(387,114,l),
(387,114,o),
(305,1,o),
(165,1,c),
(63,1,o),
(15,60,o),
(14,123,c),
(15,185,o),
(63,267,o),
(194,267,c),
(376,267,o),
(388,366,o),
(388,366,c)
);
},
{
closed = 1;
nodes = (
(424,56,o),
(420,67,o),
(420,84,cs),
(420,164,o),
(418,337,o),
(418,338,cs),
(418,427,o),
(375,514,o),
(216,514,cs),
(88,514,o),
(40,451,o),
(23,407,cs),
(22,404,o),
(21,400,o),
(21,396,cs),
(21,380,o),
(35,367,o),
(51,367,cs),
(64,367,o),
(75,375,o),
(79,386,cs),
(88,413,o),
(120,454,o),
(216,454,cs),
(334,454,o),
(358,410,o),
(358,338,cs),
(358,337,o),
(360,164,o),
(360,84,cs),
(360,43,o),
(387,0,o),
(419,0,cs),
(440,0,o),
(450,13,o),
(450,26,cs),
(450,41,o),
(442,48,o),
(432,53,cs)
);
}
);
};
layerId = "877D6F36-AFBE-4448-AD1B-25E457939AA6";
shapes = (
{
closed = 1;
nodes = (
(380,30,o),
(404,0,o),
(439,0,cs),
(460,0,o),
(470,13,o),
(470,26,cs),
(470,63,o),
(440,35,o),
(440,84,cs),
(441,373,ls),
(441,424,o),
(409,514,o),
(254,514,cs),
(118,514,o),
(61,440,o),
(61,396,cs),
(61,374,o),
(75,367,o),
(91,367,cs),
(104,367,o),
(115,375,o),
(119,386,cs),
(128,413,o),
(160,454,o),
(252,454,cs),
(347,454,o),
(377,417,o),
(377,377,cs),
(380,119,l)
);
},
{
closed = 1;
nodes = (
(270,0,o),
(346,25,o),
(394,75,c),
(394,307,l),
(251,306,ls),
(112,305,o),
(30,239,o),
(30,145,cs),
(30,60,o),
(94,0,o),
(201,0,cs)
);
},
{
closed = 1;
nodes = (
(128,60,o),
(90,96,o),
(90,147,cs),
(90,208,o),
(145,249,o),
(235,249,cs),
(389,249,l),
(389,148,l),
(342,88,o),
(280,60,o),
(209,60,cs)
);
}
);
width = 510;
},
{
background = {
shapes = (
{
closed = 1;
nodes = (
(274,0,o),
(326,21,o),
(370,64,c),
(383,18,o),
(426,-1,o),
(471,-1,cs),
(521,-1,o),
(555,23,o),
(555,51,cs),
(555,68,o),
(543,79,o),
(533,88,cs),
(524,96,o),
(523,107,o),
(523,124,cs),
(523,298,ls),
(523,441,o),
(463,514,o),
(265,514,cs),
(99,514,o),
(43,449,o),
(43,382,cs),
(43,343,o),
(61,324,o),
(97,324,cs),
(146,324,o),
(164,375,o),
(248,375,cs),
(344,375,o),
(353,353,o),
(353,333,cs),
(353,300,o),
(327,312,o),
(235,312,cs),
(91,312,o),
(-5,260,o),
(-5,163,cs),
(-5,52,o),
(101,0,o),
(207,0,cs)
);
},
{
closed = 1;
nodes = (
(184,118,o),
(164,136,o),
(164,156,cs),
(164,183,o),
(205,204,o),
(248,204,cs),
(302,204,o),
(333,204,o),
(356,204,c),
(356,181,l),
(328,157,o),
(251,118,o),
(201,118,cs)
);
},
{
closed = 1;
nodes = (
(301,0,o),
(367,21,o),
(415,64,c),
(419,26,o),
(441,0,o),
(471,0,cs),
(492,0,o),
(502,13,o),
(502,26,cs),
(502,41,o),
(494,48,o),
(484,53,cs),
(476,56,o),
(472,67,o),
(472,84,cs),
(473,373,ls),
(473,424,o),
(447,514,o),
(286,514,cs),
(138,514,o),
(93,437,o),
(93,396,cs),
(93,374,o),
(107,367,o),
(123,367,cs),
(162,367,o),
(135,454,o),
(284,454,cs),
(379,454,o),
(409,417,o),
(409,377,cs),
(409,346,o),
(388,299,o),
(269,299,cs),
(141,299,o),
(63,233,o),
(62,140,cs),
(61,54,o),
(122,0,o),
(232,0,cs)
);
},
{
closed = 1;
nodes = (
(160,60,o),
(122,85,o),
(122,136,cs),
(122,197,o),
(177,239,o),
(256,239,cs),
(338,239,o),
(377,249,o),
(410,275,c),
(412,135,l),
(366,84,o),
(307,60,o),
(234,60,cs)
);
}
);
};
layerId = "D47B13D9-D7EB-4385-B3F1-1D14F737A65A";
shapes = (
{
closed = 1;
nodes = (
(375,34,o),
(377,0,o),
(470,0,cs),
(554,0,o),
(563,30,o),
(563,48,cs),
(563,93,o),
(531,77,o),
(531,124,cs),
(531,308,ls),
(531,425,o),
(436,514,o),
(302,514,cs),
(95,514,o),
(63,436,o),
(63,391,cs),
(63,355,o),
(84,315,o),
(135,315,cs),
(148,315,o),
(160,319,o),
(171,326,cs),
(199,344,o),
(217,379,o),
(277,379,cs),
(347,379,o),
(361,343,o),
(361,298,cs),
(361,153,l)
);
},
{
closed = 1;
nodes = (
(318,0,o),
(350,26,o),
(398,70,c),
(398,300,l),
(264,300,ls),
(101,300,o),
(30,258,o),
(30,161,cs),
(30,60,o),
(101,0,o),
(230,0,cs)
);
},
{
closed = 1;
nodes = (
(218,115,o),
(200,126,o),
(200,156,cs),
(200,175,o),
(227,199,o),
(313,199,cs),
(365,199,l),
(366,170,l),
(337,133,o),
(308,115,o),
(267,115,cs)
);
}
);
width = 608;
}
);
},
{
glyphname = b.ss01;
lastChange = "2021-06-08 19:08:25 +0000";
layers = (
{
background = {
shapes = (
{
attr = {
strokeWidth = 1;
};
closed = 1;
nodes = (
(509,116,o),
(442,0,o),
(310,0,c),
(195,0,o),
(109,82,o),
(109,258,c),
(109,443,o),
(195,516,o),
(310,516,c),
(440,516,o),
(509,400,o),
(509,258,c)
);
},
{
attr = {
strokeWidth = 1;
};
closed = 0;
nodes = (
(109,700,l),
(109,0,l)
);
}
);
};
guides = (
{
pos = (206,461);
}
);
layerId = m01;
shapes = (
{
closed = 1;
nodes = (
(216,102,o),
(165,154,o),
(165,252,cs),
(165,352,o),
(216,413,o),
(294,413,cs),
(357,413,o),
(398,352,o),
(398,260,cs),
(398,154,o),
(361,102,o),
(296,102,cs)
);
},
{
closed = 1;
nodes = (
(420,0,o),
(510,100,o),
(512,258,cs),
(514,405,o),
(420,514,o),
(301,514,cs),
(247.271,514,o),
(200.616,491.653,o),
(164,457.401,c),
(164,678,ls),
(164,707,o),
(141,730,o),
(112,730,cs),
(83,730,o),
(60,707,o),
(60,678,cs),
(60,52,ls),
(60,23,o),
(83,0,o),
(112,0,cs),
(141,0,o),
(164,23,o),
(164,52,cs),
(201.234,22.514,o),
(250.105,0,o),
(310,0,cs)
);
}
);
width = 552;
},
{
background = {
shapes = (
{
attr = {
strokeWidth = 1;
};
closed = 1;
nodes = (
(490,116,o),
(423,0,o),
(291,0,c),
(176,0,o),
(90,82,o),
(90,258,c),
(90,443,o),
(176,516,o),
(291,516,c),
(421,516,o),
(490,400,o),
(490,258,c)
);
},
{
attr = {
strokeWidth = 1;
};
closed = 0;
nodes = (
(90,700,l),
(90,0,l)
);
},
{
closed = 1;
nodes = (
(416,-10,o),
(495,112,o),
(495,258,cs),
(495,396,o),
(422,526,o),
(281,526,cs),
(218.219,526,o),
(160.638,502.734,o),
(120,454.341,c),
(120,703,ls),
(120,720,o),
(107,733,o),
(90,733,cs),
(73,733,o),
(60,720,o),
(60,703,cs),
(60,30,ls),
(60,13,o),
(73,0,o),
(90,0,cs),
(107,0,o),
(120,13,o),
(120,30,cs),
(120,65.139,l),
(160.476,15.851,o),
(217.881,-10,o),
(281,-10,cs)
);
}
);
};
layerId = "877D6F36-AFBE-4448-AD1B-25E457939AA6";
shapes = (
{
closed = 1;
nodes = (
(183,50,o),
(115,115,o),
(115,258,cs),
(115,409,o),
(182,466,o),
(275,466,cs),
(374,466,o),
(430,372,o),
(430,258,cs),
(430,144,o),
(376,50,o),
(276,50,cs)
);
},
{
closed = 1;
nodes = (
(416,-10,o),
(495,112,o),
(495,258,cs),
(495,396,o),
(422,526,o),
(281,526,cs),
(218.219,526,o),
(160.638,502.734,o),
(120,454.341,c),
(120,703,ls),
(120,720,o),
(107,733,o),
(90,733,cs),
(73,733,o),
(60,720,o),
(60,703,cs),
(60,30,ls),
(60,13,o),
(73,0,o),
(90,0,cs),
(116,0,o),
(120,10,o),
(120,65.139,c),
(160.476,15.851,o),
(217.881,-10,o),
(281,-10,cs)
);
}
);
width = 525;
},
{
layerId = "D47B13D9-D7EB-4385-B3F1-1D14F737A65A";
shapes = (
{
closed = 1;
nodes = (
(240,149,o),
(210,185,o),
(210,254,cs),
(210,327,o),
(242,364,o),
(298,364,cs),
(345,364,o),
(379,326,o),
(379,255,cs),
(379,185,o),
(343,147,o),
(293,148,cs)
);
},
{
closed = 1;
nodes = (
(439,0,o),
(554,114,o),
(554,268,cs),
(554,418,o),
(446,514,o),
(340,514,cs),
(294,514,o),
(254,499,o),
(220,476,c),
(220,642,ls),
(220,689,o),
(182,730,o),
(135,730,cs),
(88,730,o),
(50,689,o),
(50,642,cs),
(50,85,ls),
(50,39,o),
(88,0,o),
(135,0,cs),
(162,0,o),
(190,18,o),
(204,39,c),
(238,17,o),
(277,0,o),
(320,0,cs)
);
}
);
width = 584;
}
);
},
{
glyphname = five;
lastChange = "2021-05-29 20:11:56 +0000";
layers = (
{
background = {
shapes = (
{
closed = 1;
nodes = (
(468,693,l),
(467,690,o),
(467,689,o),
(466,688,c),
(465,687,o),
(464,685,o),
(462,685,c),
(361,685,o),
(259,685,o),
(156,685,c),
(148,679,o),
(153,670,o),
(151,663,c),
(151,660,o),
(149,657,o),
(146,655,c),
(142,653,o),
(141,655,o),
(141,660,c),
(142,669,o),
(141,680,o),
(141,693,c)
);
},
{
closed = 1;
nodes = (
(141,633,o),
(141,611,o),
(141,588,c),
(141,581,o),
(140,575,o),
(131,576,c),
(131,598,o),
(131,620,o),
(131,642,c),
(131,649,o),
(132,656,o),
(141,655,c)
);
},
{
closed = 1;
nodes = (
(122,483,o),
(122,461,o),
(122,439,c),
(122,432,o),
(121,426,o),
(111,427,c),
(111,449,o),
(111,472,o),
(111,494,c),
(111,501,o),
(112,507,o),
(122,506,c)
);
},
{
closed = 1;
nodes = (
(131,557,o),
(131,537,o),
(131,518,c),
(131,511,o),
(130,506,o),
(122,506,c),
(122,525,o),
(122,544,o),
(122,563,c),
(122,570,o),
(123,576,o),
(131,576,c)
);
},
{
closed = 1;
nodes = (
(528,267,l),
(542,251,o),
(542,234,o),
(528,217,c)
);
},
{
closed = 1;
nodes = (
(270,477,l),
(287,490,o),
(304,490,o),
(319,477,c)
);
},
{
closed = 1;
nodes = (
(271,467,o),
(265,466,o),
(259,466,c),
(246,466,o),
(234,466,o),
(221,466,c),
(220,475,o),
(226,477,o),
(233,477,c),
(245,477,o),
(258,477,o),
(270,477,c)
);
},
{
closed = 1;
nodes = (
(357,466,o),
(344,466,o),
(332,466,c),
(325,466,o),
(319,467,o),
(319,477,c),
(332,477,o),
(344,477,o),
(358,477,c),
(365,477,o),
(369,475,o),
(369,466,c)
);
},
{
closed = 1;
nodes = (
(330,9,l),
(314,-5,o),
(296,-5,o),
(280,9,c)
);
},
{
closed = 1;
nodes = (
(115,417,o),
(102,401,o),
(122,397,c),
(121,385,o),
(113,386,o),
(101,388,c),
(104,401,o),
(93,416,o),
(111,427,c)
);
},
{
closed = 1;
nodes = (
(267,9,o),
(255,9,o),
(242,9,c),
(235,9,o),
(230,10,o),
(231,19,c),
(243,19,o),
(256,19,o),
(268,19,c),
(275,19,o),
(281,18,o),
(280,9,c)
);
},
{
closed = 1;
nodes = (
(528,209,o),
(528,199,o),
(528,189,c),
(528,183,o),
(527,178,o),
(518,178,c),
(518,187,o),
(518,197,o),
(518,206,c),
(518,213,o),
(520,218,o),
(528,217,c)
);
},
{
closed = 1;
nodes = (
(527,308,o),
(528,302,o),
(528,295,c),
(528,286,o),
(528,277,o),
(528,267,c),
(520,267,o),
(518,272,o),
(518,279,c),
(518,289,o),
(518,298,o),
(518,307,c)
);
},
{
closed = 1;
nodes = (
(369,10,o),
(365,9,o),
(358,9,c),
(348,9,o),
(339,9,o),
(330,9,c),
(329,18,o),
(335,19,o),
(342,19,c),
(350,19,o),
(360,19,o),
(369,19,c)
);
},
{
closed = 1;
nodes = (
(390,460,o),
(374,447,o),
(369,466,c),
(379,462,o),
(395,476,o),
(399,456,c)
);
},
{
closed = 1;
nodes = (
(528,332,o),
(514,317,o),
(518,307,c),
(499,312,o),
(512,327,o),
(508,337,c)
);
},
{
closed = 1;
nodes = (
(514,168,o),
(528,153,o),
(508,148,c),
(512,158,o),
(499,173,o),
(518,178,c)
);
},
{
closed = 1;
nodes = (
(210,25,o),
(226,38,o),
(231,19,c),
(221,23,o),
(206,10,o),
(201,29,c)
);
},
{
closed = 1;
nodes = (
(374,38,o),
(390,25,o),
(399,29,c),
(395,10,o),
(379,23,o),
(369,19,c)
);
},
{
closed = 1;
nodes = (
(400,44,o),
(411,37,o),
(419,39,c),
(418,25,o),
(406,30,o),
(399,29,c)
);
},
{
closed = 1;
nodes = (
(193,30,o),
(181,25,o),
(181,39,c),
(188,37,o),
(200,44,o),
(201,29,c)
);
},
{
closed = 1;
nodes = (
(440,74,o),
(451,67,o),
(458,69,c),
(458,53,o),
(447,60,o),
(439,59,c)
);
},
{
closed = 1;
nodes = (
(149,67,o),
(160,74,o),
(161,59,c),
(154,60,o),
(142,53,o),
(141,69,c)
);
},
{
closed = 1;
nodes = (
(476,91,o),
(483,79,o),
(469,79,c),
(470,86,o),
(464,98,o),
(478,99,c)
);
},
{
closed = 1;
nodes = (
(480,106,o),
(474,118,o),
(488,118,c),
(487,111,o),
(493,100,o),
(478,99,c)
);
},
{
closed = 1;
nodes = (
(97,100,o),
(103,111,o),
(101,118,c),
(116,118,o),
(110,106,o),
(111,99,c)
);
},
{
closed = 1;
nodes = (
(500,136,o),
(493,147,o),
(508,148,c),
(506,141,o),
(513,130,o),
(499,129,c)
);
},
{
closed = 1;
nodes = (
(76,130,o),
(83,141,o),
(81,148,c),
(97,147,o),
(90,136,o),
(92,129,c)
);
},
{
closed = 1;
nodes = (
(87,167,o),
(80,156,o),
(81,148,c),
(67,149,o),
(74,160,o),
(72,168,c)
);
},
{
closed = 1;
nodes = (
(60,174,o),
(59,181,o),
(66,187,c),
(76,184,o),
(70,175,o),
(74,162,c)
);
},
{
closed = 1;
nodes = (
(493,338,o),
(500,349,o),
(499,357,c),
(513,356,o),
(506,345,o),
(508,337,c)
);
},
{
closed = 1;
nodes = (
(493,386,o),
(487,374,o),
(488,367,c),
(474,368,o),
(480,379,o),
(478,387,c)
);
},
{
closed = 1;
nodes = (
(464,388,o),
(470,400,o),
(469,406,c),
(483,405,o),
(476,395,o),
(478,387,c)
);
},
{
closed = 1;
nodes = (
(451,418,o),
(440,412,o),
(439,427,c),
(447,425,o),
(458,431,o),
(458,417,c)
);
},
{
closed = 1;
nodes = (
(162,452,o),
(174,445,o),
(181,447,c),
(180,431,o),
(169,438,o),
(161,436,c)
);
},
{
closed = 1;
nodes = (
(406,454,o),
(418,461,o),
(419,447,c),
(411,448,o),
(400,441,o),
(399,456,c)
);
},
{
closed = 1;
nodes = (
(181,461,o),
(193,454,o),
(201,456,c),
(200,442,o),
(188,448,o),
(181,447,c)
);
},
{
closed = 1;
nodes = (
(202,471,o),
(213,465,o),
(221,466,c),
(220,452,o),
(208,457,o),
(201,456,c)
);
},
{
closed = 1;
nodes = (
(425,447,o),
(429,443,o),
(429,436,c),
(422,436,o),
(419,439,o),
(419,447,c)
);
},
{
closed = 1;
nodes = (
(161,429,o),
(158,427,o),
(151,427,c),
(151,433,o),
(154,437,o),
(161,436,c)
);
},
{
closed = 1;
nodes = (
(432,427,o),
(428,429,o),
(429,436,c),
(436,437,o),
(439,433,o),
(439,427,c)
);
},
{
closed = 1;
nodes = (
(152,420,o),
(148,416,o),
(141,417,c),
(141,424,o),
(144,427,o),
(151,427,c)
);
},
{
closed = 1;
nodes = (
(141,410,o),
(138,406,o),
(131,406,c),
(131,414,o),
(134,417,o),
(141,417,c)
);
},
{
closed = 1;
nodes = (
(462,406,o),
(458,410,o),
(458,417,c),
(466,417,o),
(469,414,o),
(469,406,c)
);
},
{
closed = 1;
nodes = (
(131,400,o),
(128,397,o),
(122,397,c),
(121,403,o),
(125,407,o),
(131,406,c)
);
},
{
closed = 1;
nodes = (
(491,357,o),
(488,360,o),
(488,367,c),
(495,367,o),
(499,364,o),
(499,357,c)
);
},
{
closed = 1;
nodes = (
(99,129,o),
(101,126,o),
(101,118,c),
(95,118,o),
(91,122,o),
(92,129,c)
);
},
{
closed = 1;
nodes = (
(488,126,o),
(491,129,o),
(499,129,c),
(499,122,o),
(495,118,o),
(488,118,c)
);
},
{
closed = 1;
nodes = (
(114,88,o),
(111,92,o),
(111,99,c),
(118,99,o),
(122,96,o),
(122,88,c)
);
},
{
closed = 1;
nodes = (
(128,89,o),
(131,85,o),
(131,79,c),
(125,79,o),
(121,81,o),
(122,88,c)
);
},
{
closed = 1;
nodes = (
(138,79,o),
(141,76,o),
(141,69,c),
(134,69,o),
(131,72,o),
(131,79,c)
);
},
{
closed = 1;
nodes = (
(458,76,o),
(462,79,o),
(469,79,c),
(469,72,o),
(466,69,o),
(458,69,c)
);
},
{
closed = 1;
nodes = (
(164,49,o),
(161,52,o),
(161,59,c),
(168,59,o),
(171,55,o),
(171,49,c)
);
},
{
closed = 1;
nodes = (
(428,55,o),
(432,59,o),
(439,59,c),
(439,52,o),
(436,49,o),
(429,49,c)
);
},
{
closed = 1;
nodes = (
(174,39,o),
(171,42,o),
(171,49,c),
(178,49,o),
(181,46,o),
(181,39,c)
);
},
{
closed = 1;
nodes = (
(429,42,o),
(425,39,o),
(419,39,c),
(419,46,o),
(422,49,o),
(429,49,c)
);
}
);
};
layerId = m01;
width = 600;
},
{
layerId = "877D6F36-AFBE-4448-AD1B-25E457939AA6";
width = 720;
},
{
layerId = "D47B13D9-D7EB-4385-B3F1-1D14F737A65A";
width = 600;
}
);
unicode = 53;
},
{
glyphname = eight;
lastChange = "2021-05-29 20:11:56 +0000";
layers = (
{
background = {
shapes = (
{
closed = 1;
nodes = (
(257,704,o),
(306,696,o),
(336,690,c),
(326,652,o),
(255,653,o),
(237,685,c)
);
},
{
closed = 1;
nodes = (
(160,414,o),
(235,412,o),
(236,363,c),
(217,339,o),
(183,341,o),
(167,367,c)
);
},
{
closed = 1;
nodes = (
(64,517,o),
(64,545,o),
(78,565,c),
(106,553,o),
(106,509,o),
(78,496,c)
);
},
{
closed = 1;
nodes = (
(44,179,o),
(44,207,o),
(59,228,c),
(85,214,o),
(85,171,o),
(59,159,c)
);
},
{
closed = 1;
nodes = (
(528,189,o),
(528,167,o),
(515,148,c),
(488,159,o),
(488,197,o),
(515,208,c)
);
},
{
closed = 1;
nodes = (
(390,342,o),
(353,319,o),
(344,356,c),
(353,380,o),
(379,386,o),
(395,367,c)
);
},
{
closed = 1;
nodes = (
(259,3,o),
(221,-12,o),
(217,9,c),
(230,38,o),
(278,34,o),
(276,-1,c)
);
},
{
closed = 1;
nodes = (
(353,680,o),
(390,696,o),
(395,675,c),
(378,651,o),
(343,646,o),
(336,685,c)
);
},
{
closed = 1;
nodes = (
(187,684,o),
(193,685,o),
(199,685,c),
(270,696,o),
(219,634,o),
(187,675,c)
);
},
{
closed = 1;
nodes = (
(310,-15,o),
(293,-15,o),
(276,-1,c),
(289,19,o),
(314,18,o),
(326,-1,c)
);
},
{
closed = 1;
nodes = (
(376,0,o),
(370,-1,o),
(363,-1,c),
(293,-12,o),
(344,50,o),
(376,9,c)
);
},
{
closed = 1;
nodes = (
(512,136,o),
(522,109,o),
(505,108,c),
(491,121,o),
(487,148,o),
(515,148,c)
);
},
{
closed = 1;
nodes = (
(513,248,o),
(515,242,o),
(515,236,c),
(523,184,o),
(473,222,o),
(505,247,c)
);
},
{
closed = 1;
nodes = (
(61,240,o),
(50,267,o),
(68,267,c),
(82,255,o),
(86,228,o),
(59,228,c)
);
},
{
closed = 1;
nodes = (
(205,12,o),
(178,0,o),
(177,19,c),
(190,32,o),
(217,37,o),
(217,9,c)
);
},
{
closed = 1;
nodes = (
(491,504,o),
(503,478,o),
(485,477,c),
(466,486,o),
(471,521,o),
(494,516,c)
);
},
{
closed = 1;
nodes = (
(508,543,o),
(508,529,o),
(494,516,c),
(480,526,o),
(481,546,o),
(494,556,c)
);
},
{
closed = 1;
nodes = (
(82,575,o),
(69,590,o),
(87,595,c),
(98,586,o),
(99,563,o),
(78,565,c)
);
},
{
closed = 1;
nodes = (
(504,581,o),
(490,565,o),
(494,556,c),
(473,554,o),
(474,576,o),
(485,586,c)
);
},
{
closed = 1;
nodes = (
(69,471,o),
(82,486,o),
(78,496,c),
(99,498,o),
(98,477,o),
(87,466,c)
);
},
{
closed = 1;
nodes = (
(401,-1,o),
(385,13,o),
(376,9,c),
(374,30,o),
(395,29,o),
(406,19,c)
);
},
{
closed = 1;
nodes = (
(49,133,o),
(61,148,o),
(59,159,c),
(80,160,o),
(78,138,o),
(68,129,c)
);
},
{
closed = 1;
nodes = (
(424,14,o),
(412,21,o),
(406,19,c),
(400,34,o),
(417,36,o),
(425,29,c)
);
},
{
closed = 1;
nodes = (
(169,21,o),
(158,14,o),
(157,29,c),
(165,36,o),
(182,34,o),
(177,19,c)
);
},
{
closed = 1;
nodes = (
(150,30,o),
(139,25,o),
(138,39,c),
(145,47,o),
(163,45,o),
(157,29,c)
);
},
{
closed = 1;
nodes = (
(464,44,o),
(453,51,o),
(445,49,c),
(439,61,o),
(458,68,o),
(464,59,c)
);
},
{
closed = 1;
nodes = (
(493,91,o),
(499,79,o),
(485,79,c),
(476,86,o),
(483,105,o),
(494,99,c)
);
},
{
closed = 1;
nodes = (
(83,79,o),
(89,91,o),
(87,99,c),
(100,105,o),
(107,86,o),
(98,79,c)
);
},
{
closed = 1;
nodes = (
(63,109,o),
(69,121,o),
(68,129,c),
(84,133,o),
(85,116,o),
(78,108,c)
);
},
{
closed = 1;
nodes = (
(499,276,o),
(493,266,o),
(494,258,c),
(483,252,o),
(476,270,o),
(485,277,c)
);
},
{
closed = 1;
nodes = (
(69,275,o),
(63,287,o),
(78,288,c),
(85,280,o),
(84,263,o),
(68,267,c)
);
},
{
closed = 1;
nodes = (
(453,306,o),
(464,312,o),
(464,297,c),
(458,289,o),
(439,295,o),
(445,307,c)
);
},
{
closed = 1;
nodes = (
(99,315,o),
(93,326,o),
(108,327,c),
(116,320,o),
(110,301,o),
(98,307,c)
);
},
{
closed = 1;
nodes = (
(412,336,o),
(424,342,o),
(425,327,c),
(418,319,o),
(400,325,o),
(406,337,c)
);
},
{
closed = 1;
nodes = (
(393,346,o),
(405,352,o),
(406,337,c),
(394,331,o),
(385,330,o),
(385,347,c)
);
},
{
closed = 1;
nodes = (
(128,362,o),
(139,355,o),
(147,357,c),
(153,345,o),
(135,338,o),
(128,347,c)
);
},
{
closed = 1;
nodes = (
(148,372,o),
(160,366,o),
(167,367,c),
(167,350,o),
(159,350,o),
(147,357,c)
);
},
{
closed = 1;
nodes = (
(434,382,o),
(423,388,o),
(415,387,c),
(409,399,o),
(428,405,o),
(435,397,c)
);
},
{
closed = 1;
nodes = (
(160,388,o),
(148,382,o),
(147,397,c),
(155,404,o),
(172,402,o),
(167,387,c)
);
},
{
closed = 1;
nodes = (
(130,408,o),
(118,401,o),
(117,417,c),
(125,426,o),
(143,419,o),
(138,406,c)
);
},
{
closed = 1;
nodes = (
(454,419,o),
(460,407,o),
(445,406,c),
(435,414,o),
(442,432,o),
(455,427,c)
);
},
{
closed = 1;
nodes = (
(93,428,o),
(99,439,o),
(98,447,c),
(110,453,o),
(116,434,o),
(108,427,c)
);
},
{
closed = 1;
nodes = (
(473,449,o),
(480,437,o),
(464,436,c),
(456,444,o),
(462,462,o),
(475,456,c)
);
},
{
closed = 1;
nodes = (
(83,447,o),
(89,458,o),
(87,466,c),
(105,466,o),
(104,458,o),
(98,447,c)
);
},
{
closed = 1;
nodes = (
(483,469,o),
(489,457,o),
(475,456,c),
(468,468,o),
(468,477,o),
(485,477,c)
);
},
{
closed = 1;
nodes = (
(489,605,o),
(483,593,o),
(485,586,c),
(469,581,o),
(467,598,o),
(475,606,c)
);
},
{
closed = 1;
nodes = (
(89,603,o),
(83,615,o),
(98,615,c),
(105,608,o),
(103,590,o),
(87,595,c)
);
},
{
closed = 1;
nodes = (
(480,624,o),
(473,613,o),
(475,606,c),
(460,600,o),
(458,617,o),
(464,625,c)
);
},
{
closed = 1;
nodes = (
(118,650,o),
(130,643,o),
(138,645,c),
(143,633,o),
(125,626,o),
(117,635,c)
);
},
{
closed = 1;
nodes = (
(433,654,o),
(444,660,o),
(445,645,c),
(437,636,o),
(419,643,o),
(425,655,c)
);
},
{
closed = 1;
nodes = (
(148,670,o),
(160,664,o),
(167,665,c),
(173,653,o),
(155,646,o),
(147,655,c)
);
},
{
closed = 1;
nodes = (
(403,673,o),
(414,680,o),
(415,665,c),
(407,658,o),
(390,660,o),
(395,675,c)
);
},
{
closed = 1;
nodes = (
(168,680,o),
(180,673,o),
(187,675,c),
(187,658,o),
(179,659,o),
(167,665,c)
);
},
{
closed = 1;
nodes = (
(422,666,o),
(425,662,o),
(425,655,c),
(416,653,o),
(412,656,o),
(415,665,c)
);
},
{
closed = 1;
nodes = (
(138,652,o),
(140,655,o),
(147,655,c),
(150,646,o),
(146,642,o),
(138,645,c)
);
},
{
closed = 1;
nodes = (
(454,646,o),
(460,635,o),
(450,633,c),
(444,636,o),
(440,639,o),
(445,645,c)
);
},
{
closed = 1;
nodes = (
(108,632,o),
(111,636,o),
(117,635,c),
(124,627,o),
(113,621,o),
(108,625,c)
);
},
{
closed = 1;
nodes = (
(461,636,o),
(465,632,o),
(464,625,c),
(456,623,o),
(453,626,o),
(455,635,c)
);
},
{
closed = 1;
nodes = (
(97,622,o),
(101,625,o),
(108,625,c),
(110,616,o),
(107,613,o),
(98,615,c)
);
},
{
closed = 1;
nodes = (
(465,429,o),
(461,427,o),
(455,427,c),
(453,435,o),
(456,439,o),
(464,436,c)
);
},
{
closed = 1;
nodes = (
(111,416,o),
(108,420,o),
(108,427,c),
(116,428,o),
(120,426,o),
(117,417,c)
);
},
{
closed = 1;
nodes = (
(140,397,o),
(138,400,o),
(138,406,c),
(146,409,o),
(150,405,o),
(147,397,c)
);
},
{
closed = 1;
nodes = (
(445,400,o),
(442,397,o),
(435,397,c),
(433,405,o),
(435,409,o),
(445,406,c)
);
},
{
closed = 1;
nodes = (
(417,378,o),
(405,372,o),
(404,382,c),
(406,387,o),
(408,391,o),
(415,387,c)
);
},
{
closed = 1;
nodes = (
(406,370,o),
(402,367,o),
(395,367,c),
(393,376,o),
(396,379,o),
(406,376,c)
);
},
{
closed = 1;
nodes = (
(117,344,o),
(120,347,o),
(128,347,c),
(134,339,o),
(124,333,o),
(117,337,c)
);
},
{
closed = 1;
nodes = (
(108,334,o),
(111,337,o),
(117,337,c),
(120,328,o),
(116,324,o),
(108,327,c)
);
},
{
closed = 1;
nodes = (
(434,328,o),
(440,317,o),
(430,315,c),
(425,318,o),
(420,320,o),
(425,327,c)
);
},
{
closed = 1;
nodes = (
(442,318,o),
(445,314,o),
(445,307,c),
(436,305,o),
(433,308,o),
(435,318,c)
);
},
{
closed = 1;
nodes = (
(87,304,o),
(91,308,o),
(98,307,c),
(104,299,o),
(94,293,o),
(87,297,c)
);
},
{
closed = 1;
nodes = (
(78,294,o),
(81,297,o),
(87,297,c),
(90,289,o),
(86,285,o),
(78,288,c)
);
},
{
closed = 1;
nodes = (
(473,299,o),
(480,287,o),
(469,286,c),
(464,288,o),
(460,291,o),
(464,297,c)
);
},
{
closed = 1;
nodes = (
(482,288,o),
(485,284,o),
(485,277,c),
(476,275,o),
(472,278,o),
(475,288,c)
);
},
{
closed = 1;
nodes = (
(501,258,o),
(505,255,o),
(505,247,c),
(495,245,o),
(492,249,o),
(494,258,c)
);
},
{
closed = 1;
nodes = (
(81,99,o),
(78,102,o),
(78,108,c),
(86,111,o),
(90,107,o),
(87,99,c)
);
},
{
closed = 1;
nodes = (
(505,102,o),
(501,99,o),
(494,99,c),
(492,107,o),
(495,111,o),
(505,108,c)
);
},
{
closed = 1;
nodes = (
(101,69,o),
(97,72,o),
(98,79,c),
(106,85,o),
(112,75,o),
(108,69,c)
);
},
{
closed = 1;
nodes = (
(487,70,o),
(474,64,o),
(473,74,c),
(475,79,o),
(478,83,o),
(485,79,c)
);
},
{
closed = 1;
nodes = (
(111,58,o),
(108,62,o),
(108,69,c),
(115,75,o),
(122,65,o),
(117,59,c)
);
},
{
closed = 1;
nodes = (
(475,62,o),
(472,58,o),
(464,59,c),
(462,68,o),
(465,71,o),
(475,69,c)
);
},
{
closed = 1;
nodes = (
(120,49,o),
(117,52,o),
(117,59,c),
(125,65,o),
(132,55,o),
(128,49,c)
);
},
{
closed = 1;
nodes = (
(131,39,o),
(127,42,o),
(128,49,c),
(137,52,o),
(139,48,o),
(138,39,c)
);
},
{
closed = 1;
nodes = (
(446,41,o),
(434,34,o),
(433,44,c),
(435,50,o),
(438,53,o),
(445,49,c)
);
},
{
closed = 1;
nodes = (
(435,32,o),
(432,28,o),
(425,29,c),
(423,38,o),
(426,41,o),
(435,39,c)
);
},
{
closed = 1;
nodes = (
(380,358,o),
(254,329,o),
(237,372,c),
(213,375,o),
(192,388,o),
(167,387,c),
(166,401,o),
(155,396,o),
(147,397,c),
(147,403,o),
(144,407,o),
(138,406,c),
(137,422,o),
(125,415,o),
(117,417,c),
(118,424,o),
(114,427,o),
(108,427,c),
(106,434,o),
(112,446,o),
(98,447,c),
(96,454,o),
(103,465,o),
(87,466,c),
(84,476,o),
(97,491,o),
(78,496,c),
(78,565,l),
(97,570,o),
(84,586,o),
(87,595,c),
(103,596,o),
(96,608,o),
(98,615,c),
(105,615,o),
(108,618,o),
(108,625,c),
(114,625,o),
(118,628,o),
(117,635,c),
(125,637,o),
(137,630,o),
(138,645,c),
(144,645,o),
(147,648,o),
(147,655,c),
(155,657,o),
(166,650,o),
(167,665,c),
(175,667,o),
(186,660,o),
(187,675,c),
(199,675,o),
(212,675,o),
(224,675,c),
(253,693,o),
(298,683,o),
(336,685,c),
(335,676,o),
(341,675,o),
(348,675,c),
(364,675,o),
(380,675,o),
(395,675,c),
(396,660,o),
(407,667,o),
(415,665,c),
(415,658,o),
(418,655,o),
(425,655,c),
(426,641,o),
(437,646,o),
(445,645,c),
(445,640,o),
(459,625,o),
(464,625,c),
(466,617,o),
(460,606,o),
(475,606,c),
(476,598,o),
(470,587,o),
(485,586,c),
(488,576,o),
(475,561,o),
(494,556,c),
(496,529,o),
(495,524,o),
(485,505,c),
(490,476,o),
(473,478,o),
(475,456,c),
(460,455,o),
(466,444,o),
(464,436,c),
(458,437,o),
(455,433,o),
(455,427,c),
(440,426,o),
(446,414,o),
(445,406,c),
(438,407,o),
(434,403,o),
(435,397,c),
(428,396,o),
(416,401,o),
(415,387,c),
(408,387,o),
(405,384,o),
(406,376,c)
);
},
{
closed = 1;
nodes = (
(428,39,o),
(425,36,o),
(425,29,c),
(417,27,o),
(407,34,o),
(406,19,c),
(396,15,o),
(380,28,o),
(376,9,c),
(336,14,o),
(316,-6,o),
(276,-1,c),
(276,21,o),
(230,-2,o),
(205,19,c),
(177,14,o),
(179,31,o),
(157,29,c),
(157,44,o),
(145,37,o),
(138,39,c),
(138,46,o),
(135,49,o),
(128,49,c),
(128,55,o),
(124,59,o),
(117,59,c),
(117,65,o),
(104,79,o),
(98,79,c),
(96,86,o),
(103,98,o),
(87,99,c),
(88,106,o),
(85,108,o),
(78,108,c),
(77,116,o),
(83,128,o),
(68,129,c),
(64,138,o),
(77,154,o),
(59,159,c),
(59,228,l),
(76,229,o),
(65,256,o),
(68,267,c),
(83,268,o),
(77,280,o),
(78,288,c),
(84,287,o),
(99,301,o),
(98,307,c),
(112,308,o),
(106,320,o),
(108,327,c),
(114,327,o),
(118,330,o),
(117,337,c),
(124,337,o),
(128,340,o),
(128,347,c),
(135,348,o),
(146,342,o),
(147,357,c),
(155,358,o),
(166,352,o),
(167,367,c),
(237,367,l),
(273,353,o),
(310,371,o),
(346,357,c),
(347,339,o),
(374,349,o),
(385,347,c),
(386,332,o),
(398,339,o),
(406,337,c),
(407,322,o),
(417,328,o),
(425,327,c),
(425,321,o),
(438,307,o),
(445,307,c),
(446,293,o),
(458,299,o),
(464,297,c),
(464,292,o),
(478,277,o),
(485,277,c),
(487,270,o),
(480,259,o),
(494,258,c),
(502,244,o),
(508,239,o),
(505,219,c),
(517,200,o),
(515,176,o),
(515,148,c),
(496,147,o),
(507,121,o),
(505,108,c),
(497,108,o),
(494,106,o),
(494,99,c),
(480,98,o),
(487,86,o),
(485,79,c),
(478,79,o),
(474,76,o),
(475,69,c),
(468,69,o),
(464,66,o),
(464,59,c),
(458,57,o),
(446,64,o),
(445,49,c),
(438,49,o),
(434,46,o),
(435,39,c)
);
},
{
closed = 1;
nodes = (
(237,351,o),
(186,371,o),
(333,367,c),
(340,367,o),
(347,367,o),
(346,357,c)
);
}
);
};
layerId = m01;
width = 600;
},
{
layerId = "877D6F36-AFBE-4448-AD1B-25E457939AA6";
width = 720;
},
{
layerId = "D47B13D9-D7EB-4385-B3F1-1D14F737A65A";
width = 600;
}
);
unicode = 56;
},
{
glyphname = hyphen;
lastChange = "2021-05-31 18:17:18 +0000";
layers = (
{
layerId = m01;
shapes = (
{
closed = 1;
nodes = (
(50,283,o),
(73,259,o),
(102,259,cs),
(318,259,ls),
(346,259,o),
(370,283,o),
(370,311,cs),
(370,340,o),
(346,363,o),
(318,363,cs),
(102,363,ls),
(73,363,o),
(50,340,o),
(50,311,cs)
);
}
